<svg xmlns="http://www.w3.org/2000/svg" width="24" height="24" viewBox="0 0 24 24"><g fill="none" fill-rule="evenodd"><rect width="24" height="24" fill="#394791" rx="2"/><path fill="#FFF" d="M12.001 4L9.622 8.714l-5.352.761 3.874 3.694-.91 5.195L12 15.912l4.768 2.452-.91-5.195 3.873-3.694-5.352-.76L12.001 4zM6.506 5.787l1.408 1.782.982-.775-1.408-1.782-.982.775zm8.632 1.012l.99.765 1.378-1.783-.991-.764L15.138 6.8zM4 13.93l.434 1.173 2.248-.831-.434-1.173-2.248.83zm13.332.39l2.248.799.42-1.178-2.248-.8-.42 1.178zM11.376 20h1.251v-2.407h-1.251V20z"/></g></svg>