<svg xmlns="http://www.w3.org/2000/svg" width="46" height="46" viewBox="0 0 46 46">
  <g fill="#31B64B" fill-rule="evenodd">
    <rect width="30" height="30" x="8" y="8" fill-opacity=".146" stroke="#31B64B" stroke-width="2" rx="4" transform="rotate(45 23 23)"/>
    <path fill-rule="nonzero" d="M18.373,26.003 L17.14,26.003 L14.278,22.088 L14.278,26.003 L13,26.003 L13,20 L14.314,20 L17.095,23.771 L17.095,20 L18.373,20 L18.373,26.003 Z M23.809,26.003 L19.561,26.003 L19.561,20 L23.809,20 L23.809,21.125 L20.839,21.125 L20.839,22.394 L23.746,22.394 L23.746,23.519 L20.839,23.519 L20.839,24.878 L23.809,24.878 L23.809,26.003 Z M30.757,26.003 L29.398,26.003 L28.345,21.881 L27.301,26.003 L25.942,26.003 L24.223,20 L25.654,20 L26.707,24.338 L27.85,20 L28.849,20 L29.983,24.338 L31.027,20 L32.467,20 L30.757,26.003 Z"/>
  </g>
</svg>
