<svg xmlns="http://www.w3.org/2000/svg" width="46" height="46" viewBox="0 0 46 46">
  <g fill="#007AFF" fill-rule="evenodd">
    <rect width="30" height="30" x="8" y="8" fill-opacity=".064" stroke="#007AFF" stroke-width="2" rx="4" transform="rotate(45 23 23)"/>
    <path d="M22.0969396,25.2866114 C21.9772762,25.2868401 21.8622035,25.2401683 21.7764346,25.1565417 L19.5232594,22.9589135 C19.3408569,22.7828615 19.3355777,22.4923489 19.5116297,22.3098699 C19.6876817,22.127391 19.9783474,22.1221882 20.1607498,22.2981637 C20.161974,22.2993879 20.1631982,22.3005356 20.1643458,22.3016832 L22.0969396,24.1866871 L25.8356542,20.5401683 C26.0149962,20.3609028 26.3056618,20.3609028 26.4849273,20.5402448 C26.6641163,20.7195103 26.6641163,21.0100995 26.4848508,21.1894415 C26.4821729,21.1920428 26.479495,21.1947207 26.4767406,21.1973221 L22.4174445,25.1557766 C22.3318286,25.2394797 22.2167559,25.2863045 22.0969396,25.2861515 L22.0969396,25.2866114 Z M27.7142311,28.4387911 C28.9532517,27.5948738 30,25.617368 30,24.120658 L30,17.4348891 L24.8125478,14.8897475 L24.8099464,14.8885233 L22.9997705,14 L16,17.4253252 L16,24.1210406 C16,24.7475899 16.1853864,25.4915838 16.5221117,26.2160673 C16.9635042,27.1661056 17.6064269,27.9763581 18.2857689,28.4392502 L23.0000765,31.6511859 L27.7142311,28.4387911 Z"/>
  </g>
</svg>
