<?xml version="1.0" encoding="utf-8"?>
<svg width="46px" height="46px" viewBox="0 0 46 46" version="1.1" xmlns:xlink="http://www.w3.org/1999/xlink" xmlns="http://www.w3.org/2000/svg">
  <desc>Created with Lunacy</desc>
  <defs>
    <path d="M3.999 0L28.001 0Q28.1975 0 28.393 0.0192563Q28.5885 0.0385126 28.7812 0.0768397Q28.9739 0.115167 29.1618 0.172196Q29.3498 0.229224 29.5313 0.304406Q29.7129 0.379587 29.8861 0.472197Q30.0594 0.564807 30.2227 0.673953Q30.3861 0.783099 30.5379 0.907731Q30.6898 1.03236 30.8287 1.17128Q30.9676 1.3102 31.0923 1.46206Q31.2169 1.61393 31.326 1.77727Q31.4352 1.94062 31.5278 2.11388Q31.6204 2.28715 31.6956 2.46865Q31.7708 2.65015 31.8278 2.83815Q31.8848 3.02615 31.9232 3.21883Q31.9615 3.41152 31.9807 3.60703Q32 3.80254 32 3.999L32 28.001Q32 28.1975 31.9807 28.393Q31.9615 28.5885 31.9232 28.7812Q31.8848 28.9739 31.8278 29.1618Q31.7708 29.3498 31.6956 29.5313Q31.6204 29.7129 31.5278 29.8861Q31.4352 30.0594 31.326 30.2227Q31.2169 30.3861 31.0923 30.5379Q30.9676 30.6898 30.8287 30.8287Q30.6898 30.9676 30.5379 31.0923Q30.3861 31.2169 30.2227 31.326Q30.0594 31.4352 29.8861 31.5278Q29.7129 31.6204 29.5313 31.6956Q29.3498 31.7708 29.1618 31.8278Q28.9739 31.8848 28.7812 31.9232Q28.5885 31.9615 28.393 31.9807Q28.1975 32 28.001 32L3.999 32Q3.80254 32 3.60703 31.9807Q3.41152 31.9615 3.21883 31.9232Q3.02615 31.8848 2.83815 31.8278Q2.65015 31.7708 2.46865 31.6956Q2.28715 31.6204 2.11388 31.5278Q1.94062 31.4352 1.77727 31.326Q1.61393 31.2169 1.46206 31.0923Q1.3102 30.9676 1.17128 30.8287Q1.03236 30.6898 0.907731 30.5379Q0.783099 30.3861 0.673953 30.2227Q0.564807 30.0594 0.472197 29.8861Q0.379587 29.7129 0.304406 29.5313Q0.229224 29.3498 0.172196 29.1618Q0.115167 28.9739 0.0768396 28.7812Q0.0385126 28.5885 0.0192563 28.393Q0 28.1975 0 28.001L0 3.999Q0 3.80254 0.0192563 3.60703Q0.0385126 3.41152 0.0768397 3.21883Q0.115167 3.02615 0.172196 2.83815Q0.229224 2.65015 0.304406 2.46865Q0.379587 2.28715 0.472197 2.11388Q0.564807 1.94062 0.673953 1.77727Q0.783099 1.61393 0.907731 1.46206Q1.03236 1.3102 1.17128 1.17128Q1.3102 1.03236 1.46206 0.907731Q1.61393 0.783099 1.77727 0.673953Q1.94062 0.564807 2.11388 0.472197Q2.28715 0.379587 2.46865 0.304406Q2.65015 0.229224 2.83815 0.172196Q3.02615 0.115167 3.21883 0.0768396Q3.41152 0.0385126 3.60703 0.0192563Q3.80254 0 3.999 0L3.999 0Z" transform="matrix(0.7071068 0.7071068 -0.7071068 0.7071068 23 0.3725834)" id="path_1" />
    <clipPath id="clip_1">
      <use xlink:href="#path_1" />
    </clipPath>
  </defs>
  <g id="best-proposition-card-grohe">
    <g id="new">
      <g id="Rectangle-13">
        <use stroke="none" fill="#394791" fill-opacity="0.09411765" xlink:href="#path_1" />
        <g clip-path="url(#clip_1)">
          <use xlink:href="#path_1" fill="none" stroke="#394791" stroke-width="4" />
        </g>
      </g>
      <path d="M0.686844 0.660298C1.57158 -0.220099 3.11703 -0.220099 4.00082 0.660298L5.98959 2.63932C6.17312 2.82195 6.17312 3.11698 5.98959 3.29868L3.33822 5.938C3.15562 6.1197 2.8582 6.1197 2.67561 5.938L0.686844 3.95804C-0.228948 3.04767 -0.228948 1.5716 0.686844 0.660298ZM15.3132 0.660298C14.4284 -0.220099 12.883 -0.220099 11.9992 0.660298L9.97935 2.63932C9.79582 2.82195 9.79582 3.11698 9.97935 3.29868L12.6618 5.938C12.8444 6.1197 13.1418 6.1197 13.3244 5.938L15.3132 3.95804C16.2289 3.04767 16.2289 1.5716 15.3132 0.660298ZM5.92587 4.6825L13.9515 11.1712C14.2932 11.4494 14.0965 11.9992 13.655 11.9992L10.4954 11.9992C10.3618 11.9992 10.2356 11.943 10.1462 11.8446L4.73242 5.87009L5.92587 4.6825ZM11.2689 5.87047L10.0754 4.68287L8.7427 5.73841L10.2844 6.96347L11.2689 5.87047ZM7.37099 10.1643L5.61565 8.24895L2.04942 11.1721C1.70683 11.4493 1.90448 12 2.34496 12L5.50553 12C5.63918 12 5.7653 11.9429 5.85471 11.8445L7.37099 10.1643Z" transform="translate(15 17)" id="Shape" fill="#394791" fill-rule="evenodd" stroke="none" />
    </g>
  </g>
</svg>