<svg xmlns="http://www.w3.org/2000/svg" width="46" height="46" viewBox="0 0 46 46">
  <g fill="#73C9FF" fill-rule="evenodd">
    <rect width="30" height="30" x="8" y="8" fill-opacity=".183" stroke="#73C9FF" stroke-width="2" rx="4" transform="rotate(45 23 23)"/>
    <path d="M12,26 L14.44,22.44 L12.1,19 L13.9,19 L15.37,21.27 L16.85,19 L18.6,19 L16.26,22.42 L18.7,26 L16.9,26 L15.33,23.6 L13.75,26 L12,26 Z M25.88,19 L25.88,26 L24.36,26 L24.36,21.41 L21.3,26 L19.85,26 L19.85,19 L21.37,19 L21.37,23.59 L24.45,19 L25.88,19 Z M29.19,26 L29.19,20.42 L27.06,20.42 L27.06,19 L32.86,19 L32.86,20.42 L30.73,20.42 L30.73,26 L29.19,26 Z"/>
  </g>
</svg>
