<svg xmlns="http://www.w3.org/2000/svg" width="26" height="18" viewBox="0 0 26 18">
  <g fill="none" fill-rule="evenodd" transform="translate(1 -3)">
    <rect width="24" height="24"/>
    <path stroke="#394791" d="M15.2430324,16.1322842 C15.5380914,15.9958784 15.9467812,15.920543 16.4309007,16.1310906 C16.7382856,16.2473418 17.0311382,16.4668709 17.3064397,16.7883669 L17.3064397,16.7883669 C17.9180202,17.394963 18.4717323,17.6477767 18.8339869,17.7530504 C19.2150965,17.8638032 19.4582043,17.8352344 19.460511,17.8348431 C19.7366148,17.7941424 19.9775162,18.197431 19.9985775,18.7361276 C20.0195385,19.2750198 19.8127465,19.7450535 19.5366326,19.7859303 C19.5337241,19.7863216 19.5269143,19.7873 19.5164739,19.7884741 C19.3448743,19.8068676 18.1851981,19.8720278 16.8243361,18.5054254 C16.8066847,18.4876188 16.7889431,18.4696166 16.7711814,18.4514187 C16.6003841,18.2757015 16.431693,18.1465552 16.2659103,18.0639799 L16.2659103,18.0639799 L16.1490561,18.0133465 C15.9175416,17.9282805 15.6920639,17.9357561 15.4743157,18.0363896 C15.2059243,18.1604482 15.0435516,18.389996 15.0421475,18.3921288 C15.0355383,18.4024997 15.0169742,18.4308727 14.9870972,18.4731583 C14.9138741,18.576671 14.7727632,18.7637179 14.5719787,18.9721326 C14.1335021,19.4497586 13.4357708,20 12.5470835,20 C12.5313376,20 12.5156921,19.9998043 12.5000402,19.9994325 L12.4765649,19.9998557 L12.4765649,19.9998557 L12.4530096,20 C11.5670302,20 10.8707029,19.4531046 10.4320258,18.9762418 L10.4320258,18.9762418 C10.2279316,18.7646963 10.0857175,18.5762601 10.0125044,18.4725518 C9.98291825,18.4304814 9.96446453,18.402304 9.95794555,18.3921288 C9.95654146,18.389996 9.79416874,18.1604482 9.52578738,18.0363896 C9.27184807,17.9189838 9.0073781,17.9283763 8.73508536,18.0635885 C8.73478448,18.0638038 8.73448361,18.0639799 8.73418273,18.0639799 L8.60926906,18.1346435 C8.4838602,18.2140391 8.35698457,18.3196308 8.22881141,18.4514187 C8.2113606,18.4694209 8.19401009,18.4870514 8.17665958,18.504447 C6.81549673,19.8720278 5.65521874,19.8068676 5.48361915,19.7884741 C5.47318879,19.7873 5.46636893,19.7863216 5.46346046,19.7859303 C5.18735662,19.7450535 4.98045426,19.2750198 5.00151557,18.7361276 C5.0224766,18.197431 5.26347824,17.7941424 5.53958208,17.8348431 C5.5418888,17.8352344 5.78499657,17.8638032 6.16610612,17.7530504 C6.52826049,17.6477767 7.08207284,17.394963 7.69305162,16.7891496 C7.6932522,16.7889539 7.69345279,16.7887582 7.69365337,16.7883669 L7.83288836,16.6360316 C8.06731624,16.3963215 8.31349128,16.2275916 8.56990446,16.1308949 C9.053713,15.920543 9.46210197,15.9958784 9.7570607,16.1322842 C10.2089764,16.3412468 10.4982185,16.736317 10.5697267,16.8419822 C10.6196721,16.8999023 10.6690157,16.961149 10.7177576,17.0251546 C10.7740214,17.0991007 10.8423203,17.1826544 10.9221527,17.2693389 C10.9826288,17.3309769 11.0505265,17.3955501 11.1254446,17.4599275 C11.5617147,17.8344517 12.0236596,18.0303432 12.4991439,18.0426708 L12.4991439,18.0426708 C12.9764335,18.0303432 13.4383884,17.8344517 13.8745482,17.4599275 C13.9497672,17.3953544 14.0179658,17.3305856 14.0786424,17.2687519 C14.1581739,17.182263 14.2262722,17.098905 14.2823354,17.0251546 C14.3307765,16.9613446 14.3799296,16.900685 14.4295741,16.8429605 L14.4295741,16.8429605 L14.461675,16.7972845 C14.5673863,16.6517876 14.8407055,16.3182027 15.2430324,16.1322842 Z M18.2998066,10.6803145 C19.9430984,11.9287988 21.32819,11.8438803 21.4377847,11.8347838 C21.7338399,11.8025799 21.982103,12.2139383 21.9991196,12.7532471 C22.0161258,13.2925754 21.7954545,13.7554857 21.5062549,13.787219 C21.4385763,13.7945556 19.8258944,13.9523023 17.9039747,12.4921423 C17.2558721,11.9997487 16.6211771,11.8446822 16.0174941,12.0312863 C15.6345524,12.1496458 15.3841237,12.3759653 15.3142199,12.4448998 L15.299,12.459 L15.299919,12.4588635 L15.2965618,12.4628546 C15.2958274,12.4636372 15.2953553,12.4641263 15.2950091,12.4645176 C15.1922481,12.5818054 13.9084119,14 11.9434259,14 C10.5200572,14 9.47220946,13.1883174 8.97427746,12.7044538 C8.54110747,12.2835676 8.06189173,12.0392294 7.58843564,11.9978901 C7.03737635,11.9499185 6.52753688,12.124197 6.07315374,12.5162259 C4.46673503,13.902296 2.59693545,13.8749256 2.51804184,13.8732431 C2.2283596,13.866513 1.99645225,13.4231083 2.00004016,12.88288 C2.00369116,12.3430234 2.24081262,11.9103986 2.53065223,11.9169722 C2.54757449,11.9171483 4.24657779,11.9365756 5.63261894,10.7406703 C6.24164195,10.2151543 6.91617184,9.98061782 7.63750285,10.0436148 C8.26194788,10.0981404 8.89183783,10.4182706 9.45907451,10.9694549 C9.87190212,11.3706008 10.7436136,12.0435726 11.9434259,12.0435726 C12.8406624,12.0435726 13.5650988,11.6944677 14.0148239,11.4015906 C14.4817335,11.0975422 14.7428902,10.8009478 14.7454081,10.7980523 L14.7468349,10.7963893 C14.8069493,10.7271122 16.2425822,9.11738337 18.2998066,10.6803145 Z M19.5897298,4.91937897 C20.6724908,5.85383848 21.6636249,6.24097701 22.3044355,6.40120315 C23.0032568,6.57593771 23.4500243,6.52666593 23.4544597,6.52614153 C23.7387165,6.49089746 23.9824154,6.95031583 23.9991357,7.55265514 C24.0158664,8.15499445 23.7984602,8.67205315 23.5141105,8.70747203 C23.4331285,8.71758858 21.5049721,8.93167501 19.2005399,6.94290868 C18.7528854,6.55655675 18.3028997,6.31531075 17.8630638,6.22587865 C17.513122,6.15469131 17.1679249,6.17879187 16.8370449,6.29739374 C16.3409002,6.47527271 16.0224609,6.81681008 15.9478786,6.90283363 L15.935,6.917 L15.9357635,6.91668866 L15.9328857,6.92055611 C15.9323493,6.92121161 15.9320296,6.92160491 15.9317717,6.92193266 C15.8238164,7.06251565 14.2919362,9 11.9312055,9 C10.2317089,9 8.9818678,7.9005729 8.38812393,7.24520361 C7.8477904,6.6488075 7.24975555,6.30257219 6.65866261,6.24397046 C5.97129077,6.17571102 5.33455458,6.42368682 4.76617494,6.9807966 C2.84361947,8.86509802 0.603768646,8.82801855 0.50933612,8.82552765 C0.224522255,8.81798939 -0.00347736997,8.3227807 4.01593035e-05,7.71945814 C0.00363988218,7.11641963 0.237096068,6.63460499 0.521827413,6.6406793 L0.550965393,6.64061332 C0.810018615,6.63752685 2.73728593,6.56176903 4.33303342,4.99777682 C5.053485,4.2916281 5.85215416,3.97661646 6.7069052,4.06135081 C7.4464599,4.1347013 8.19263674,4.56560541 8.86477353,5.3074789 C9.37484327,5.87048819 10.4515082,6.8149987 11.9312055,6.8149987 C13.0194746,6.8149987 13.9006833,6.33980462 14.4482888,5.94115113 C14.9888572,5.5476492 15.3209595,5.14852471 15.3818261,5.07281367 L15.3919848,5.06000566 C15.4627035,4.96738345 17.1522257,2.81583452 19.5897298,4.91937897 Z"/>
  </g>
</svg>
