<svg xmlns="http://www.w3.org/2000/svg" width="74" height="94" viewBox="0 0 74 94"><g><g><path fill="#fff" d="M30.883 77.967v-4.482h10.02v4.482zm-8.215-9.947a4.833 4.833 0 0 1-4.693-3.66l-5.91-23.528h47.657l-5.909 23.529a4.832 4.832 0 0 1-4.693 3.659zM5.641 35.367V27.25h60.507v8.117zM17.308 8.469a3.01 3.01 0 0 1 3.007-3.005 3.01 3.01 0 0 1 3.006 3.005v13.135h-6.013V8.47zm31.16 0a3.01 3.01 0 0 1 3.006-3.005 3.01 3.01 0 0 1 3.006 3.005v13.135h-6.013V8.47zM70.88 77.745a2.733 2.733 0 0 0-2.733 2.732v4.78a3.1 3.1 0 0 1-3.098 3.096H41.725a3.1 3.1 0 0 1-3.097-3.096v-1.826h5.01a2.733 2.733 0 0 0 2.734-2.732v-7.214h2.749c4.733 0 8.843-3.204 9.995-7.792l6.243-24.86h3.522a2.733 2.733 0 0 0 2.734-2.733V24.518a2.733 2.733 0 0 0-2.734-2.732h-8.934V8.469c0-4.67-3.801-8.469-8.473-8.469C46.802 0 43 3.799 43 8.469v13.317H28.788V8.47c0-4.67-3.801-8.469-8.473-8.469-4.672 0-8.473 3.799-8.473 8.469v13.317H2.907a2.733 2.733 0 0 0-2.733 2.732v13.583a2.733 2.733 0 0 0 2.733 2.732H6.43l6.243 24.86a10.291 10.291 0 0 0 9.995 7.792h2.75V80.7a2.733 2.733 0 0 0 2.732 2.731h5.011v1.827c0 4.72 3.842 8.56 8.564 8.56H65.05c4.722 0 8.564-3.84 8.564-8.56v-4.78a2.732 2.732 0 0 0-2.733-2.733z"/></g></g></svg>