<?xml version="1.0" encoding="utf-8"?>
<svg width="18px" height="18px" viewBox="0 0 18 18" version="1.1" xmlns:xlink="http://www.w3.org/1999/xlink" xmlns="http://www.w3.org/2000/svg">
  <desc>Created with Lunacy</desc>
  <g id="delivery-truck">
    <path d="M0 0L18 0L18 18L0 18L0 0Z" id="Rectangle-4" fill="none" stroke="none" />
    <path d="M0.631836 8.72223L0.631836 0.797374C0.631836 0.357006 0.976807 0 1.40239 0L9.05681 0C9.48237 0 9.82734 0.357006 9.82734 0.797374L9.82734 8.72226C9.82734 8.86905 9.71237 8.98805 9.57048 8.98805L0.888689 8.98805C0.746807 8.98805 0.631836 8.86905 0.631836 8.72223ZM17.9997 10.0492L17.9997 10.8556C17.9997 11.0024 17.8847 11.1214 17.7429 11.1214L15.6634 11.1214C15.5146 10.0658 14.6367 9.25187 13.5763 9.25187C12.5156 9.25187 11.6377 10.0659 11.4889 11.1214L7.30153 11.1214C7.22656 10.5893 6.96703 10.1192 6.59082 9.78345L10.5612 9.78345L10.5612 2.181C10.5612 1.88742 10.7912 1.64941 11.0749 1.64941L13.4998 1.64941C14.1826 1.64941 14.8207 2.00036 15.2027 2.58591L16.766 4.9818C16.9953 5.33324 17.1178 5.74758 17.1178 6.17164L17.1178 9.78345L17.7429 9.78345C17.8847 9.78345 17.9997 9.90246 17.9997 10.0492ZM14.1443 3.20462L15.3943 5.0427C15.5141 5.2188 15.3924 5.46146 15.1843 5.46146L11.9844 5.46146C11.8425 5.46146 11.7275 5.34249 11.7275 5.19567L11.7275 3.35759C11.7275 3.2108 11.8426 3.0918 11.9844 3.0918L13.9342 3.0918C14.0178 3.0918 14.0962 3.13389 14.1443 3.20462ZM0.256853 9.7832L3.83809 9.7832C3.46188 10.119 3.20232 10.589 3.12738 11.1212L0.256853 11.1212C0.115 11.1212 0 11.0022 0 10.8554L0 10.049C0 9.90221 0.115 9.7832 0.256853 9.7832ZM5.21439 13.0908C6.097 13.0908 6.81256 12.3504 6.81256 11.437C6.81256 10.5236 6.097 9.7832 5.21439 9.7832C4.33177 9.7832 3.61621 10.5236 3.61621 11.437C3.61621 12.3504 4.33177 13.0908 5.21439 13.0908ZM15.1749 11.437C15.1749 12.3504 14.4593 13.0908 13.5767 13.0908C12.694 13.0908 11.9785 12.3504 11.9785 11.437C11.9785 10.5236 12.694 9.7832 13.5767 9.7832C14.4593 9.78317 15.1749 10.5236 15.1749 11.437ZM6.01325 11.4372C6.01325 10.9806 5.65548 10.6104 5.21416 10.6104C4.77283 10.6104 4.41504 10.9806 4.41504 11.4372C4.41504 11.8939 4.77283 12.2642 5.21416 12.2642C5.65548 12.2642 6.01325 11.8939 6.01325 11.4372ZM13.5764 10.6104C14.0178 10.6104 14.3755 10.9806 14.3755 11.4372C14.3755 11.8939 14.0178 12.2642 13.5764 12.2642C13.1351 12.2642 12.7773 11.8939 12.7773 11.4372C12.7773 10.9806 13.1351 10.6104 13.5764 10.6104Z" transform="translate(0 2)" id="Shape" fill="#60BE34" fill-rule="evenodd" stroke="none" />
  </g>
</svg>
