<svg xmlns="http://www.w3.org/2000/svg" width="32" height="32" viewBox="0 0 32 32"><defs><clipPath id="e46ka"><path fill="#fff" d="M43.612 47.612a4 4 0 0 1 4-4h14.261a4 4 0 0 1 4 4v14.261a4 4 0 0 1-4 4h-14.26a4 4 0 0 1-4-4z"/></clipPath></defs><g><g><g><g transform="rotate(45 54.5 54.5)"><path fill="#d0021b" fill-opacity=".05" d="M43.612 47.612a4 4 0 0 1 4-4h14.261a4 4 0 0 1 4 4v14.261a4 4 0 0 1-4 4h-14.26a4 4 0 0 1-4-4z"/><path fill="none" stroke="#d0021b" stroke-miterlimit="50" stroke-width="4" d="M43.612 47.612a4 4 0 0 1 4-4h14.261a4 4 0 0 1 4 4v14.261a4 4 0 0 1-4 4h-14.26a4 4 0 0 1-4-4z" clip-path="url(&quot;#e46ka&quot;)"/></g><g><path fill="#d0021b" d="M57.011 58.767c.65 0 1.131-.466 1.131-1.23 0-.777-.48-1.258-1.13-1.258-.651 0-1.117.48-1.117 1.258 0 .764.466 1.23 1.116 1.23zm-5.187-5.053c.65 0 1.116-.48 1.116-1.212 0-.79-.466-1.255-1.116-1.255-.636 0-1.117.465-1.117 1.255 0 .733.48 1.212 1.117 1.212zm5.187 6.156c-1.442 0-2.389-1.018-2.389-2.333 0-1.328.947-2.374 2.39-2.374 1.441 0 2.402 1.046 2.402 2.374 0 1.315-.961 2.333-2.403 2.333zm-5.046-.163h-1.06l6.021-9.435h1.075zm-.141-4.884c-1.442 0-2.39-1.003-2.39-2.318 0-1.329.948-2.375 2.39-2.375 1.456 0 2.403 1.046 2.403 2.375 0 1.315-.947 2.318-2.403 2.318z"/></g></g></g></g></svg>