<?xml version="1.0" encoding="utf-8"?>
<!-- Generator: Adobe Illustrator 21.0.0, SVG Export Plug-In . SVG Version: 6.00 Build 0)  -->
<svg version="1.1" id="_1" xmlns="http://www.w3.org/2000/svg" xmlns:xlink="http://www.w3.org/1999/xlink" x="0px" y="0px"
	 viewBox="0 0 176 52" style="enable-background:new 0 0 176 52;" xml:space="preserve">
<style type="text/css">
	.st0{fill:#122D52;}
	.st1{fill-rule:evenodd;clip-rule:evenodd;fill:#FEFEFE;}
</style>
<title>gr-russia</title>
<path class="st0" d="M24,16.6v9.3c-2,0.9-4.1,1.3-6.3,1.3c-5.4,0-9.2-4.2-9.2-10.2c0-6.4,4.5-10.9,11.1-10.9c3.6,0,7.3,1,11.6,3.3
	V3.2c-5.6-2.3-8.4-3-12.5-3C7.3,0.3,0,6.8,0,17c0,9.7,7.1,16.1,17.7,16.1c5.1-0.1,10-1.4,14.5-3.9V16.6H24z"/>
<path class="st0" d="M38.9,1.2v31h8V7h3.5C55,7,57,8.5,57,11.7S54.7,17,50.7,17H49h-0.9l11.1,15.1h10.3L59.3,19.7
	c3.6-1.4,5.9-4.9,5.8-8.8c0-6.6-4.2-9.7-13-9.7L38.9,1.2z"/>
<polygon class="st0" points="113.7,1.2 113.7,32.1 121.7,32.1 121.7,18.9 135.9,18.9 135.9,32.1 143.9,32.1 143.9,1.2 135.9,1.2 
	135.9,12.6 121.7,12.6 121.7,1.2 113.7,1.2 "/>
<polygon class="st0" points="152.5,1.2 152.5,32.1 175.6,32.1 175.6,26.1 160.5,26.1 160.5,18.7 171.6,18.7 171.6,12.9 160.5,12.9 
	160.5,7.3 173.9,7.3 173.9,1.2 152.5,1.2 "/>
<path class="st0" d="M70.1,16.7c0,9.6,8,16.7,18.9,16.7s19-7,19-16.7S100,0,89,0S70.1,7,70.1,16.7z M78.6,18.7
	c0-6.4,4.3-10.9,10.5-10.9s10.5,4.5,10.5,10.9S95.2,29.5,89,29.5S78.6,25.1,78.6,18.7z"/>
<path class="st0" d="M3.6,49.8c-1.9,0-2.9-1.3-2.9-3.2c0-2,1.1-3.3,2.9-3.3c1.3-0.1,2.4,0.8,2.6,2.1c0,0,0,0.1,0,0.1h-1
	c-0.1-0.8-0.7-1.4-1.5-1.3c-1.2,0-1.9,0.9-1.9,2.4S2.4,49,3.6,49c0.9,0,1.6-0.7,1.7-1.6h1C6.1,48.8,5,49.9,3.6,49.8z"/>
<path class="st0" d="M7.8,49.6v-6.1h5v6.1h-1v-5.2h-3v5.2L7.8,49.6z"/>
<path class="st0" d="M17.3,49.8c-1.8,0-2.9-1.2-2.9-3.2s1.1-3.3,2.8-3.3c2,0,2.8,1.6,2.8,3.4v0.1h-4.6v0.1c-0.1,1,0.6,1.9,1.6,2.1
	c0.1,0,0.2,0,0.3,0c0.8,0.1,1.5-0.5,1.6-1.3h1C19.8,49,18.6,50,17.3,49.8z M17.2,44.2c-1,0-1.8,0.8-1.8,1.8h3.5
	C18.8,44.9,18.2,44.2,17.2,44.2z"/>
<path class="st0" d="M26.3,49.6h-4.8v-6.1h1v5.2h3v-5.2h1v5.2h0.8v2.8h-1L26.3,49.6z"/>
<path class="st0" d="M28.6,49.6v-6.1h1v5l0,0l2.7-5h1.3v6.1h-1v-5l0,0l-2.7,5H28.6z"/>
<path class="st0" d="M40.9,49.6c-0.2,0.1-0.4,0.1-0.7,0.1c-0.4,0-0.8-0.3-0.9-0.7c0-0.1,0-0.1,0-0.2c-0.5,0.7-1.4,1-2.2,1
	c-0.9,0.1-1.8-0.5-1.9-1.5c0-0.1,0-0.2,0-0.3c0-1.1,0.7-1.7,2.2-1.9s1.9-0.1,1.9-1c0-0.7-0.5-1-1.4-1s-1.4,0.3-1.5,1.2h-1
	c0-1.3,1-2.1,2.5-2.1c0.7,0,1.4,0.2,1.9,0.6c0.3,0.5,0.5,1,0.4,1.6c0,0.9,0,1.8,0,2.7c0,0.5,0.1,0.6,0.4,0.6c0.1,0,0.2,0,0.3,0
	L40.9,49.6z M37.9,46.8c-0.7,0.1-1.7,0.2-1.7,1.2c0,0.6,0.5,1,1.2,1c0.9,0,1.8-0.7,1.8-1.4v-1.1C38.8,46.7,38.4,46.8,37.9,46.8
	L37.9,46.8z"/>
<path class="st0" d="M47.3,49.6h-1v-5.2h-2.2l-0.1,2.7c-0.1,2-0.8,2.7-1.7,2.7c-0.2,0-0.5,0-0.7-0.1v-0.8c0.2,0.1,0.3,0.1,0.5,0.1
	c0.4,0,0.8-0.3,0.9-1.7l0.1-3.7h4.1V49.6z"/>
<path class="st0" d="M49.2,49.6v-6.1h1v5l0,0l2.7-5h1.3v6.1h-1v-5l0,0l-2.7,5H49.2z"/>
<path class="st0" d="M58.4,43.3c1.3,0,2.3,0.5,2.3,1.7c0,0.6-0.4,1.1-1,1.3l0,0c0.7,0.1,1.2,0.8,1.2,1.5c0,1.3-1.2,2-2.5,2
	c-1.6,0-2.6-0.8-2.6-2.1h1c0.1,0.9,0.7,1.3,1.6,1.3s1.5-0.5,1.5-1.2s-0.4-1-1.3-1h-0.8V46h0.7c0.7,0,1.3-0.3,1.3-1
	c0-0.5-0.5-0.9-1.3-0.9s-1.5,0.3-1.5,1.1h-1C55.9,43.8,57.2,43.3,58.4,43.3z"/>
<path class="st0" d="M62.5,49.6v-6.1h1v5l0,0l2.7-5h1.3v6.1h-1v-5l0,0l-2.7,5H62.5z"/>
<path class="st0" d="M70.4,44.4c0.4-0.7,1.2-1.1,2.1-1.1c1.7,0,2.8,1.2,2.8,3.2s-1.1,3.3-2.7,3.3c-0.8,0-1.6-0.3-2-1V52h-1v-8.5h0.9
	L70.4,44.4z M70.4,46.6c0,1.5,0.7,2.4,1.9,2.4s1.8-0.9,1.8-2.4s-0.7-2.4-1.9-2.4S70.4,45.1,70.4,46.6L70.4,46.6z"/>
<path class="st0" d="M82.4,46.5c0,2.1-1.1,3.3-2.9,3.3s-3-1.2-3-3.2s1.1-3.3,3-3.3S82.4,44.5,82.4,46.5z M77.5,46.5
	c0,1.5,0.7,2.4,1.9,2.4s1.9-0.9,1.9-2.4s-0.7-2.4-1.9-2.4S77.5,45.1,77.5,46.5L77.5,46.5z"/>
<path class="st0" d="M84,43.5h2.8c1.1,0,2.1,0.2,2.1,1.5c0,0.6-0.3,1.1-0.9,1.3l0,0c0.7,0.1,1.2,0.8,1.2,1.5c0,1-0.7,1.8-1.7,1.8
	c0,0-0.1,0-0.1,0H84V43.5z M87.9,45.2c0-0.5-0.3-0.8-1.2-0.8h-1.8V46h1.7C87.5,46,87.8,45.7,87.9,45.2L87.9,45.2z M85,48.8h2.1
	c0.6,0,1-0.4,1-1c0-0.6-0.3-0.9-1.2-0.9h-2L85,48.8z"/>
<path class="st0" d="M96.1,49.6c-0.2,0.1-0.4,0.1-0.7,0.1c-0.4,0-0.8-0.3-0.9-0.7c0-0.1,0-0.1,0-0.2c-0.5,0.7-1.4,1-2.2,1
	c-0.9,0.1-1.8-0.5-1.9-1.5c0-0.1,0-0.2,0-0.3c0-1.1,0.7-1.7,2.2-1.9s1.9-0.1,1.9-1c0-0.7-0.5-1-1.4-1s-1.4,0.3-1.5,1.2h-1
	c0-1.3,1-2.1,2.5-2.1c0.7,0,1.4,0.2,1.9,0.6c0.3,0.5,0.5,1,0.4,1.6c0,0.9,0,1.8,0,2.7c0,0.5,0.1,0.6,0.4,0.6c0.1,0,0.2,0,0.3,0
	L96.1,49.6z M93.1,46.8c-0.7,0.1-1.7,0.2-1.7,1.2c0,0.6,0.5,1,1.2,1c0.9,0,1.8-0.7,1.8-1.4v-1.1C94,46.7,93.6,46.8,93.1,46.8
	L93.1,46.8z"/>
<path class="st0" d="M97.4,49.6v-6.1h1V46h3v-2.5h1v6.1h-1v-2.8h-3v2.8H97.4z"/>
<path class="st0" d="M104.4,49.6v-6.1h1V46h3v-2.5h1v6.1h-1v-2.8h-3v2.8H104.4z"/>
<path class="st0" d="M114.3,49.6h-2.9v-6.1h1v2.3h1.9c1,0,1.9,0.8,1.9,1.9C116.1,48.8,115.3,49.6,114.3,49.6
	C114.2,49.6,114.2,49.6,114.3,49.6L114.3,49.6z M112.3,46.7v2h1.6c0.8,0,1.3-0.4,1.3-1s-0.4-1-1.3-1H112.3z M118.2,43.5v6.1h-1v-6.1
	H118.2z"/>
<path class="st0" d="M120.1,49.6v-6.1h1v5l0,0l2.7-5h1.3v6.1h-1v-5l0,0l-2.7,5H120.1z M122.6,42.8c-0.9,0-1.7-0.7-1.8-1.6h0.6
	c0.1,0.7,0.8,1.1,1.4,0.9c0.5-0.1,0.8-0.5,0.9-0.9h0.6C124.3,42.1,123.5,42.9,122.6,42.8z"/>
<path class="st0" d="M136.3,49.6v-4.8l0,0l-1.8,4.8h-0.9l-1.8-4.8l0,0v4.8h-1v-6.1h1.4l1.9,5l0,0l1.9-5h1.4v6.1H136.3z"/>
<path class="st0" d="M144.6,49.6c-0.2,0.1-0.4,0.1-0.7,0.1c-0.4,0-0.8-0.3-0.9-0.7c0-0.1,0-0.1,0-0.2c-0.5,0.7-1.4,1-2.2,1
	c-0.9,0.1-1.8-0.5-1.9-1.5c0-0.1,0-0.2,0-0.3c0-1.1,0.7-1.7,2.2-1.9s1.9-0.1,1.9-1c0-0.7-0.5-1-1.4-1s-1.4,0.3-1.5,1.2h-1
	c0-1.3,1-2.1,2.5-2.1c0.7,0,1.4,0.2,1.9,0.6c0.3,0.5,0.5,1,0.4,1.6c0,0.9,0,1.8,0,2.7c0,0.5,0.1,0.6,0.4,0.6c0.1,0,0.2,0,0.3,0
	L144.6,49.6z M141.6,46.8c-0.7,0.1-1.7,0.2-1.7,1.2c0,0.6,0.5,1,1.2,1c0.9,0,1.9-0.7,1.9-1.4v-1.1C142.5,46.7,142.1,46.8,141.6,46.8
	L141.6,46.8z"/>
<path class="st0" d="M146.9,44.4v5.2h-1v-6.1h4.2v0.9H146.9z"/>
<path class="st0" d="M156.4,49.6c-0.2,0.1-0.4,0.1-0.7,0.1c-0.4,0-0.8-0.3-0.9-0.7c0-0.1,0-0.1,0-0.2c-0.5,0.7-1.4,1-2.2,1
	c-0.9,0.1-1.8-0.5-1.9-1.5c0-0.1,0-0.2,0-0.3c0-1.1,0.7-1.7,2.2-1.9s1.9-0.1,1.9-1c0-0.7-0.5-1-1.4-1s-1.4,0.3-1.5,1.2h-1
	c0-1.3,1-2.1,2.6-2.1c0.7,0,1.4,0.2,1.9,0.6c0.3,0.5,0.5,1,0.4,1.6c0,0.9,0,1.8,0,2.7c0,0.5,0.1,0.6,0.4,0.6c0.1,0,0.2,0,0.3,0
	L156.4,49.6z M153.4,46.8c-0.7,0.1-1.7,0.2-1.7,1.2c0,0.6,0.5,1,1.2,1c0.9,0,1.9-0.7,1.9-1.4v-1.1C154.3,46.7,153.9,46.8,153.4,46.8
	L153.4,46.8z"/>
<path class="st0" d="M159.9,43.3c1.3,0,2.3,0.5,2.3,1.7c0,0.6-0.4,1.1-1,1.3l0,0c0.7,0.1,1.2,0.8,1.2,1.5c0,1.3-1.2,2-2.5,2
	c-1.6,0-2.6-0.8-2.6-2.1h1c0.1,0.9,0.7,1.3,1.6,1.3s1.5-0.5,1.5-1.2s-0.4-1-1.3-1h-0.8V46h0.7c0.7,0,1.3-0.3,1.3-1
	c0-0.5-0.5-0.9-1.3-0.9s-1.5,0.3-1.5,1.1h-1C157.4,43.8,158.7,43.3,159.9,43.3z"/>
<path class="st0" d="M164,49.6v-6.1h1v5l0,0l2.7-5h1.3v6.1h-1v-5l0,0l-2.7,5H164z"/>
<path class="st0" d="M171,49.6v-6.1h1V46h3v-2.5h1v6.1h-1v-2.8h-3v2.8H171z"/>
<path class="st0" d="M89.8,25.7c0-0.3-0.1-0.5-0.4-0.6l0-1.2l1.3,0.9c0.2,0.1,0.4,0.1,0.5-0.1c0.1-0.2,0.1-0.4-0.1-0.5L89.5,23
	l0-0.6l0-0.8l1.8,1.3c0.1,0.1,0.3,0.1,0.4,0c0.1-0.1,0.2-0.2,0.2-0.4l-0.2-2.2l1.1,0.7l0.2,2.1c0,0.2,0.2,0.3,0.4,0.3
	c0.2,0,0.4-0.2,0.3-0.4l-0.1-1.6l1,0.6c0,0.3,0.1,0.5,0.4,0.6c0.4,0.2,0.8,0.1,1-0.3c0.2-0.4,0.1-0.8-0.3-1c-0.2-0.1-0.5-0.1-0.7,0
	l-1-0.6l1.5-0.6c0.2-0.1,0.3-0.3,0.2-0.5c-0.1-0.2-0.3-0.3-0.5-0.2l-2,0.8L92,19.8l2.1-0.9c0.1-0.1,0.2-0.2,0.2-0.3
	c0-0.1-0.1-0.3-0.2-0.3l-2-0.9l0.6-0.3l0.5-0.3l1.9,0.9c0.2,0.1,0.4,0,0.5-0.2c0.1-0.2,0-0.4-0.2-0.5l-1.4-0.6l1-0.6
	c0.2,0.1,0.5,0.1,0.7,0c0.4-0.2,0.5-0.6,0.3-1c-0.2-0.4-0.6-0.5-1-0.3c-0.2,0.1-0.4,0.4-0.4,0.6l-1,0.6l0.2-1.6
	c0-0.2-0.1-0.4-0.3-0.4c-0.2,0-0.4,0.1-0.4,0.3l-0.3,2.1l-1.2,0.7l0.3-2.3c0-0.1-0.1-0.3-0.2-0.4c-0.1-0.1-0.3-0.1-0.4,0l-1.8,1.3
	l0-1.2l1.7-1.2c0.2-0.1,0.2-0.3,0.1-0.5c-0.1-0.2-0.3-0.2-0.5-0.1l-1.3,0.9l0-1.2c0.2-0.1,0.4-0.4,0.4-0.6c0-0.4-0.3-0.7-0.7-0.7
	c-0.4,0-0.7,0.3-0.8,0.7c0,0.3,0.1,0.5,0.4,0.6l0,1.2l-1.3-0.9c-0.2-0.1-0.4-0.1-0.5,0.1c-0.1,0.2-0.1,0.4,0.1,0.5l1.7,1.2l0,0.6
	l0,0.7L87,14c-0.1-0.1-0.3-0.1-0.4,0s-0.2,0.2-0.2,0.4l0.2,2.3L85.5,16l-0.2-2.1c0-0.2-0.2-0.3-0.4-0.3c-0.2,0-0.4,0.2-0.3,0.4
	l0.1,1.6l-1-0.6c0-0.3-0.1-0.5-0.4-0.6c-0.4-0.2-0.8-0.1-1,0.3c-0.2,0.4-0.1,0.8,0.3,1c0.2,0.1,0.5,0.1,0.7,0l1,0.6l-1.5,0.6
	c-0.2,0.1-0.3,0.3-0.2,0.5c0.1,0.2,0.3,0.3,0.5,0.2l2-0.8l1,0.6l-2.1,0.9c-0.1,0.1-0.2,0.2-0.2,0.3c0,0.1,0.1,0.3,0.2,0.3l2.1,0.9
	l-0.6,0.4l-0.5,0.3l-1.9-0.9c-0.2-0.1-0.4,0-0.5,0.2c-0.1,0.2,0,0.4,0.2,0.5l1.4,0.7l-1,0.6c-0.2-0.1-0.5-0.1-0.7,0
	c-0.4,0.2-0.5,0.6-0.3,1c0.2,0.4,0.6,0.5,1,0.3c0.2-0.1,0.4-0.4,0.4-0.6l1-0.6l-0.2,1.6c0,0.2,0.1,0.4,0.3,0.4
	c0.2,0,0.4-0.1,0.4-0.3l0.3-2.1l0.7-0.4l0.4-0.2l-0.3,2.2c0,0.1,0.1,0.3,0.2,0.4c0.1,0.1,0.3,0.1,0.4,0l1.9-1.4l0,1.4L87,24.2
	c-0.2,0.1-0.2,0.3-0.1,0.5c0.1,0.2,0.3,0.2,0.5,0.1l1.3-0.9l0,1.1c-0.2,0.1-0.4,0.4-0.4,0.6c0,0.4,0.3,0.7,0.7,0.7
	C89.4,26.4,89.8,26.1,89.8,25.7z M89.5,20.8l0-1.6l1.1,0.7l0.2,0.1l0.2,1.9L89.5,20.8z M93.1,18.5l-1.9,0.8L91,19.2l-1.1-0.7
	l1.5-0.8L93.1,18.5z M90.9,17.2L90.9,17.2l-1.4,0.8l0-1.7l1.6-1.1L90.9,17.2z M88.8,16.3l0,1.6l-1.1-0.7l-0.3-0.2l-0.2-2L88.8,16.3z
	 M85.2,18.5l1.8-0.8l0.3,0.2l1.1,0.7l-1.4,0.8L85.2,18.5z M87.1,21.9l0.2-1.9l1.4-0.8l0,1.5L87.1,21.9z"/>
<path class="st1" d="M94.3,3.2c-1.9-1.6-4.6,1.3-4.8,3.2c-0.2-1.9-2.8-4.8-4.8-3.2c-1.8,1.5,0.6,3.8,2.6,4.4
	c-0.2-0.1-0.5-0.2-0.8-0.3c-1.4-0.5-2.4-1.2-3.6-1.6c-2.1-0.7-3.4-0.5-5.4,0.3l1.2,2.2c2.7-1.5,6.8-0.2,9.8,0c0.4,0,0.8,0,1,0
	c0.2,0,0.6,0,1,0c3-0.2,7.1-1.5,9.8,0l1.2-2.2c-2-0.8-3.3-0.9-5.4-0.3c-1.2,0.4-2.3,1.1-3.6,1.6c-0.3,0.1-0.5,0.2-0.8,0.3
	C93.8,7,96.1,4.7,94.3,3.2L94.3,3.2z M89.5,6.8L89.5,6.8L89.5,6.8L89.5,6.8L89.5,6.8L89.5,6.8z M88.8,7.1c-0.9,0.7-3.9-1.3-2.5-2.4
	C87.6,3.6,89.6,6.4,88.8,7.1L88.8,7.1z M90.3,7.1c-0.9-0.7,1.1-3.5,2.5-2.4C94.2,5.8,91.2,7.8,90.3,7.1z"/>
</svg>
