<svg id="_1" data-name="1" xmlns="http://www.w3.org/2000/svg" viewBox="0 0 176 52"><defs><style>.cls-1,.cls-2{fill:#122d52;}.cls-2{fill-rule:evenodd;}</style></defs><title>gr-russia</title><path class="cls-1" d="M24,16.61v9.28a16.13,16.13,0,0,1-6.31,1.33c-5.41,0-9.21-4.2-9.21-10.17C8.49,10.61,13,6.13,19.55,6.13c3.65,0,7.25,1,11.63,3.29V3.25C25.59,1,22.83.3,18.7.3,7.29.3,0,6.79,0,17c0,9.67,7.07,16.1,17.71,16.1a30.51,30.51,0,0,0,14.46-3.94V16.61Z"/><path class="cls-1" d="M38.94,1.2v31h8V7h3.46C55,7,57,8.5,57,11.74S54.73,17,50.74,17l-1.76,0h-.9L59.23,32.15H69.49L59.26,19.71a9.21,9.21,0,0,0,5.83-8.81c0-6.56-4.23-9.7-13-9.7Z"/><polygon class="cls-1" points="113.68 1.2 113.68 32.15 121.71 32.15 121.71 18.92 135.9 18.92 135.9 32.15 143.93 32.15 143.93 1.2 135.9 1.2 135.9 12.64 121.71 12.64 121.71 1.2 113.68 1.2 113.68 1.2"/><polygon class="cls-1" points="152.5 1.2 152.5 32.15 175.6 32.15 175.6 26.09 160.52 26.09 160.52 18.73 171.61 18.73 171.61 12.9 160.52 12.9 160.52 7.26 173.85 7.26 173.85 1.2 152.5 1.2 152.5 1.2"/><path class="cls-2" d="M70.09,16.68c0,9.62,8,16.67,18.93,16.67S108,26.3,108,16.68,100,0,89,0,70.09,7,70.09,16.68Zm8.47,0c0-6.39,4.3-10.85,10.46-10.85S99.49,10.3,99.49,16.69,95.18,27.53,89,27.53,78.55,23.06,78.56,16.68Z"/><path class="cls-1" d="M3.6,49.82c-1.89,0-2.89-1.29-2.89-3.15,0-2,1.13-3.32,2.92-3.32a2.34,2.34,0,0,1,2.58,2.17h-1a1.47,1.47,0,0,0-1.53-1.33c-1.16,0-1.89.92-1.89,2.39S2.44,49,3.57,49a1.62,1.62,0,0,0,1.66-1.56h1A2.53,2.53,0,0,1,3.6,49.82Z"/><path class="cls-1" d="M7.75,49.64V43.53h5v6.11h-1V44.42h-3v5.23Z"/><path class="cls-1" d="M17.25,49.84c-1.79,0-2.86-1.19-2.86-3.18s1.14-3.32,2.83-3.32c2,0,2.76,1.6,2.76,3.37v.14H15.4v.07A1.84,1.84,0,0,0,17.29,49a1.54,1.54,0,0,0,1.64-1.3h1A2.47,2.47,0,0,1,17.25,49.84Zm-.06-5.66A1.84,1.84,0,0,0,15.4,46h3.53C18.84,44.88,18.19,44.18,17.19,44.18Z"/><path class="cls-1" d="M26.27,49.64H21.44V43.53h1v5.23h3V43.53h1v5.23h.79v2.83h-1Z"/><path class="cls-1" d="M28.56,49.64V43.53h1v5h0l2.73-5H33.6v6.11h-1v-5h0l-2.73,5Z"/><path class="cls-1" d="M40.9,49.62a2,2,0,0,1-.68.12.81.81,0,0,1-.88-.9,2.7,2.7,0,0,1-2.2,1,1.71,1.71,0,0,1-1.94-1.73c0-1.09.72-1.73,2.16-1.91s1.94-.14,1.94-1c0-.65-.48-1-1.38-1s-1.41.34-1.51,1.24h-1c0-1.3,1-2.07,2.55-2.07a2.81,2.81,0,0,1,1.91.59,2.11,2.11,0,0,1,.41,1.59c0,.91,0,1.81,0,2.73,0,.45.11.6.41.6a.93.93,0,0,0,.25,0Zm-3-2.78c-.73.09-1.72.18-1.72,1.16,0,.63.46,1,1.21,1,.94,0,1.85-.65,1.85-1.43V46.47A2.79,2.79,0,0,1,37.94,46.83Z"/><path class="cls-1" d="M47.32,49.64h-1V44.42H44.15l-.08,2.7c-.06,2-.84,2.65-1.69,2.65a2,2,0,0,1-.72-.13v-.82a1.38,1.38,0,0,0,.53.08c.4,0,.85-.35.88-1.68l.11-3.7h4.14Z"/><path class="cls-1" d="M49.21,49.64V43.53h1v5h0l2.73-5h1.28v6.11h-1v-5h0l-2.73,5Z"/><path class="cls-1" d="M58.39,43.35c1.25,0,2.29.51,2.29,1.65a1.3,1.3,0,0,1-1,1.29v0a1.44,1.44,0,0,1,1.18,1.52c0,1.33-1.24,2-2.52,2-1.59,0-2.57-.77-2.64-2.1h1c.06.88.72,1.28,1.61,1.28s1.5-.53,1.5-1.16-.36-1-1.3-1h-.84V46h.67c.71,0,1.29-.27,1.29-1,0-.45-.46-.88-1.29-.88s-1.46.3-1.54,1.13h-1C55.91,43.79,57.16,43.35,58.39,43.35Z"/><path class="cls-1" d="M62.46,49.64V43.53h1v5h0l2.73-5H67.5v6.11h-1v-5h0l-2.73,5Z"/><path class="cls-1" d="M70.36,44.39a2.2,2.2,0,0,1,2.05-1.06c1.7,0,2.77,1.23,2.77,3.21s-1.06,3.25-2.72,3.25a2.29,2.29,0,0,1-2-1V52h-1V43.53h.94Zm0,2.17c0,1.48.73,2.38,1.91,2.38s1.85-.91,1.85-2.38-.71-2.38-1.89-2.38S70.38,45.08,70.38,46.56Z"/><path class="cls-1" d="M82.38,46.55c0,2.07-1.07,3.28-2.92,3.28s-3-1.21-3-3.22,1.14-3.26,3-3.26S82.38,44.52,82.38,46.55Zm-4.86,0c0,1.5.72,2.39,1.94,2.39s1.89-.9,1.89-2.41-.73-2.38-1.91-2.38S77.53,45.13,77.53,46.59Z"/><path class="cls-1" d="M84,43.53h2.82c1.06,0,2.09.24,2.09,1.48a1.36,1.36,0,0,1-.9,1.31h0a1.41,1.41,0,0,1,1.16,1.5,1.76,1.76,0,0,1-1.85,1.8H84Zm3.86,1.65c0-.51-.27-.78-1.15-.78H84.93V46h1.73C87.52,46,87.82,45.7,87.82,45.17Zm-2.89,3.6h2.14a1,1,0,0,0,1-1c0-.56-.35-.91-1.18-.91h-2Z"/><path class="cls-1" d="M96.09,49.62a2,2,0,0,1-.68.12.81.81,0,0,1-.88-.9,2.7,2.7,0,0,1-2.2,1,1.71,1.71,0,0,1-1.94-1.73c0-1.09.72-1.73,2.16-1.91s1.94-.14,1.94-1c0-.65-.48-1-1.38-1s-1.41.34-1.51,1.24h-1c0-1.3,1-2.07,2.54-2.07a2.81,2.81,0,0,1,1.91.59,2.11,2.11,0,0,1,.41,1.59c0,.91,0,1.81,0,2.73,0,.45.11.6.41.6a.93.93,0,0,0,.25,0Zm-3-2.78c-.73.09-1.72.18-1.72,1.16,0,.63.46,1,1.21,1,.94,0,1.85-.65,1.85-1.43V46.47A2.79,2.79,0,0,1,93.14,46.83Z"/><path class="cls-1" d="M97.44,49.64V43.53h1V46h3V43.53h1v6.11h-1v-2.8h-3v2.8Z"/><path class="cls-1" d="M104.4,49.64V43.53h1V46h3V43.53h1v6.11h-1v-2.8h-3v2.8Z"/><path class="cls-1" d="M114.25,49.64h-2.93V43.53h1v2.33h1.89a1.89,1.89,0,1,1,0,3.78Zm-1.93-2.91v2h1.57c.82,0,1.26-.37,1.26-1s-.42-1-1.26-1Zm5.83-3.2v6.11h-1V43.53Z"/><path class="cls-1" d="M120.06,49.64V43.53h1v5h0l2.73-5h1.28v6.11h-1v-5h0l-2.73,5Zm2.53-6.8a1.77,1.77,0,0,1-1.79-1.63h.6a1.21,1.21,0,0,0,2.36,0h.6A1.74,1.74,0,0,1,122.59,42.84Z"/><path class="cls-1" d="M136.28,49.64V44.82h0l-1.8,4.82h-.92l-1.8-4.82h0v4.82h-1V43.53h1.44l1.85,5h0l1.85-5h1.44v6.11Z"/><path class="cls-1" d="M144.55,49.62a2,2,0,0,1-.68.12.81.81,0,0,1-.88-.9,2.7,2.7,0,0,1-2.2,1,1.71,1.71,0,0,1-1.94-1.73c0-1.09.72-1.73,2.16-1.91s1.94-.14,1.94-1c0-.65-.48-1-1.38-1s-1.41.34-1.51,1.24h-1c0-1.3,1-2.07,2.54-2.07a2.81,2.81,0,0,1,1.91.59,2.11,2.11,0,0,1,.41,1.59c0,.91,0,1.81,0,2.73,0,.45.11.6.41.6a.93.93,0,0,0,.25,0Zm-3-2.78c-.73.09-1.72.18-1.72,1.16,0,.63.46,1,1.21,1,.94,0,1.85-.65,1.85-1.43V46.47A2.79,2.79,0,0,1,141.6,46.83Z"/><path class="cls-1" d="M146.93,44.42v5.23h-1V43.53h4.17v.89Z"/><path class="cls-1" d="M156.36,49.62a2,2,0,0,1-.68.12.81.81,0,0,1-.88-.9,2.7,2.7,0,0,1-2.2,1,1.71,1.71,0,0,1-1.94-1.73c0-1.09.72-1.73,2.16-1.91s1.94-.14,1.94-1c0-.65-.48-1-1.38-1s-1.41.34-1.51,1.24h-1c0-1.3,1-2.07,2.55-2.07a2.81,2.81,0,0,1,1.91.59,2.11,2.11,0,0,1,.41,1.59c0,.91,0,1.81,0,2.73,0,.45.11.6.41.6a.93.93,0,0,0,.25,0Zm-3-2.78c-.73.09-1.72.18-1.72,1.16,0,.63.46,1,1.21,1,.94,0,1.85-.65,1.85-1.43V46.47A2.79,2.79,0,0,1,153.4,46.83Z"/><path class="cls-1" d="M159.93,43.35c1.25,0,2.29.51,2.29,1.65a1.3,1.3,0,0,1-1,1.29v0a1.44,1.44,0,0,1,1.18,1.52c0,1.33-1.24,2-2.52,2-1.59,0-2.57-.77-2.64-2.1h1c.06.88.72,1.28,1.61,1.28s1.5-.53,1.5-1.16-.36-1-1.3-1h-.84V46h.67c.71,0,1.29-.27,1.29-1,0-.45-.46-.88-1.29-.88s-1.46.3-1.54,1.13h-1C157.45,43.79,158.7,43.35,159.93,43.35Z"/><path class="cls-1" d="M164,49.64V43.53h1v5h0l2.73-5H169v6.11h-1v-5h0l-2.73,5Z"/><path class="cls-1" d="M171,49.64V43.53h1V46h3V43.53h1v6.11h-1v-2.8h-3v2.8Z"/></svg>
