<svg xmlns="http://www.w3.org/2000/svg" width="46" height="46" viewBox="0 0 46 46">
  <g fill="#D0021B" fill-rule="evenodd">
    <rect width="30" height="30" x="7.627" y="7.627" fill-opacity=".107" stroke="#D0021B" stroke-width="2" rx="4" transform="rotate(45 22.627 22.627)"/>
    <path fill-rule="nonzero" d="M18.4339623,22.7460087 C16.3613933,22.7460087 15,21.3033382 15,19.413643 C15,17.5036284 16.3613933,16 18.4339623,16 C20.5268505,16 21.8882438,17.5036284 21.8882438,19.413643 C21.8882438,21.3033382 20.5268505,22.7460087 18.4339623,22.7460087 Z M18.6371553,29.7561684 L17.1132075,29.7561684 L25.7692308,16.203193 L27.3134978,16.203193 L18.6371553,29.7561684 Z M25.8911466,30 C23.8185776,30 22.4571843,28.5370102 22.4571843,26.6473149 C22.4571843,24.7373004 23.8185776,23.233672 25.8911466,23.233672 C27.9637155,23.233672 29.3454282,24.7373004 29.3454282,26.6473149 C29.3454282,28.5370102 27.9637155,30 25.8911466,30 Z M18.4339623,21.161103 C19.3686502,21.161103 20.0391872,20.4702467 20.0391872,19.413643 C20.0391872,18.275762 19.3686502,17.605225 18.4339623,17.605225 C17.5195936,17.605225 16.8287373,18.275762 16.8287373,19.413643 C16.8287373,20.4702467 17.5195936,21.161103 18.4339623,21.161103 Z M25.8911466,28.4150943 C26.8258345,28.4150943 27.5166909,27.7445573 27.5166909,26.6473149 C27.5166909,25.5297533 26.8258345,24.838897 25.8911466,24.838897 C24.9564586,24.838897 24.2859216,25.5297533 24.2859216,26.6473149 C24.2859216,27.7445573 24.9564586,28.4150943 25.8911466,28.4150943 Z"/>
  </g>
</svg>
