<svg xmlns="http://www.w3.org/2000/svg" width="24" height="24" viewBox="0 0 24 24">
  <g fill="none" fill-rule="evenodd">
    <rect width="24" height="24"/>
    <path fill="#394791" fill-rule="nonzero" d="M19.31254,0 C19.8247017,0 20.3282571,0.0822588977 20.8094729,0.24449053 C20.9625538,0.296126301 21.07828,0.422835413 21.1156346,0.579940087 C21.1456648,0.705770264 21.1221387,0.836756726 21.053494,0.942993163 L20.9936826,1.01756257 L19.0781579,2.96159533 L19.0781579,3.90623736 L20.103763,4.96879948 L21.035432,4.96879948 L22.9787896,3.01011832 C23.0930509,2.89476173 23.2593158,2.84697117 23.4175237,2.88377539 C23.5757317,2.92039652 23.7037263,3.03666863 23.7555467,3.19066047 C23.9177831,3.67186213 24,4.1754027 24,4.6875492 C24,7.2720855 21.8973357,9.37487083 19.31254,9.37487083 C18.9825007,9.37487083 18.6558599,9.34065204 18.3363677,9.27296448 L18.0981475,9.21593512 L15.3221839,11.9918168 L16.0108646,12.6238975 L16.2992645,12.335323 C16.4825587,12.1522174 16.7791986,12.1522174 16.9623096,12.335323 C17.1225318,12.4955405 17.1425596,12.7428161 17.0223929,12.9246754 L16.9623096,12.9981655 L16.702292,13.2581755 L23.1619007,19.1842069 C23.1668447,19.1887845 23.1717887,19.1933621 23.1765496,19.1981229 C24.2726524,20.2947427 24.2726524,22.0791072 23.1765496,23.175727 C22.0773339,24.2749102 20.2973113,24.2745441 19.198645,23.1759101 L19.1918012,23.1690208 L19.1850947,23.1619941 L13.2475356,16.7126468 L12.9845882,16.9755865 C12.801294,17.158509 12.504654,17.158509 12.321543,16.9755865 C12.1613208,16.815369 12.141293,16.5680934 12.2614597,16.3861115 L12.321543,16.3125609 L12.6119572,16.0223385 L11.9791253,15.3349598 L9.21652881,18.0974748 C9.58494826,19.4603302 9.32731099,20.8848922 8.49214147,22.04743 C7.60075685,23.2879708 6.21423992,23.9995193 4.68745996,23.9995193 C4.17548144,23.9995193 3.67174291,23.9173049 3.19071015,23.7550733 C3.03671377,23.7032544 2.92043823,23.5752635 2.88381602,23.4170603 C2.85437177,23.2903512 2.87906979,23.1587202 2.94919108,23.0525423 L3.01016268,22.978156 L4.96871854,21.0350388 L4.96871854,20.0982703 L3.90136415,19.0309475 L2.96456803,19.0309475 L1.02139345,20.9894455 C0.906949053,21.1048021 0.740867359,21.1525926 0.58247626,21.1157884 C0.424268307,21.0791673 0.296273667,20.9628952 0.244453273,20.8089033 C0.0822168528,20.3278848 0,19.8241611 0,19.3121978 C0,17.7854628 0.711386444,16.3988037 1.95196387,15.5076285 C3.04614936,14.7216098 4.37260842,14.4471616 5.6611312,14.724738 L5.90221868,14.7832625 L9.34195988,11.3436228 L3.58879362,5.577992 L2.45753348,5.57762577 C2.32035277,5.57747319 2.19156467,5.51755694 2.10348911,5.41589091 L2.05578785,5.35002543 L0.0672017696,2.03563001 C-0.0275974404,1.87742672 -0.0197498495,1.68142147 0.0801359047,1.53282723 L0.137699515,1.46287552 L1.46342357,0.137373734 C1.59369402,0.00695018336 1.78571399,-0.0330714909 1.95415267,0.0279170952 L2.03601185,0.0668780228 L5.35050508,2.05577165 C5.46815395,2.12626731 5.54778182,2.24406529 5.57105643,2.37663465 L5.57811214,2.45768857 L5.57811214,3.58928146 L11.3307291,9.35491228 L14.7836543,5.90208898 C14.4150517,4.53923364 14.6723228,3.11522094 15.506943,1.95323249 C16.3986938,0.711959251 17.7857601,0 19.31254,0 Z M16.0386975,13.9217504 L13.910947,16.0490719 L19.8679159,22.5194763 C20.6010925,23.2454903 21.7832575,23.243293 22.5135045,22.5130677 C23.2016256,21.8246209 23.2418145,20.7296565 22.6342255,19.9937273 L22.5202796,19.8677403 L16.0386975,13.9217504 Z M19.3123569,0.937545416 C18.0911893,0.937545416 16.9817194,1.50700402 16.2683187,2.50016909 C15.5540025,3.49461585 15.3679617,4.72838177 15.7578051,5.8854264 C15.8145696,6.05424979 15.7709891,6.24046823 15.6450087,6.36644492 C15.6393212,6.37213221 8.75587869,13.255508 6.8503387,15.1609115 L6.36658832,15.6445915 C6.24060792,15.7705682 6.05420088,15.8143304 5.88555561,15.7573846 C4.72829373,15.3675527 3.49394206,15.5541373 2.4989166,16.2689817 C1.50645468,16.9818121 0.937345512,18.090883 0.937345512,19.3120146 L0.942838843,19.5171158 L0.959318839,19.7207064 L2.4364757,18.2318743 C2.50253304,18.165407 2.58640934,18.120672 2.67698065,18.1024587 L2.76937162,18.0932634 L4.09546192,18.0932634 C4.1887112,18.0932634 4.27907651,18.1210726 4.35551107,18.1720561 L4.42689291,18.2305926 L5.76891383,19.572574 C5.83483381,19.638492 5.87912382,19.7220225 5.89714882,19.8121191 L5.90624715,19.9039952 L5.90624715,21.2300463 C5.90624715,21.3238422 5.87812817,21.4146512 5.82667966,21.4912723 L5.76763205,21.5627493 L4.27875608,23.0400457 C4.41389201,23.0545111 4.55030974,23.0620184 4.68745996,23.0620184 C5.90844448,23.0620184 7.01773124,22.4927429 7.73058257,21.5004934 C8.44544814,20.5053141 8.63185522,19.2711821 8.24219489,18.1141374 C8.18524734,17.945314 8.2290109,17.7589125 8.3549913,17.6329358 L8.44768676,17.5402345 L17.6334117,8.35478922 C17.7593921,8.22899563 17.9457991,8.1854165 18.1144444,8.24199614 C18.4993439,8.37163494 18.9025544,8.43736988 19.31254,8.43736988 C21.3802301,8.43736988 23.0624714,6.75517823 23.0624714,4.6875492 L23.0569781,4.48244797 L23.0404981,4.27885738 L21.5633412,5.76750632 C21.4972838,5.83411102 21.4134075,5.87877737 21.3229135,5.89694774 L21.2306284,5.90611733 L19.9045381,5.90611733 C19.8027284,5.90611733 19.7044344,5.87307041 19.6240003,5.81297659 L19.5672475,5.76292869 L18.272103,4.42094737 C18.2087924,4.35544133 18.1664937,4.27345578 18.1493013,4.18526466 L18.1406293,4.09538554 L18.1406293,2.76933437 C18.1406293,2.67704912 18.1678213,2.5875448 18.2178793,2.51155881 L18.275399,2.44047662 L19.7333293,0.960799846 C19.5941649,0.945418971 19.4537187,0.937545416 19.3123569,0.937545416 Z M16.5550069,16.5562828 C16.7336715,16.376426 17.0243376,16.375887 17.2037191,16.5552047 L17.2037191,16.5552047 L21.3388114,20.6879563 C21.5181929,20.8672739 21.5187305,21.1585304 21.3398866,21.3383871 C21.1606844,21.5186032 20.8701975,21.5186032 20.6909952,21.3394652 L20.6909952,21.3394652 L16.5559029,17.2067136 C16.3765214,17.0273959 16.3759838,16.7363191 16.5550069,16.5562828 Z M8.21052632,15.1578947 C8.55912827,15.1578947 8.84210526,15.4408717 8.84210526,15.7894737 C8.84210526,16.1388158 8.55912827,16.4210526 8.21052632,16.4210526 C7.86118421,16.4210526 7.57894737,16.1388158 7.57894737,15.7894737 C7.57894737,15.4408717 7.86118421,15.1578947 8.21052632,15.1578947 Z M14.6585894,12.6552086 L12.6425367,14.6713849 L13.2753685,15.3587636 L15.3472701,13.2872893 L14.6585894,12.6552086 Z M15.0304069,8.96959395 C15.1791427,9.11833075 15.1977347,9.3478874 15.0861828,9.51671529 L15.0304069,9.58493934 L9.58497685,15.0304061 C9.41499307,15.200391 9.13944935,15.200391 8.96946558,15.0304061 C8.82087854,14.8816693 8.80230516,14.6521126 8.91374544,14.4832847 L8.96946558,14.4150607 L14.4148957,8.96959395 C14.5848795,8.79960903 14.8604231,8.79960903 15.0304069,8.96959395 Z M1.86754968,1.05912757 L1.05948055,1.86717281 L2.72322764,4.64488559 L3.78344068,4.64525178 C3.87682732,4.64525178 3.96722694,4.67048605 4.04367007,4.72025932 L4.11505477,4.77818651 L10.0048219,10.6807803 L10.6678671,10.0179379 L4.7775506,4.11442852 C4.71176794,4.04851049 4.66761529,3.96508296 4.64965038,3.87511515 L4.64058353,3.7833735 L4.64058353,2.72319175 L1.86754968,1.05912757 Z M15.7894737,7.57894737 C16.1388158,7.57894737 16.4210526,7.86123936 16.4210526,8.21040291 C16.4210526,8.55931979 16.1388158,8.84210526 15.7894737,8.84210526 C15.4408717,8.84210526 15.1578947,8.55931979 15.1578947,8.21040291 C15.1578947,7.86123936 15.4408717,7.57894737 15.7894737,7.57894737 Z"/>
  </g>
</svg>
