<svg xmlns="http://www.w3.org/2000/svg" width="36" height="34" viewBox="0 0 36 34">
  <g fill="none" fill-rule="evenodd" stroke="#394791" stroke-linecap="round" stroke-linejoin="round" transform="translate(0 1)">
    <path stroke-width=".5" d="M21.9947333,27.6124667 C21.9667333,27.6431333 21.9420667,27.6771333 21.9227333,27.7131333 C21.8874,27.7758 21.8760667,27.8491333 21.8907333,27.9198 C21.8980667,27.9571333 21.9120667,27.9918 21.9307333,28.0244667 C21.9527333,28.0631333 21.9787333,28.0984667 22.0094,28.1291333 C22.0414,28.1631333 22.0760667,28.1944667 22.1127333,28.2231333 C22.1607333,28.2618 22.2114,28.2951333 22.2640667,28.3264667 C22.3967333,28.4038 22.5347333,28.4704667 22.6767333,28.5271333 C22.7620667,28.5618 22.8494,28.5944667 22.9367333,28.6238 C23.1407333,28.6924667 23.3480667,28.7511333 23.5567333,28.8031333 C23.8027333,28.8644667 24.0500667,28.9164667 24.2994,28.9631333 C24.5800667,29.0158 24.8620667,29.0598 25.1460667,29.0984667 C25.8927333,29.1964667 26.6434,29.2624667 27.3960667,29.2958 C27.8774,29.3178 28.3587333,29.3264667 28.8407333,29.3238 C29.3094,29.3218 29.7774,29.3071333 30.2454,29.2804667 C30.6754,29.2551333 31.1054,29.2191333 31.5320667,29.1671333 C31.9007333,29.1251333 32.2674,29.0664667 32.6314,28.9918 C32.7940667,28.9584667 32.9554,28.9198 33.1160667,28.8764667 C33.2540667,28.8398 33.3907333,28.7964667 33.5254,28.7484667 C33.6694,28.6971333 33.8094,28.6344667 33.9440667,28.5618 C33.9880667,28.5371333 34.0314,28.5098 34.0734,28.4798 C34.1027333,28.4598 34.1307333,28.4371333 34.1574,28.4131333 C34.2074,28.3684667 34.2500667,28.3164667 34.2840667,28.2591333 C34.3087333,28.2098 34.3214,28.1551333 34.3207584,28.1004667 C34.3187333,28.0704667 34.3134,28.0411333 34.3034,28.0131333 C34.2807333,27.9551333 34.2474,27.9018 34.2054,27.8551333 L34.1934,27.8424667"/>
    <path d="M2.91533333,21.1786 L0.333333333,21.1786 L2.91533333,21.1786 Z M2.91533333,24.0706 L0.333333333,24.0706 L2.91533333,24.0706 Z M2.94933333,20.1199333 L5.168,20.1199333 C6.33333333,20.1199333 7.278,21.2412667 7.278,22.6246 C7.278,24.0079333 6.33333333,25.1292667 5.168,25.1292667 L2.94933333,25.1292667 L2.94933333,20.1199333 Z M14.496,21.8806 C14.496,23.7339333 14.9506667,24.8986 14.4813333,26.0752667 C13.868,27.6112667 11.3726667,28.1212667 10.214,26.9719333 C8.96333333,25.7326 10.5906667,22.6246 7.278,22.6246 L14.496,21.8806 Z M16.4313333,21.8806 C16.3273333,24.8859333 17.988,25.8106 17.1113333,27.1592667 C16.45,28.1766 13.7826667,28.4826 13.958,29.1959333 C14.4166667,31.0646 18.7046667,28.2766 21.6193333,29.6232667 L16.4313333,21.8806 Z M21.6413333,30.0766 L21.63,28.1106 L21.6193333,28.0986 C21.6233333,28.0052667 21.6773333,27.9099333 21.786,27.8072667 L22.0306667,27.5752667 L22.0366667,27.5706 C22.1013333,27.5132667 22.1713333,27.4626 22.2466667,27.4199333 C22.304,27.3866 22.3633333,27.3566 22.424,27.3286 C22.4926667,27.2972667 22.5626667,27.2679333 22.634,27.2412667 C22.8206667,27.1719333 23.0113333,27.1139333 23.2046667,27.0672667 C23.414,27.0132667 23.626,26.9692667 23.8393333,26.9306 C24.1066667,26.8819333 24.376,26.8426 24.646,26.8092667 C24.9166667,26.7759333 25.188,26.7492667 25.4593333,26.7272667 C25.78,26.7012667 26.1006667,26.6826 26.4213333,26.6699333 C27.4073333,26.6319333 28.3953333,26.6452667 29.38,26.7086 C29.8533333,26.7399333 30.3266667,26.7826 30.798,26.8419333 C31.1986667,26.8906 31.598,26.9526 31.9946667,27.0266 C32.1826667,27.0639333 32.37,27.1026 32.5566667,27.1479333 C32.704,27.1832667 32.8513333,27.2212667 32.9966667,27.2646 C33.1433333,27.3072667 33.2886667,27.3546 33.4313333,27.4086 C33.592,27.4686 33.748,27.5399333 33.898,27.6226 C33.982,27.6692667 34.0606667,27.7239333 34.1346667,27.7859333 C34.1546667,27.8032667 34.1746667,27.8219333 34.1933333,27.8432667 L34.174,27.8226 L34.276,27.9206 L34.422,28.0619333 C34.5433333,28.1799333 34.592,28.2899333 34.588,28.3912667 L34.584,28.3799333 L34.578,30.3752667 L34.5693333,30.4526 C34.46,30.9666 33.5573333,31.1819333 33.2,31.2792667 C32.6626667,31.4266 32.1186667,31.5152667 31.5666667,31.5832667 C30.4626667,31.7199333 29.3613333,31.7586 28.2493333,31.7379333 C27.07,31.7166 22.8733333,31.4946 21.82,30.4372667 L21.8186667,30.4352667 C21.7233333,30.3332667 21.662,30.2039333 21.642,30.0659333 L21.6413333,30.0766 Z"/>
    <path stroke-width=".5" d="M24.2545333,10.9673333 C24.2545333,15.96 20.2012,20.0073333 15.2018667,20.0073333 C10.2032,20.0073333 6.15053333,15.96 6.15053333,10.9673333 C6.15053333,5.97533333 10.2032,1.92866667 15.2018667,1.92866667 C20.2018667,1.92866667 24.2538667,5.97533333 24.2538667,10.9673333 L24.2545333,10.9673333 Z"/>
    <path d="M25.8512,10.9673333 C25.8512,16.8406667 21.0832,21.602 15.2018667,21.602 C9.32053333,21.602 4.5532,16.8406667 4.5532,10.9673333 C4.5532,5.094 9.32053333,0.333333333 15.2018667,0.333333333 C21.0832,0.333333333 25.8512,5.09466667 25.8512,10.9673333 Z"/>
  </g>
</svg>
