<svg xmlns="http://www.w3.org/2000/svg" width="16" height="32" viewBox="0 0 16 32">
  <g fill="none" fill-rule="evenodd" transform="translate(1)">
    <polygon stroke="#394791" stroke-linecap="round" stroke-linejoin="round" points="8.482 6.201 6.16 6.136 6.16 23.872 .291 23.872 .291 26.193 6.16 26.193 6.16 31.482 8.482 31.482 8.482 26.193 14.35 26.193 14.35 23.872 8.482 23.872"/>
    <path stroke="#394791" stroke-linecap="round" stroke-linejoin="round" d="M5,19 C5,21 3.40992,21.8558836 2.64482909,23.0329018 C1,25 2,28 5.86984727,28.5147927"/>
    <rect width="2" height="6" x="4" y="13" fill="#FFF" stroke="#394791" rx="1"/>
    <path fill="#FFF" d="M1.84378182,8.24942545 L1.83389091,6.53364364 L1.82458182,6.52317091 C1.82807273,6.44171636 1.8752,6.35851636 1.97003636,6.26891636 L2.18356364,6.06644364 L2.1888,6.06237091 C2.24523636,6.01233455 2.30632727,5.96869818 2.37207273,5.93088 C2.42210909,5.90178909 2.47389091,5.87560727 2.52683636,5.85117091 C2.58676364,5.82382545 2.64785455,5.79822545 2.71010909,5.77495273 C2.87301818,5.71444364 3.03941818,5.66382545 3.20814545,5.62251636 C3.39083636,5.57597091 3.57585455,5.53757091 3.76203636,5.50382545 C3.99534545,5.46135273 4.2304,5.42644364 4.46603636,5.39793455 C4.70225455,5.36884364 4.93905455,5.34557091 5.17585455,5.32637091 C5.45570909,5.30368 5.73556364,5.28738909 6.01541818,5.27633455 C6.87592727,5.24317091 7.7376,5.25480727 8.59752727,5.31008 C9.01061818,5.33742545 9.42370909,5.37466182 9.83505455,5.42586182 C10.1847273,5.46891636 10.5332364,5.52302545 10.8794182,5.58760727 C11.0434909,5.61960727 11.2069818,5.65393455 11.3698909,5.69291636 C11.4984727,5.72433455 11.6270545,5.75749818 11.7538909,5.79531636 C11.8818909,5.83255273 12.0087273,5.87386182 12.1332364,5.92098909 C12.2728727,5.97335273 12.4096,6.03560727 12.5405091,6.10717091 C12.6132364,6.14848 12.6824727,6.19618909 12.7470545,6.24971636 C12.7645091,6.26542545 12.7819636,6.28171636 12.7982545,6.29975273 L12.7813818,6.28229818 L12.8704,6.36782545 L12.9978182,6.49117091 C13.1037091,6.59415273 13.1461818,6.68957091 13.1426909,6.77858909 L13.1392,6.76869818 L13.1339636,8.51008 L13.1264,8.57698909 C13.0309818,9.02615273 12.2432,9.21408 11.9313455,9.29902545 C11.4624,9.42702545 10.9876364,9.50498909 10.5058909,9.56433455 C9.5424,9.68360727 8.58123636,9.71677091 7.61076364,9.69931636 C6.58152727,9.68069818 2.91898182,9.48695273 1.99970909,8.56418909 L1.99854545,8.56244364 C1.91534545,8.47342545 1.86123636,8.36055273 1.84436364,8.23953455"/>
    <path stroke="#394791" stroke-linecap="round" stroke-linejoin="round" d="M1.84378182,8.24942545 L1.83389091,6.53364364 L1.82458182,6.52317091 C1.82807273,6.44171636 1.8752,6.35851636 1.97003636,6.26891636 L2.18356364,6.06644364 L2.1888,6.06237091 C2.24523636,6.01233455 2.30632727,5.96869818 2.37207273,5.93088 C2.42210909,5.90178909 2.47389091,5.87560727 2.52683636,5.85117091 C2.58676364,5.82382545 2.64785455,5.79822545 2.71010909,5.77495273 C2.87301818,5.71444364 3.03941818,5.66382545 3.20814545,5.62251636 C3.39083636,5.57597091 3.57585455,5.53757091 3.76203636,5.50382545 C3.99534545,5.46135273 4.2304,5.42644364 4.46603636,5.39793455 C4.70225455,5.36884364 4.93905455,5.34557091 5.17585455,5.32637091 C5.45570909,5.30368 5.73556364,5.28738909 6.01541818,5.27633455 C6.87592727,5.24317091 7.7376,5.25480727 8.59752727,5.31008 C9.01061818,5.33742545 9.42370909,5.37466182 9.83505455,5.42586182 C10.1847273,5.46891636 10.5332364,5.52302545 10.8794182,5.58760727 C11.0434909,5.61960727 11.2069818,5.65393455 11.3698909,5.69291636 C11.4984727,5.72433455 11.6270545,5.75749818 11.7538909,5.79531636 C11.8818909,5.83255273 12.0087273,5.87386182 12.1332364,5.92098909 C12.2728727,5.97335273 12.4096,6.03560727 12.5405091,6.10717091 C12.6132364,6.14848 12.6824727,6.19618909 12.7470545,6.24971636 C12.7645091,6.26542545 12.7819636,6.28171636 12.7982545,6.29975273 L12.7813818,6.28229818 L12.8704,6.36782545 L12.9978182,6.49117091 C13.1037091,6.59415273 13.1461818,6.68957091 13.1426909,6.77858909 L13.1392,6.76869818 L13.1339636,8.51008 L13.1264,8.57698909 C13.0309818,9.02615273 12.2432,9.21408 11.9313455,9.29902545 C11.4624,9.42702545 10.9876364,9.50498909 10.5058909,9.56433455 C9.5424,9.68360727 8.58123636,9.71677091 7.61076364,9.69931636 C6.58152727,9.68069818 2.91898182,9.48695273 1.99970909,8.56418909 L1.99854545,8.56244364 C1.91534545,8.47342545 1.86123636,8.36055273 1.84436364,8.23953455"/>
    <path stroke="#394791" stroke-linecap="round" stroke-linejoin="round" stroke-width=".5" d="M2.15202909,6.09914182 C2.12759273,6.12532364 2.10606545,6.15499636 2.08919273,6.18699636 C2.05893818,6.24168727 2.04904727,6.30568727 2.06126545,6.36736 C2.06824727,6.39936 2.07988364,6.43019636 2.09617455,6.45870545 C2.11537455,6.49186909 2.13806545,6.52270545 2.16482909,6.55005091 C2.19275636,6.57972364 2.22301091,6.60706909 2.25501091,6.63208727 C2.29690182,6.66525091 2.34112,6.69492364 2.38708364,6.72226909 C2.50286545,6.78976 2.62330182,6.84794182 2.74722909,6.89739636 C2.82170182,6.92765091 2.89792,6.95557818 2.97413818,6.98117818 C3.15217455,7.04168727 3.33312,7.09288727 3.51522909,7.13826909 C3.72992,7.19179636 3.94577455,7.23717818 4.16337455,7.27790545 C4.40832,7.32386909 4.65442909,7.36226909 4.90228364,7.39601455 C5.55450182,7.48096 6.20962909,7.53856 6.86592,7.56823273 C7.28599273,7.58685091 7.70606545,7.59499636 8.12672,7.59266909 C8.53573818,7.59092364 8.94417455,7.57812364 9.35261091,7.55485091 C9.72788364,7.53274182 10.1031564,7.50132364 10.47552,7.45594182 C10.7972655,7.41870545 11.1178473,7.36750545 11.4349382,7.30292364 C11.5769018,7.27383273 11.7177018,7.24008727 11.85792,7.20226909 C11.9783564,7.16968727 12.0976291,7.13245091 12.2151564,7.09056 C12.3408291,7.04576 12.4630109,6.99106909 12.5805382,6.92765091 C12.6189382,6.90554182 12.6567564,6.88168727 12.6934109,6.85608727 C12.7190109,6.83805091 12.7434473,6.81885091 12.76672,6.79790545 C12.8103564,6.75892364 12.8475927,6.71354182 12.8772655,6.66292364 C12.8993745,6.62045091 12.9098473,6.57274182 12.9092884,6.52503273 C12.9081018,6.49885091 12.9028655,6.47325091 12.8941382,6.44823273 C12.8743564,6.39761455 12.8452655,6.35106909 12.8086109,6.31092364 L12.7981382,6.29928727"/>
    <path stroke="#394791" stroke-linecap="round" stroke-linejoin="round" d="M8.65570909,5.32270545 L8.65570909,2.03368727 C8.65570909,1.39252364 8.13614545,0.87296 7.49498182,0.87296 C6.85381818,0.87296 6.33425455,1.39252364 6.33425455,2.03368727 L6.33425455,5.25812364"/>
    <line x1="4" x2="6" y1="15" y2="15" stroke="#394791" stroke-linecap="round"/>
  </g>
</svg>
