<svg xmlns="http://www.w3.org/2000/svg" width="23" height="34" viewBox="0 0 23 34">
  <g fill="none" fill-rule="evenodd" transform="translate(1 1)">
    <path stroke="#394791" d="M12.4529333,8.71126667 C16.7622667,5.46393333 20.7209333,3.4486 21.2949333,4.21126667 C21.8696,4.9726 18.8416,8.22326667 14.5316,11.4699333 C10.2222667,14.7172667 6.2636,16.7319333 5.6896,15.9706 C5.1156,15.2086 8.1436,11.9586 12.4529333,8.71126667 Z"/>
    <path stroke="#394791" d="M5.6844,16.0126667 C5.05173333,16.1193333 4.37773333,15.77 3.6624,14.9626667 C2.50506667,13.656 1.63573333,12.494 2.50506667,10.026 C3.37306667,7.55866667 7.1364,2.76666667 12.2024,1.17 C15.5790667,0.105333333 18.0397333,0.0566666667 19.5837333,1.02466667 C20.4524,1.50866667 20.9830667,2.08933333 21.1757333,2.76666667 C21.3690667,3.44466667 21.4170667,3.97666667 21.3204,4.364"/>
    <path stroke="#394791" d="M2.215,12.2040667 C1.25033333,15.2040667 0.671666667,17.8654 0.478333333,20.1894 C0.285,22.5120667 0.285,25.8027333 0.478333333,30.0614 C1.05766667,31.0294 1.97433333,31.5134 3.22833333,31.5134 C4.483,31.5134 5.54433333,31.1747333 6.41233333,30.4974 C7.18433333,27.4000667 7.57033333,24.5207333 7.57033333,21.8587333 C7.57033333,19.1967333 7.52233333,17.1887333 7.42566667,15.8334"/>
    <path fill="#666" d="M6.91753333,15.3993333 C6.82086667,15.2093333 7.68286667,14.7706667 7.77953333,14.96 C7.83407162,15.0671959 7.82134051,15.1941271 7.75726337,15.306193 C7.95823865,15.2101385 8.16863704,15.1623579 8.2136,15.2507333 C8.31026667,15.4400667 8.1956,15.6927333 7.9576,15.8134 C7.72026667,15.9347333 7.44893333,15.8794 7.35226667,15.6894 C7.33551111,15.6565822 7.34753813,15.6162533 7.3793766,15.5729926 C7.18567747,15.6174964 6.9952119,15.5513452 6.91753333,15.3986667 L6.91753333,15.3986667 Z M8.51026667,15.3994 C8.4136,15.2094 9.27493333,14.7707333 9.3716,14.9600667 C9.46826667,15.1500667 9.3536,15.4020667 9.1156,15.5234 C8.8776,15.6447333 8.60693333,15.5887333 8.51026667,15.3987333 L8.51026667,15.3987333 Z M8.7996,13.8020667 C8.70293333,13.6127333 9.56426667,13.1734 9.66093333,13.3634 C9.7576,13.5527333 9.64293333,13.8047333 9.4056,13.9260667 C9.3937,13.9321333 9.38171667,13.9377583 9.369676,13.9429469 C9.41506861,14.0289385 9.41580396,14.1268836 9.38180769,14.2198738 C9.51502236,14.1771713 9.62919444,14.1716356 9.66093333,14.2338 C9.67007748,14.251773 9.67733058,14.2703007 9.6827677,14.2892202 C9.79950438,14.0815194 10.4467956,13.7806533 10.5298,13.9438 C10.5699732,14.022484 10.5736469,14.1121063 10.5471852,14.1986467 C10.7737591,14.0696232 11.0555751,13.985174 11.1084667,14.0891333 C11.2051333,14.2784667 11.0904667,14.5304667 10.8531333,14.6518 C10.6151333,14.7731333 10.3438,14.7178 10.2471333,14.5278 C10.2457187,14.5250293 10.2445092,14.522205 10.2434995,14.5193299 C10.01446,14.6231779 9.76061593,14.564898 9.6678,14.3824667 L9.69311739,14.4177327 C9.67708834,14.5641821 9.57120759,14.7124688 9.4056,14.7971333 C9.1676,14.9184667 8.89626667,14.8624667 8.7996,14.6731333 C8.78434376,14.6431469 8.79294953,14.6069667 8.81864535,14.5680389 C8.6847855,14.5597242 8.56727157,14.4945108 8.51026667,14.3824667 C8.45256296,14.269447 8.73622458,14.0673445 8.99482906,13.9631992 C8.90885439,13.9357299 8.83941303,13.8803199 8.7996,13.8020667 Z M7.20753333,14.528 C7.11086667,14.3386667 7.9722,13.8993333 8.06886667,14.0893333 C8.16553333,14.2786667 8.05086667,14.5306667 7.81353333,14.652 C7.57553333,14.7733333 7.3042,14.718 7.20686667,14.528 L7.20686667,14.528 Z M10.9704667,13.8018 C10.8738,13.6124667 11.7358,13.1731333 11.8324667,13.3631333 C11.9291333,13.5524667 11.8144667,13.8044667 11.5771333,13.9258 C11.3384667,14.0471333 11.0671333,13.9918 10.9704667,13.8018 Z M8.22046667,13.3664667 C8.1238,13.1764667 8.9858,12.7378 9.08246667,12.9271333 C9.17913333,13.1171333 9.06446667,13.3691333 8.82713333,13.4904667 C8.58846667,13.6118 8.31713333,13.5558 8.22046667,13.3664667 Z M10.5362,12.786 C10.4395333,12.596 11.3008667,12.1573333 11.3975333,12.3466667 C11.4942,12.5366667 11.3802,12.7886667 11.1422,12.91 L11.1536505,12.9018826 C11.2724056,12.8701286 11.3688417,12.8708733 11.3976,12.9272 C11.4942667,13.1172 11.3802667,13.3692 11.1422667,13.4905333 C10.9042667,13.6118667 10.6329333,13.5558667 10.5362667,13.3665333 C10.4812296,13.2583571 10.7367359,13.0695736 10.9848519,12.9619794 C10.7946508,13.0007138 10.6118868,12.9340971 10.5362,12.7853333 Z M12.8522667,12.6405333 C12.7556,12.4505333 13.6169333,12.0118667 13.7136,12.2018667 C13.8102667,12.3912 13.6956,12.6432 13.4576,12.7645333 C13.3553373,12.8168137 13.2467621,12.8362943 13.1485673,12.8263348 C13.214709,13.0070991 13.1000482,13.2326081 12.8789333,13.3453333 C12.6409333,13.4666667 12.3696,13.4113333 12.2736,13.2213333 L12.2736,13.2213333 C12.2561778,13.1885156 12.2682248,13.1481867 12.3000964,13.104926 C12.1071441,13.149025 11.9166786,13.0834095 11.839,12.9312667 C11.7423333,12.7412667 12.6036667,12.3026 12.7003333,12.4919333 C12.7548716,12.5991293 12.7423527,12.7260604 12.6783408,12.8381263 C12.7689825,12.7940957 12.8628077,12.7605378 12.9419333,12.7451786 C12.9037903,12.7182509 12.873725,12.6827101 12.8522667,12.6405333 Z M9.6678,12.7858 C9.57113333,12.5958 10.4331333,12.1571333 10.5298,12.3464667 C10.6264667,12.5364667 10.5118,12.7884667 10.2744667,12.9098 C10.0358,13.0311333 9.76446667,12.9751333 9.6678,12.7851333 Z M11.839,12.2052667 C11.7423333,12.0152667 12.6036667,11.5766 12.7003333,11.7659333 C12.797,11.9559333 12.683,12.2079333 12.445,12.3292667 C12.207,12.4506 11.9356667,12.3946 11.839,12.2052667 Z M12.8523333,11.9146 C12.7556667,11.7252667 13.617,11.2859333 13.7136667,11.4759333 C13.8103333,11.6652667 13.6956667,11.9172667 13.4576667,12.0386 C13.2203333,12.1599333 12.949,12.1046 12.8523333,11.9146 Z M9.95753333,11.6246667 C9.86086667,11.4346667 10.7222,10.996 10.8188667,11.1853333 C10.9155333,11.3753333 10.8008667,11.6273333 10.5628667,11.7486667 C10.3255333,11.8693333 10.0542,11.814 9.95753333,11.6246667 Z M12.7507787,11.0521013 C12.92488,10.8487733 13.4916,10.598 13.5689333,10.75 C13.6656,10.9393333 13.5509333,11.1913333 13.3136,11.3126667 C13.0756,11.434 12.8042667,11.3786667 12.7069333,11.1886667 L12.7326449,11.2237327 C12.7167695,11.3701821 12.6110728,11.5184688 12.445,11.6031333 C12.207,11.7244667 11.9356667,11.6684667 11.839,11.4784667 L11.839,11.4784667 C11.8374282,11.4760439 11.8361097,11.4728887 11.835037,11.4696716 C11.7965052,11.5805451 11.7043948,11.6834697 11.5768667,11.7486667 C11.3382,11.8693333 11.0668667,11.814 10.9702,11.6246667 C10.8735333,11.4346667 11.7355333,10.996 11.8322,11.1853333 C11.86172,11.2433555 11.8715318,11.3071596 11.8641604,11.3712586 C11.9991886,11.1644689 12.6191859,10.880863 12.7003333,11.0398 C12.7094775,11.057773 12.7167365,11.0763007 12.7221839,11.0952202 Z M14.2996,10.7532667 C14.2029333,10.5632667 15.0642667,10.1246 15.1609333,10.3139333 C15.2576,10.5039333 15.1429333,10.7559333 14.9056,10.8772667 L14.9468181,10.8516219 C14.9798666,10.8573481 15.0042116,10.8713101 15.0164,10.8952667 C15.0445435,10.950389 15.0547739,11.0108231 15.0492629,11.071798 C15.2318753,10.992123 15.4095778,10.9598475 15.4504667,11.0399333 C15.5471333,11.2299333 15.4331333,11.4819333 15.1951333,11.6032667 C14.9571333,11.7246 14.6858,11.6686 14.5891333,11.4786 L14.6101925,11.5110064 C14.4180226,11.5505188 14.231683,11.484524 14.1550667,11.3339333 C14.1010667,11.2277954 14.3460173,11.0440593 14.5896208,10.9356631 C14.4621848,10.9232367 14.3536196,10.8590706 14.2996,10.7532667 Z M12.4176,10.318 C12.3209333,10.128 13.1829333,9.68933333 13.2796,9.87866667 C13.3762667,10.0686667 13.2616,10.3206667 13.0242667,10.442 C12.7856,10.5626667 12.5142667,10.5073333 12.4176,10.318 Z M16.0794453,9.45530667 C16.2535467,9.25178667 16.8202667,9.00133333 16.8976,9.1528 C16.9942667,9.3428 16.8802667,9.5948 16.6422667,9.71613333 L16.6566396,9.70708898 C16.69223,9.69770673 16.7257684,9.69127966 16.7560223,9.6884351 C16.7914759,9.48348796 17.5324251,9.12252754 17.6216667,9.29793333 C17.7183333,9.48793333 17.6036667,9.73993333 17.3656667,9.86126667 C17.2164855,9.93690193 17.0544699,9.94338807 16.9305154,9.89090423 C16.9262479,10.0459378 16.8180968,10.2068944 16.6422667,10.2965333 C16.4042667,10.4178667 16.1329333,10.3618667 16.0362667,10.1718667 L16.0362667,10.1718667 C15.9812296,10.0643571 16.2367359,9.87557358 16.4848519,9.76797941 C16.2947175,9.80687853 16.1119535,9.74037509 16.0362667,9.59213333 C16.034852,9.58935285 16.0336426,9.5865191 16.0326329,9.58363486 C15.9933911,9.69394185 15.9015009,9.79632222 15.7744667,9.86126667 C15.5358,9.98193333 15.2644667,9.9266 15.1678,9.7366 L15.1931812,9.77157259 C15.1773714,9.91798543 15.0714291,10.0665556 14.9056,10.1513333 C14.6676,10.2726667 14.3962667,10.2173333 14.2996,10.0273333 C14.2029333,9.83733333 15.0642667,9.39866667 15.1609333,9.58866667 C15.1699142,9.60625676 15.1770709,9.62438775 15.1824747,9.64290461 C15.2995044,9.43565278 15.9467956,9.13478667 16.0298,9.29793333 C16.0590788,9.35548141 16.0689702,9.41871731 16.0619377,9.48228753 Z M11.9836667,9.88193333 C11.887,9.6926 12.7483333,9.25326667 12.845,9.44326667 C12.9416667,9.6326 12.8276667,9.8846 12.5896667,10.0059333 C12.3516667,10.1272667 12.0803333,10.0719333 11.9836667,9.88193333 Z M13.7202,9.7366 C13.6235333,9.54726667 14.4855333,9.10793333 14.5822,9.29793333 C14.6788667,9.48793333 14.5642,9.73993333 14.3268667,9.86126667 C14.0882,9.98193333 13.8168667,9.9266 13.7202,9.7366 Z M14.155,9.01113333 C14.0583333,8.82113333 14.9196667,8.38246667 15.0163333,8.5718 C15.113,8.7618 14.9983333,9.0138 14.7603333,9.13513333 C14.523,9.2558 14.2516667,9.20046667 14.155,9.01113333 Z M17.339,8.86586667 C17.2423333,8.67586667 18.1036667,8.2372 18.2003333,8.42653333 C18.297,8.61653333 18.183,8.86853333 17.945,8.98986667 C17.707,9.1112 17.4356667,9.0552 17.339,8.8652 Z M16.8034453,8.43870133 C16.9775467,8.23537333 17.5442667,7.9846 17.6216,8.1366 C17.7182667,8.32593333 17.6036,8.57793333 17.3656,8.69926667 C17.1276,8.8206 16.8569333,8.76526667 16.7602667,8.57526667 C16.7586949,8.57218808 16.7573763,8.56904339 16.7563037,8.56583638 C16.7176367,8.67641178 16.625553,8.77933636 16.4976667,8.84453333 C16.2596667,8.96586667 15.9883333,8.91053333 15.8916667,8.72053333 C15.795,8.53053333 16.6563333,8.09186667 16.753,8.28186667 C16.78252,8.33968523 16.792394,8.40334789 16.78509,8.46734875 Z M14.2996667,8.28513333 C14.203,8.09513333 15.0643333,7.65646667 15.161,7.8458 C15.2576667,8.0358 15.143,8.2878 14.9056667,8.40913333 C14.6676667,8.53046667 14.3963333,8.47446667 14.2996667,8.28513333 Z M15.747,7.99446667 C15.6503333,7.80513333 16.5116667,7.3658 16.6083333,7.5558 C16.705,7.74513333 16.5903333,7.99713333 16.353,8.11846667 C16.115,8.2398 15.8436667,8.18446667 15.747,7.99446667 Z M18.2076667,7.99453333 C18.111,7.8052 18.9723333,7.36586667 19.069,7.55586667 C19.1656667,7.7452 19.051,7.9972 18.8136667,8.11853333 C18.5756667,8.23986667 18.3043333,8.18453333 18.207,7.99453333 Z M18.1061787,6.84164 C18.28028,6.63812 18.847,6.38766667 18.9243333,6.53913333 C18.9788716,6.64632928 18.9661405,6.77326041 18.9019436,6.88532635 C19.1022783,6.78942961 19.3132963,6.74134559 19.3583333,6.82986667 C19.455,7.0192 19.3403333,7.2712 19.103,7.39253333 C18.865,7.51386667 18.5936667,7.45853333 18.497,7.26853333 C18.4802444,7.23571556 18.4922715,7.19538667 18.5241099,7.15212597 C18.3313637,7.19688099 18.1408114,7.1308696 18.063,6.97846667 L18.0880633,7.01136991 C18.0727808,7.15823583 17.966692,7.30748481 17.8003333,7.39253333 C17.5623333,7.51386667 17.291,7.45853333 17.1943333,7.26853333 C17.0976667,7.0792 17.959,6.63986667 18.0556667,6.82986667 C18.0648108,6.84777658 18.0720639,6.86624724 18.077501,6.885115 Z M16.4703333,6.97846667 C16.3736667,6.78846667 17.2356667,6.3498 17.3323333,6.53913333 C17.429,6.72913333 17.3143333,6.98113333 17.077,7.10246667 C16.8383333,7.2238 16.567,7.1678 16.4703333,6.97846667 Z M19.5103333,6.83313333 C19.4136667,6.64313333 20.275,6.20446667 20.3716667,6.3938 C20.4683333,6.5838 20.3536667,6.8358 20.1156667,6.95713333 C19.8776667,7.07846667 19.607,7.02246667 19.5103333,6.83313333 Z M19.9443333,5.9618 C19.8476667,5.77246667 20.709,5.33313333 20.8056667,5.52313333 C20.9023333,5.71246667 20.7876667,5.96446667 20.5503333,6.0858 C20.3123333,6.20713333 20.041,6.1518 19.9443333,5.9618 Z M18.2076667,5.9618 C18.111,5.77246667 18.9723333,5.33313333 19.069,5.52313333 C19.1656667,5.71246667 19.051,5.96446667 18.8136667,6.0858 C18.5756667,6.20713333 18.3043333,6.1518 18.207,5.9618 Z M19.3656667,5.6718 C19.269,5.4818 20.1303333,5.04313333 20.227,5.23246667 C20.3236667,5.42246667 20.209,5.67446667 19.971,5.7958 C19.733,5.91713333 19.4623333,5.86113333 19.3656667,5.6718 Z"/>
  </g>
</svg>
