<svg xmlns="http://www.w3.org/2000/svg" width="42" height="29" viewBox="0 0 42 29">
  <g fill-opacity="0" transform="translate(1 1)">
    <path fill="none" stroke="#394791" stroke-width=".5" d="M6.8163412,17.5836364 C11.664826,20.4066667 15.5030079,21.8181818 18.3314927,21.8181818 C21.1599776,21.8181818 23.58422,21.2121212 25.60422,20 L33.4830079,15.7575758 C35.5030079,14.3769697 36.7151291,13.3672727 37.1193715,12.7272727 C37.7254321,11.7678788 38.9375533,9.09090909 35.9072503,7.27272727 C33.8872503,6.06060606 32.2708866,5.05030303 31.0587654,4.24242424 C29.8466442,3.43454545 28.8363412,3.23212121 28.0284624,3.63636364 C26.8163412,4.24242424 7.4224018,15.7575758 6.8163412,16.3636364 C6.41209877,16.7678788 6.41209877,17.1745455 6.8163412,17.5836364 Z"/>
    <path fill="none" stroke="#394791" stroke-width=".5" d="M37.8770605,10.5048485 C37.8770605,9.89878788 37.9272503,9.09090909 35.9072503,7.87878788 C33.8872503,6.66666667 32.2708866,5.65636364 31.0587654,4.84848485 C29.8466442,4.04060606 28.8363412,3.83818182 28.0284624,4.24242424 C26.8163412,4.84848485 7.1193715,16.3636364 6.51331089,16.969697"/>
    <path fill="none" stroke="#394791" d="M0.201795741,15.1515152 C-0.201840623,14.7472727 4.86721774e-13,14.3436364 0.807856347,13.9393939 C1.6163412,13.5351515 9.29270483,9.09090909 23.8381594,0.606060606 C24.6466442,0.201818182 25.2527048,-6.07514039e-13 25.6563412,-6.07514039e-13 C26.0605836,-6.07514039e-13 26.8684624,0.404242424 28.0805836,1.21212121 L37.1714927,6.66666667 C39.1920988,8.08181818 39.9999776,9.69818182 39.5957351,11.5151515 C39.1920988,13.3321212 36.7678563,15.3551515 32.3230079,17.5836364 C28.2830079,20.0024242 25.2527048,21.6163636 23.2320988,22.4242424 C20.2017957,23.6363636 16.5654321,23.6363636 13.5351291,22.4242424 C13.2127048,22.26 5.86967453,18.6351515 3.83815938,17.5757576 C2.27997756,16.7630303 1.06785635,15.9545455 0.201795741,15.1515152 Z"/>
    <path fill="none" stroke="#394791" d="M0.149674529,15.1515152 L1.96785635,18.189697 C3.58421998,20.2048485 4.7963412,21.4139394 5.60421998,21.8181818 C6.8163412,22.4242424 14.0890685,27.2727273 18.3314927,27.2727273 C22.573917,27.2727273 32.8011897,21.2278788 35.3011897,18.7957576 C37.8011897,16.3636364 39.7454321,12.6127273 39.644826,10.7684848"/>
    <path fill="none" stroke="#394791" stroke-width=".5" d="M16.5030079,9.09090909 C16.5030079,9.42545455 15.9630079,9.6969697 15.2963412,9.6969697 C14.6296745,9.6969697 14.0890685,9.42545455 14.0890685,9.09090909 C14.0890685,8.75636364 14.6296745,8.48484848 15.2963412,8.48484848 C15.9630079,8.48484848 16.5030079,8.75636364 16.5030079,9.09090909 Z"/>
    <path fill="none" stroke="#666" stroke-width=".5" d="M16.5133109,9.10484848 C16.5133109,9.60666667 15.8351291,10.0139394 14.9981594,10.0139394 C14.1611897,10.0139394 13.4830079,9.60666667 13.4830079,9.10484848 C13.4830079,8.60242424 14.1611897,8.19575758 14.9981594,8.19575758 C15.8351291,8.19575758 16.5133109,8.60242424 16.5133109,9.10484848 Z M18.9108866,14.0636364 C19.2308866,14.1612121 19.6096745,13.8515152 19.7563412,13.3715152 C19.9030079,12.8915152 19.7630079,12.4230303 19.4424018,12.3248485 C19.1224018,12.2272727 18.74422,12.5369697 18.5975533,13.0169697 C18.4502806,13.4969697 18.5908866,13.9660606 18.9108866,14.0636364 L18.9108866,14.0636364 Z M21.9678563,18.189697 C21.9678563,18.5242424 21.4254321,18.7957576 20.7557351,18.7957576 C20.0860382,18.7957576 19.5436139,18.5242424 19.5436139,18.189697 C19.5436139,17.8551515 20.0860382,17.5836364 20.7557351,17.5836364 C21.4254321,17.5836364 21.9678563,17.8551515 21.9678563,18.189697 Z"/>
  </g>
</svg>
