<svg xmlns="http://www.w3.org/2000/svg" width="38" height="34" viewBox="0 0 38 34">
  <g fill="none" fill-rule="evenodd" stroke="#394791" stroke-linecap="round" transform="translate(0 1)">
    <path stroke-width=".5" d="M0.173913043,27.7453217 L6.65252174,25.6792348 M34.2852174,16.9529739 L37.437913,15.9470609 M9.37669565,24.8799304 C9.41565217,24.9383652 9.57426087,25.0823652 9.6173913,25.1380174 C9.66121739,25.1936696 9.70852174,25.2458435 9.75930435,25.2952348 C9.86226087,25.3933217 9.97286957,25.4781913 10.0904348,25.5568 M9.37669565,24.8799304 L5.91930435,23.2528 M10.4744348,27.4934957 C9.95686957,26.7463652 9.59165217,25.9053217 9.39756522,25.0183652 M28.9015652,29.2054957 C27.074087,29.5157565 24.6476522,29.6020174 22.8041739,29.5380174 M8.97043478,6.13210435 C8.89878261,5.48932174 8.93008696,4.58427826 9.17495652,3.96793043 M9.23895652,7.2061913 C9.06226087,6.86114783 9.01147826,6.50566957 8.97043478,6.13210435 M15.6730435,28.2253217 C15.2521739,28.0319304 14.834087,27.8329739 14.4153043,27.6361043 C13.9958261,27.4406261 13.5770435,27.2423652 13.1582609,27.0454957 C12.3193043,26.6524522 11.4817391,26.2580174 10.6434783,25.8649739 M21.2709565,29.4496696 L21.0935652,29.4357565 M10.0904348,25.5568 C10.2664348,25.6750609 10.4514783,25.7745391 10.6434783,25.8649739 M9.376,24.8576696 L9.30782609,8.3888 M24.466087,3.21453913 C24.4751304,3.08862609 24.253913,2.93766957 24.1822609,2.88688696 M34.2358261,8.87088696 C34.4633043,8.71366957 34.6692174,8.46323478 34.5669565,8.15436522 M23.5443478,2.4528 C23.7613913,2.59193043 23.9735652,2.73593043 24.1822609,2.8861913 M22.9593043,2.09871304 C23.1575652,2.21210435 23.3523478,2.33036522 23.5443478,2.45349565 M34.2358261,8.87088696 C33.6827826,9.25349565 32.7798261,9.52549565 32.1523478,9.68062609 C31.4253913,9.85801739 30.6893913,9.99575652 29.9478261,10.0938435 M9.17426087,3.97906087 C9.21391304,4.14949565 9.27582609,4.3074087 9.35304348,4.46253913 M9.35304348,4.46253913 C9.42956522,4.61975652 9.52417391,4.76375652 9.62852174,4.90288696 M9.62921739,4.9021913 C9.80521739,5.13593043 10.0034783,5.34393043 10.2135652,5.54497391 M10.2142609,5.54566957 C10.477913,5.79610435 10.749913,6.03610435 11.0198261,6.28027826 M11.0198261,6.28027826 C11.2549565,6.49314783 11.4914783,6.70462609 11.7370435,6.90636522 M11.7370435,6.90636522 C11.8991304,7.03853913 12.0633043,7.16793043 12.2309565,7.29314783 M12.2309565,7.29245217 C12.88,7.77453913 13.5673043,8.17036522 14.290087,8.52445217 C14.6504348,8.70114783 15.0149565,8.86532174 15.3822609,9.02393043 C15.565913,9.10323478 15.7509565,9.18045217 15.9353043,9.25836522 C16.1189565,9.33558261 16.3026087,9.41627826 16.4869565,9.49349565 M16.4869565,9.4928 C17.3328696,9.84897391 18.8535652,10.0597565 19.7370435,10.1675826 C20.8375652,10.3060174 21.9436522,10.3929739 23.0525217,10.4277565 M23.0525217,10.4270609 C25.2883478,10.4896696 27.7273043,10.4089739 29.9478261,10.0931478 M9.27026087,3.84271304 C8.17182609,3.21106087 6.75269565,2.54462609 5.54365217,2.18149565 M17.8601739,2.89523478 C17.8323478,2.88062609 17.8031304,2.86810435 17.7732174,2.85766957 C17.7384348,2.84584348 17.7022609,2.8354087 17.666087,2.82775652 C17.6264348,2.8194087 17.5867826,2.81314783 17.5464348,2.80827826 C17.4956522,2.80410435 17.4441739,2.80201739 17.3933913,2.80062609 M17.0288696,2.82566957 C17.1464348,2.81175652 17.2633043,2.8034087 17.3822609,2.80062609 M17.0288696,2.82566957 C16.9252174,2.83888696 16.8229565,2.85836522 16.722087,2.88410435 M17.8782609,2.90497391 C18.0626087,3.01349565 18.237913,3.13593043 18.4104348,3.26253913 M17.1234783,3.42601739 C16.962087,3.30497391 16.8013913,3.18323478 16.6413913,3.0608 M16.5913043,2.97871304 C16.5913043,2.97384348 16.5926957,2.96897391 16.5947826,2.9648 C16.5961739,2.95993043 16.5989565,2.95506087 16.6017391,2.95088696 C16.6045217,2.94671304 16.6073043,2.94253913 16.6114783,2.93906087 C16.6156522,2.93488696 16.6198261,2.93001739 16.6253913,2.92653913 C16.6309565,2.92236522 16.6365217,2.91888696 16.642087,2.91471304 L16.6615652,2.90497391 C16.6775652,2.89801739 16.6949565,2.89175652 16.7116522,2.88688696 M9.2146087,7.1421913 C9.23408696,7.19784348 9.25704348,7.25210435 9.28278261,7.30497391 C9.33704348,7.41697391 9.40521739,7.52132174 9.48521739,7.61593043 C9.53391304,7.67645217 9.58608696,7.7341913 9.63826087,7.79123478 M30.258087,11.5143652 C30.5085217,11.4795826 30.7589565,11.4406261 31.008,11.3968 C31.2514783,11.3543652 31.4956522,11.3077565 31.7377391,11.2555826 C32.0507826,11.1888 32.3617391,11.1122783 32.669913,11.0260174 C32.8542609,10.9731478 33.0372174,10.9161043 33.2187826,10.8534957 C33.376,10.7978435 33.5318261,10.7373217 33.6855652,10.6719304 C33.8163478,10.614887 33.9443478,10.5522783 34.0695652,10.4848 C34.178087,10.4235826 34.2831304,10.3554087 34.384,10.2816696 C34.4090435,10.2621913 34.434087,10.242713 34.4577391,10.2232348 M30.258087,11.5143652 C29.7022609,11.5936696 29.1450435,11.6569739 28.5857391,11.7035826 C27.9826087,11.7564522 27.378087,11.7933217 26.7728696,11.8162783 C26.4612174,11.8281043 26.1495652,11.8364522 25.837913,11.842713 C25.5248696,11.846887 25.2118261,11.8489739 24.8987826,11.846887 C24.2692174,11.8434087 23.6389565,11.8260174 23.010087,11.794713 M23.010087,11.794713 C22.3415652,11.762713 21.6737391,11.7119304 21.008,11.6437565 C20.3993043,11.5825391 19.7933913,11.5011478 19.1902609,11.4009739 C18.9175652,11.3557565 18.6455652,11.3056696 18.3749565,11.250713 C18.0083478,11.174887 17.6438261,11.0879304 17.2827826,10.9884522 C17.074087,10.9300174 16.8667826,10.8653217 16.6615652,10.7950609 C16.5683478,10.7630609 16.4758261,10.7282783 16.3833043,10.6928 M16.3833043,10.6934957 L16.3033043,10.6614957 L16.2636522,10.6454957 L16.1321739,10.5926261 L16.0535652,10.5613217 C15.9422609,10.5168 15.8309565,10.4736696 15.7196522,10.4305391 L15.6528696,10.4048 L15.3843478,10.3004522 L15.2104348,10.2329739 L14.7582609,10.0576696 L13.8344348,9.69801739 L13.2055652,9.45245217 C12.8591304,9.3168 10.7026087,8.47227826 10.3554783,8.33801739 M17.6841739,3.58045217 C17.5366957,3.58184348 17.3906087,3.5554087 17.2528696,3.50184348 C17.2173913,3.48653913 17.184,3.46845217 17.1513043,3.44758261 M18.0486957,3.55610435 C17.9276522,3.5714087 17.805913,3.57906087 17.6841739,3.57975652 M18.3617391,3.49349565 C18.2594783,3.52271304 18.1544348,3.54358261 18.0486957,3.55610435 M18.4389565,3.28410435 C18.4598261,3.3008 18.477913,3.32166957 18.4904348,3.34462609 C18.4966957,3.35853913 18.4994783,3.37384348 18.4973913,3.38845217 C18.4973913,3.39332174 18.496,3.3981913 18.4946087,3.40306087 C18.4911304,3.4128 18.4855652,3.42253913 18.4786087,3.43088696 C18.4702609,3.44062609 18.4605217,3.44827826 18.4493913,3.45523478 C18.4215652,3.47193043 18.3923478,3.48514783 18.3617391,3.4941913 M10.3561739,8.33732174 C10.0946087,8.18427826 9.85113043,8.0221913 9.64243478,7.7954087 M10.0584348,8.1501913 C9.80521739,8.03262609 9.54156522,7.88375652 9.34330435,7.67436522 M8.69217391,7.28897391 L5.76765217,6.1341913 M9.3426087,7.67436522 C9.18052174,7.50253913 8.90156522,7.37175652 8.69217391,7.28966957 M10.2288696,3.66393043 C10.6406957,3.91575652 11.0372174,4.18566957 11.4226087,4.47714783 M11.4233043,4.47784348 C11.6765217,4.66914783 11.8824348,4.77558261 12.2024348,4.81732174 C12.4932174,4.85488696 12.7721739,4.82288696 13.058087,4.78393043 M13.058087,4.78393043 C14.0786087,4.6461913 17.6473043,4.19401739 18.6678261,4.06253913 M9.17495652,3.96793043 C9.19026087,3.87610435 9.28556522,3.82184348 9.36556522,3.80584348 M9.36556522,3.80653913 C9.62991304,3.75575652 9.96382609,3.71053913 10.2281739,3.66393043 M21.0490435,29.430887 C20.7853913,29.4079304 20.5217391,29.3821913 20.2587826,29.3522783 M20.6518261,29.3940174 C19.7989565,29.3140174 18.9516522,29.1874087 18.1126957,29.0141913 C17.693913,28.9258435 17.2786087,28.8180174 16.8702609,28.6893217 C16.4598261,28.5606261 16.0633043,28.4054957 15.6723478,28.2253217 M33.3001739,27.0274087 C33.2396522,27.4517565 32.832,27.7905391 32.5224348,27.9922783 C32.1613913,28.226713 31.778087,28.3964522 31.3801739,28.5474087 C30.6149565,28.8395826 29.7314783,29.0621913 28.9273043,29.1999304 M28.976,29.1915826 L28.9015652,29.2048 M21.9742609,29.4990609 C21.741913,29.4851478 21.5095652,29.4698435 21.277913,29.4503652 M22.8034783,29.5380174 C22.546087,29.5289739 22.2893913,29.5171478 22.0326957,29.5025391 M23.8935652,3.39471304 C23.9958261,3.38288696 24.0987826,3.37106087 24.1996522,3.34949565 C24.2504348,3.33906087 24.3005217,3.32653913 24.3492174,3.30775652 C24.3812174,3.29523478 24.461913,3.26323478 24.4653913,3.21453913 M18.6685217,4.06323478 C19.5206957,3.95401739 23.04,3.49697391 23.8928696,3.39471304 M22.994087,2.04375652 C23.2201739,2.02775652 23.4462609,2.01384348 23.6730435,2.00201739"/>
    <path d="M23.5757913,1.8957913 C23.9090087,2.00013913 24.408487,2.22692174 24.7326609,2.35561739 C25.0102261,2.46553043 25.2801391,2.58518261 25.5451826,2.71944348 C25.8860522,2.89196522 26.2095304,3.08326957 26.520487,3.3037913 C26.8335304,3.5264 27.1257043,3.76918261 27.4213565,4.01126957 C27.6704,4.21509565 27.9166609,4.41683478 28.1705739,4.60883478 C28.3417043,4.73683478 28.5135304,4.85787826 28.6888348,4.97405217 C29.3740522,5.42135652 30.0961391,5.81092174 30.8467478,6.13857391 C31.2210087,6.30483478 31.5980522,6.45996522 31.9785739,6.61092174 C32.3590957,6.76118261 32.7417043,6.9037913 33.124313,7.04918261 C33.5848348,7.22448696 34.3771826,7.58483478 34.5664,8.15457391 C34.6957913,8.54205217 34.7987478,9.34622609 34.8168348,9.75596522 C34.8168348,9.80744348 34.8112696,9.85753043 34.8008348,9.90761739 C34.7695304,10.0015304 34.7590957,10.024487 34.7472696,10.0474435 C34.7194435,10.0961391 34.6888348,10.1420522 34.6554435,10.1858783 C34.6144,10.2345739 34.5705739,10.280487 34.5253565,10.324313 C34.4850087,11.5187478 34.4119652,13.2439652 34.3632696,14.4147478 C34.3055304,15.8206609 34.2304,17.2258783 34.1378783,18.6297043 C33.9500522,21.4401391 33.6975304,24.2373565 33.300313,27.0262261 C33.2836174,27.1333565 33.2585739,27.2210087 33.2237913,27.3065739 C32.8036174,28.3382261 32.2046609,29.3017043 31.4178783,30.0877913 C31.028313,30.4766609 30.2978783,30.7750957 29.8074435,30.9434435 C29.224487,31.1424 28.6345739,31.2864 28.0293565,31.3914435 C26.7215304,31.6182261 25.0777043,31.7037913 23.7559652,31.7004146 C22.3250087,31.7004146 20.8968348,31.5841391 19.4853565,31.3517913 C18.7785739,31.2384 18.0801391,31.0825739 17.3921391,30.8857043 C17.0888348,30.7973565 16.7897043,30.6985739 16.4940522,30.5872696 C16.3458783,30.5316174 16.1997913,30.4731826 16.0550957,30.4105739 C15.832487,30.3145739 15.6147478,30.2088348 15.396313,30.1037913 L11.5264,28.2394435 C11.3552696,28.1580522 11.1897043,28.0655304 11.032487,27.9597913 C10.8933565,27.8651826 10.3347478,27.4971826 10.2234435,27.3691826 L9.51805217,27.0192696 L6.65405217,25.6557913 C6.44813913,25.2829217 6.27492174,24.8926609 6.1357913,24.4898783 C5.99596522,24.0870957 5.9117913,23.6669217 5.88535652,23.2418783 C5.86866087,20.5594435 5.85057391,17.9006609 5.83109565,15.2418783 C5.80883478,12.2491826 5.78796522,9.25718261 5.76848696,6.26518261 L5.21892174,6.04813913 C5.1917913,6.0370087 5.16813913,5.85335652 5.16813913,5.85335652 C5.17926957,5.17857391 5.26553043,4.7917913 5.36013913,4.12883478 C5.44153043,3.55353043 5.48118261,2.97892174 5.49022609,2.39805217 L5.49161739,2.2637913 C5.49161739,2.19144348 5.5277913,2.12674783 5.59596522,2.10170435 C7.73648696,1.41648696 10.1309217,0.957356522 12.3437913,0.68813913 C14.6790957,0.404313043 17.2300522,0.279791304 19.5806609,0.384834783 C20.8815304,0.737530435 23.576487,1.8957913 23.576487,1.8957913 L23.5757913,1.8957913 Z"/>
  </g>
</svg>
