<svg xmlns="http://www.w3.org/2000/svg" width="20" height="34" viewBox="0 0 20 34">
  <g fill="none" fill-rule="evenodd" stroke="#394791" stroke-linecap="round" stroke-linejoin="round" transform="translate(1 1)">
    <path d="M2.85703058,20.1667692 C2.69087673,20.2049231 2.28349211,20.2873846 2.28472288,20.5501538 L2.28472288,20.5513846 L2.30133827,22.6824615 L2.30133827,22.6843077 C2.30195365,22.7064615 2.31118442,22.7273846 2.28595365,22.7458462 C2.2841075,22.7458462 2.28287673,22.7458462 2.28103058,22.7464615 L2.2761075,22.7476923 L1.38626135,22.9790769 L1.37887673,22.9809231 L0.588722884,23.1864615 C-0.0426617315,23.3501538 -0.0463540392,24.2246154 0.0391844223,24.696 C0.127799807,25.1846154 0.415799807,25.9113846 0.951799807,26.1261538 L0.953030576,26.1261538 C1.21518442,26.2584615 1.40226135,26.2012308 1.40226135,26.2012308 L2.26503058,25.9556923 L2.29456904,30.0233846 C2.26687673,30.0504615 2.18379981,30.1113846 2.11303058,30.1932308 C2.03856904,30.2793846 1.99364596,30.3606154 1.99426135,30.4787692 L1.99733827,30.7698462 C1.99979981,31.0793846 2.4281075,31.2621538 2.64656904,31.3366154 C2.94072288,31.4387692 3.23733827,31.4867692 3.54503058,31.5107692 C4.17333827,31.56 4.75426135,31.5230769 5.3561075,31.3046154 C5.58072288,31.224 6.03795365,31.0246154 6.03918442,30.7027692 L6.03918442,30.4123077 C6.03979981,30.3464615 6.02195365,30.2812308 5.98749211,30.2246154 C5.96287673,30.1803077 5.9321075,30.1403077 5.89518442,30.1058462 C5.8761075,30.0867692 5.85641519,30.0683077 5.83549211,30.0510769 C5.81333827,30.0332308 5.74195365,29.9895385 5.73887673,29.9446154 L5.74687673,24.9329231 C5.74687673,24.9329231 5.74933827,24.8873846 5.74441519,24.8683077 L6.83918442,24.5390769 C6.96841519,24.5729231 7.08595365,24.576 7.21641519,24.5372308 L7.22256904,24.5353846 C7.72164596,24.3876923 8.22195365,24.2406154 8.72103058,24.0941538 L8.72226135,24.0929231 C9.17149211,23.9409231 9.31918442,23.4018462 9.32349211,23.0086154 C9.33703058,22.5846154 9.21456904,22.1673846 8.97333827,21.8184615 C8.76164596,21.5003077 8.36656904,21.1403077 7.89949211,21.2492308 L7.89518442,21.2504615 L7.75549211,21.2867692 L7.78626135,17.048 L7.78749211,17.0529231 C7.7881075,17.0110769 7.65703058,16.9753846 7.49518442,16.9729231 C7.33333827,16.9704615 7.20164596,17.0024615 7.20041519,17.0443077 L7.20103058,17.0443077 L7.17579981,21.4356923 L6.40779981,21.6338462 L6.40041519,21.6363077 C6.32533827,21.6553846 6.25395365,21.6873846 6.18933827,21.7310769 L5.76103058,21.8566154 L5.76287673,20.5230769 C5.76349211,20.3286154 5.37826135,20.232 5.24841519,20.1926154 L5.12287673,20.1630769 L5.06626135,9.54953846 L5.06626135,9.54707692 C5.0681075,7.87138462 5.34195365,6.39630769 6.1881075,4.90338462 C6.96472288,3.53415385 8.29887673,2.304 10.0687229,2.41538462 L10.0754921,2.41538462 C10.446569,2.44184615 10.8114921,2.52184615 11.1597998,2.65230769 C11.3450306,2.72123077 11.5259537,2.80369231 11.7007229,2.89661538 C11.881646,2.99261538 12.0570306,3.10030769 12.2244152,3.21723077 C12.4084152,3.34523077 12.5837998,3.48369231 12.7517998,3.63138462 C12.8933383,3.75569231 13.0287229,3.88676923 13.1597998,4.02276923 C13.4773383,4.35384615 13.7641075,4.71261538 14.017646,5.09476923 C14.2459537,5.43569231 14.4514921,5.79138462 14.6330306,6.15938462 C14.830569,6.55815385 15.0022613,6.97046154 15.1481075,7.39138462 C15.4422613,8.24553846 15.6373383,9.13107692 15.7308767,10.0301538 L15.7924152,10.6246154 L15.7942613,10.6412308 L15.9548767,12.1993846 C15.9591844,12.2424615 15.9979537,12.2110769 16.0207229,12.2116923 C16.0441075,12.2129231 16.0674921,12.2129231 16.0902613,12.2129231 L16.1148767,12.2123077 C16.5117998,12.1778462 16.9210306,12.1729231 17.3148767,12.1249231 C17.5130306,12.1003077 17.7142613,12.0892308 17.910569,12.0596923 C18.0090306,12.0455385 18.1074921,12.0301538 18.2047229,12.0129231 C18.2754921,12.0006154 18.3462613,11.9870769 18.4157998,11.9692308 C18.4422613,11.9618462 18.4933383,11.9864615 18.4890306,11.9366154 L18.3327229,10.3741538 L18.3314921,10.3673846 L18.2711844,9.76061538 L18.270569,9.76061538 C18.0471844,7.528 17.2748767,5.24984615 15.9284152,3.40923077 C14.6084152,1.60307692 12.6053383,0.0923076923 10.1961075,0.00492307692 L9.93949211,0.00123076923 C7.58626135,0.0178461538 5.70379981,1.41538462 4.52595365,3.28061538 C3.35549211,5.13292308 2.87056904,7.40307692 2.88164596,9.53784615 L2.88164596,9.53846154 L2.86503058,20.1396923"/>
    <path stroke-width=".5" d="M1.33093827,23.1851077 C1.86939981,23.4589538 2.15863058,24.2066462 2.21586135,24.7340308 M2.21586135,24.7340308 C2.22324596,24.8060308 2.23678442,24.8774154 2.25647673,24.9475692 C2.27124596,25.0004923 2.29278442,25.0515692 2.32047673,25.0989538 C2.34447673,25.1401846 2.37586135,25.1771077 2.41278442,25.2072615 C2.44847673,25.2343385 2.49032288,25.2528 2.53401519,25.2614154 L2.55986135,25.2657231 C2.59801519,25.2700308 2.63616904,25.2681846 2.67309211,25.2595692 L2.6817075,25.2577231 M3.08909211,25.6368 L2.26878442,25.8872615"/>
    <path stroke-width=".5" d="M3.30509211,24.4233846 C3.3137075,24.5089231 3.3057075,24.5950769 3.28293827,24.6781538 C3.2577075,24.7649231 3.2177075,24.8467692 3.16478442,24.92 M3.16478442,24.92 C3.05278442,25.0750769 2.89463058,25.1907692 2.71247673,25.2498462 C2.70263058,25.2529231 2.69216904,25.2553846 2.6817075,25.2578462 M3.84724596,23.6443077 C3.56109211,23.3138462 2.90816904,22.8806154 2.57278442,22.7870769 M3.08909211,25.6369231 C3.14939981,25.6196923 3.20724596,25.5969231 3.26447673,25.5716923 C3.38693827,25.5163077 3.50263058,25.4473846 3.60909211,25.3655385 C3.77586135,25.2424615 3.92416904,25.096 4.04847673,24.9304615 C4.08663058,24.8781538 4.12293827,24.8246154 4.15493827,24.7686154 C4.18324596,24.7193846 4.20847673,24.6689231 4.22878442,24.6166154 C4.25709211,24.5427692 4.2737075,24.4652308 4.27678442,24.3870769 C4.27801519,24.352 4.27493827,24.3169231 4.26878442,24.2824615 C4.25401519,24.2 4.22324596,24.1212308 4.17893827,24.0504615 C4.15309211,24.0049231 4.12416904,23.9612308 4.09278442,23.9193846 C4.05709211,23.8713846 4.01893827,23.8246154 3.97832288,23.7803077 C3.93647673,23.7335385 3.89278442,23.688 3.84724596,23.6443077 M5.05093827,20.1569231 C5.15555365,20.2486154 5.08909211,20.3212308 4.98939981,20.3784615 C4.90447673,20.4233846 4.81339981,20.4572308 4.71863058,20.4769231 C4.38016904,20.5593846 4.0497075,20.5710769 3.70509211,20.5476923 C3.53524596,20.5390769 3.36663058,20.5132308 3.2017075,20.4713846 C3.11863058,20.4523077 3.03924596,20.4203077 2.96663058,20.376 C2.87739981,20.3175385 2.84355365,20.2510769 2.93216904,20.1716923 M2.17278442,22.8541538 C2.11063058,22.8504615 2.04847673,22.8516923 1.98632288,22.8590769 C1.96909211,22.8603077 1.95124596,22.8627692 1.93339981,22.8652308 L1.87001519,22.8750769 C1.82693827,22.8818462 1.78447673,22.8898462 1.74139981,22.8990769 C1.68355365,22.9113846 1.6257075,22.9243077 1.56786135,22.9390769 L1.50755365,22.9544615 L1.48724596,22.96 L1.39493827,22.984 C1.38693827,22.9858462 1.37955365,22.9876923 1.37155365,22.9901538 L1.30201519,23.0086154 C1.27493827,23.016 1.24786135,23.0258462 1.22139981,23.0363077 C1.20847673,23.0412308 1.19616904,23.0492308 1.1857075,23.0590769 C1.18324596,23.0621538 1.18078442,23.0652308 1.17955365,23.0689231 L1.17955365,23.0750769 C1.17955365,23.0769231 1.17955365,23.0793846 1.18078442,23.0812308 C1.18263058,23.0855385 1.18447673,23.0898462 1.18755365,23.0935385 C1.19801519,23.1052308 1.2097075,23.1156923 1.22263058,23.1243077 L1.25155365,23.1421538 L1.28601519,23.1612308 L1.33093827,23.1852308"/>
    <path stroke-width=".5" d="M7.71432288,21.4110769 L7.71801519,21.4276923 C7.71801519,21.4338462 7.71801519,21.44 7.71616904,21.4461538 C7.7137075,21.4584615 7.70816904,21.4701538 7.70078442,21.48 C7.69216904,21.4904615 7.6817075,21.5003077 7.66939981,21.5076923 C7.64478442,21.5218462 7.6177075,21.5323077 7.58939981,21.5378462 C7.54386135,21.5452308 7.49709211,21.5470769 7.45093827,21.5421538 C7.41216904,21.5384615 7.37401519,21.5316923 7.33647673,21.5224615 C7.29893827,21.5126154 7.26201519,21.5009231 7.2257075,21.4873846 M5.04724596,20.1403077 C5.11493827,20.1550769 5.18263058,20.1723077 5.24847673,20.1926154 M6.19001519,21.7310769 L6.34509211,21.6904615 M5.68663058,21.8621538 L5.68539981,22.7021538 M5.6737075,29.9433846 L5.6737075,30.2966154 M2.36293827,30.3507692 L2.35986135,29.9969231 M7.11555365,24.4578462 L6.83924596,24.5390769 M7.78755365,17.0529231 C7.78693827,17.0947692 7.65463058,17.1261538 7.49339981,17.1236923 C7.33093827,17.1212308 7.20047673,17.0861538 7.20109211,17.0436923 M18.327246,10.3563077 C18.3444767,10.3753846 17.6010921,10.4713846 17.3826306,10.496 C17.0004767,10.5390769 16.6183229,10.5784615 16.2355537,10.6086154 C16.1346306,10.6166154 16.0349383,10.624 15.9340152,10.6289231 C15.9050921,10.6295385 15.8140152,10.6338462 15.8060152,10.6270769 M9.93893827,-2.14255963e-13 C10.0220152,-2.14255963e-13 10.1050921,0.000615384615 10.1875537,0.00369230769 M2.57278442,22.7870769 C2.48355365,22.7587692 2.39124596,22.7433846 2.2977075,22.7421538 M0.953707499,23.2098462 C1.49709211,23.4055385 1.81155365,24.1224615 1.90509211,24.6036923 C1.99493827,25.0652308 2.01093827,25.9532308 1.39309211,26.1335385 M7.11555365,24.4578462 C7.56293827,24.3273846 7.69647673,23.7852308 7.69893827,23.408 M7.69893827,23.408 C7.71001519,22.9956923 7.59124596,22.5901538 7.36047673,22.2486154 C7.16109211,21.9415385 6.77709211,21.5790769 6.34509211,21.6910769 M5.67739981,24.8775385 C5.67186135,24.8467692 5.66509211,24.816 5.65709211,24.7858462 L5.64047673,24.7292308 L5.63063058,24.6972308 L5.59616904,24.5864615 C5.57339981,24.5150769 5.55432288,24.4424615 5.53893827,24.3692308 C5.51739981,24.2627692 5.50693827,24.1550769 5.50816904,24.0467692 C5.50939981,23.9403077 5.51801519,23.8344615 5.53463058,23.7298462 L5.55986135,23.5809231 L5.61339981,23.3027692 L5.63309211,23.1981538 C5.65339981,23.0836923 5.66816904,22.968 5.67863058,22.8523077 C5.68293827,22.8018462 5.68478442,22.752 5.68478442,22.7015385 M2.74509211,30.7513846 C3.38816904,31.04 4.46693827,31.0141538 5.11063058,30.7852308 M5.68847673,20.5249231 C5.68847673,20.7778462 5.19063058,20.8621538 5.03555365,20.8966154 C4.77709211,20.9513846 4.5137075,20.9846154 4.24909211,20.9950769 C3.71247673,21.0221538 3.2017075,21.0129231 2.67739981,20.8436923 M2.67739981,20.8436923 C2.56909211,20.8092308 2.28663058,20.7150769 2.28478442,20.5501538 M2.36293827,30.3507692 C2.36416904,30.5513846 2.60047673,30.6861538 2.74509211,30.7513846 M5.67309211,30.2966154 C5.67309211,30.5593846 5.29278442,30.7206154 5.11063058,30.7852308 M2.17524596,22.8535385 C2.21893827,22.8615385 2.26139981,22.8744615 2.30201519,22.8923077 C2.91186135,23.1618462 3.24047673,23.8978462 3.30509211,24.424"/>
  </g>
</svg>
