<svg xmlns="http://www.w3.org/2000/svg" width="25" height="33" viewBox="0 0 25 33">
  <g fill="none" fill-rule="evenodd" transform="translate(1 1)">
    <path stroke="#394791" d="M21.4919111,16.2734815 C24.1485037,9.82014815 23.6845037,3.61037037 20.0613926,1.51792593 C15.8261333,-0.927111111 8.8768,3.17955556 4.54020741,10.6912593 C0.203614815,18.2023704 0.121244444,26.2740741 4.3565037,28.7197037 C7.98376296,30.8133333 13.6003556,28.1034074 17.8622815,22.565037"/>
    <path fill="#394791" d="M16.0164741,22.3313778 L16.0164741,30.5589333 C16.0164741,31.0093037 16.2778074,31.2338963 16.7998815,31.2338963 C17.321363,31.2338963 17.6200296,31.084563 17.6946963,30.7841185 L17.6946963,22.6691556"/>
    <path stroke="#394791" d="M16.0164741 22.3313778L16.0164741 30.5589333C16.0164741 31.0093037 16.2778074 31.2338963 16.7998815 31.2338963 17.321363 31.2338963 17.6200296 31.084563 17.6946963 30.7841185L17.6946963 22.6691556M21.0593185 15.9847111C22.0696889 16.5678222 22.0560593 18.4830815 21.0290963 20.2620444 20.0015407 22.0410074 18.3505778 23.0093037 17.3402074 22.4267852 16.3304296 21.8436741 16.3434667 19.9284148 17.3704296 18.1494519 18.3979852 16.3704889 20.0489481 15.4021926 21.0593185 15.9847111z"/>
    <path stroke="#394791" stroke-width=".5" d="M18.9762963,0.854518519 C14.741037,-1.59051852 7.7917037,2.51674074 3.45511111,10.0278519 C-0.881481481,17.538963 -0.963851852,25.6100741 3.27140741,28.0557037 M21.2121481,16.1878519 C21.0847407,15.6011852 20.7955556,15.1348148 20.3457778,14.8752593 C19.1214815,14.1682963 17.1706667,15.2551111 15.9884444,17.3031111 C14.8056296,19.3511111 14.84,21.5834074 16.0642963,22.290963 C16.5514074,22.5718519 17.402963,22.5718519 17.402963,22.4841481"/>
    <path stroke="#394791" stroke-width=".5" d="M16.0164741,22.3313778 L12.5498074,20.4155259 C11.9536593,19.7399704 11.7675852,18.8753778 11.9909926,17.8235259 C12.2126222,16.780563 12.6197333,15.7524148 13.3332148,14.780563 C14.6001778,13.052563 15.9050667,12.4510815 17.2472889,12.9773037 L20.6019556,15.0057481"/>
    <path stroke="#394791" stroke-width=".5" d="M16.6878222,12.7520593 L14.3393778,11.2859852 C13.1464889,11.0625778 11.9536,11.7393185 10.7607111,13.3150222 C9.56782222,14.8907259 9.15774815,16.4688 9.53048889,18.0486519 C9.75448889,18.5742815 10.0152296,18.9126519 10.3133037,19.0625778 C10.6113778,19.2130963 11.2454519,19.5514667 12.2143407,20.0770963"/>
    <path stroke="#394791" stroke-width=".5" d="M15.5694815,12.0755556 C14.3765926,11.6998519 13.1463704,12.4512593 11.8788148,14.3297778 C10.6112593,16.2082963 10.3878519,17.9362963 11.208,19.5143704"/>
  </g>
</svg>
