<svg xmlns="http://www.w3.org/2000/svg" width="103" height="86" viewBox="0 0 103 86"><path fill="#fff" d="M98.708 53.717h-15.02V38.714h6.438c4.732 0 8.582 3.846 8.582 8.573zm-19.31-15.003v15.003h-4.293V38.714zm12.658 34.293c-.997-4.886-5.332-8.573-10.513-8.573H64.375V30.142h21.46c1.183 0 2.145.961 2.145 2.143v2.143H72.96c-1.185 0-2.146.96-2.146 2.143v19.29c0 1.183.96 2.143 2.145 2.143h25.75v15.003zm-4.076 2.15c-.004 3.543-2.89 6.423-6.437 6.423-3.55 0-6.438-2.884-6.438-6.43 0-3.54 2.88-6.42 6.421-6.43h.022c3.545.003 6.428 2.883 6.432 6.423v.014zM71.03 73.01h-6.655v-4.288h8.59a10.667 10.667 0 00-1.935 4.288zm-10.945-8.575H45.491a2.145 2.145 0 100 4.287h14.594v4.286H31.972c-.997-4.886-5.332-8.573-10.513-8.573-5.182 0-9.517 3.688-10.514 8.573H4.292V38.714h8.583a2.144 2.144 0 100-4.286H4.292V30.14h25.75a2.145 2.145 0 100-4.286H4.292V17.28h55.793zM21.457 81.58c-3.55 0-6.437-2.884-6.437-6.43 0-3.545 2.888-6.43 6.437-6.43 3.55 0 6.436 2.885 6.436 6.43 0 3.546-2.887 6.43-6.436 6.43zM19.313 5.309l2.774 2.77.003.003 4.918 4.912h-15.39zM51.5 12.994H33.077l-4.29-4.285H51.5zM92.272 34.61v-2.325c0-3.546-2.888-6.43-6.438-6.43H64.375V15.138c0-1.184-.96-2.144-2.146-2.144h-6.438V6.565c0-1.183-.96-2.143-2.145-2.143H24.494L20.83.762a2.148 2.148 0 00-3.034 0L5.549 12.994H2.146C.96 12.994 0 13.954 0 15.138V75.15c0 1.184.96 2.144 2.146 2.144h8.799c.323 1.583.997 3.04 1.936 4.286H8.583a2.145 2.145 0 000 4.287h12.891c5.174-.008 9.501-3.693 10.497-8.573H71.03c.323 1.583.997 3.04 1.936 4.286h-4.298a2.145 2.145 0 000 4.287h12.891c5.174-.008 9.501-3.692 10.497-8.573h8.798c1.185 0 2.146-.96 2.146-2.143V47.287c0-6.36-4.648-11.653-10.728-12.677z"/></svg>