<svg width="46" height="46" viewBox="0 0 46 46" xmlns:xlink="http://www.w3.org/1999/xlink" xmlns="http://www.w3.org/2000/svg"><defs><clipPath id="clip_1"><use xlink:href="#path_1"/></clipPath><path d="M3.999 0h24.002q.197 0 .392.02.195.019.388.057.193.038.38.095.189.057.37.132.182.076.355.168.173.093.337.202.163.11.315.234.152.124.29.263.14.14.264.291.125.152.234.315.11.164.202.337.092.173.168.355.075.181.132.37.057.187.095.38.039.193.058.388.019.196.019.392v24.002q0 .197-.02.392-.018.195-.057.388-.038.193-.095.38-.057.189-.132.37-.076.182-.168.355-.093.173-.202.337-.11.163-.234.315-.124.152-.263.29-.14.14-.291.264-.152.125-.315.234-.164.11-.337.202-.173.092-.355.168-.181.075-.37.132-.187.057-.38.095-.192.039-.388.058-.195.019-.392.019H3.999q-.196 0-.392-.02-.195-.018-.388-.057-.193-.038-.38-.095-.189-.057-.37-.132-.182-.076-.355-.168-.173-.093-.337-.202-.163-.11-.315-.234-.152-.124-.29-.263-.14-.14-.264-.291-.125-.152-.234-.315-.11-.164-.202-.337-.092-.173-.168-.355-.075-.181-.132-.37-.057-.187-.095-.38-.038-.192-.058-.388Q0 28.198 0 28.001V3.999q0-.196.02-.392.019-.195.057-.388.038-.193.095-.38.057-.189.132-.37.076-.182.168-.355.093-.173.202-.337.11-.163.234-.315.124-.152.263-.29.14-.14.291-.264.152-.125.315-.234.164-.11.337-.202.173-.092.355-.168.181-.075.37-.132.187-.057.38-.095t.388-.058Q3.803 0 3.999 0z" transform="rotate(45 11.05 27.95)" id="path_1"/></defs><g id="best-proposition-card-grohe"><g id="new"><g id="Rectangle-13"><use fill="#394791" fill-opacity=".094" xlink:href="#path_1"/><g clip-path="url(#clip_1)"><use xlink:href="#path_1" fill="none" stroke="#394791" stroke-width="4"/></g></g><path d="M.687.66c.885-.88 2.43-.88 3.314 0L5.99 2.64a.464.464 0 010 .659L3.338 5.938a.47.47 0 01-.662 0l-1.99-1.98a2.323 2.323 0 010-3.298zm14.626 0c-.885-.88-2.43-.88-3.314 0L9.98 2.64a.464.464 0 000 .659l2.683 2.639a.47.47 0 00.662 0l1.99-1.98a2.323 2.323 0 000-3.298zM5.926 4.682l8.025 6.49a.466.466 0 01-.296.827h-3.16a.47.47 0 01-.349-.154L4.732 5.87l1.194-1.188zm5.343 1.188l-1.194-1.187-1.332 1.055 1.541 1.225.985-1.093zM7.37 10.164L5.616 8.25l-3.567 2.923a.466.466 0 00.296.828h3.16c.134 0 .26-.057.35-.155l1.516-1.68z" transform="translate(15 17)" id="Shape" fill="#394791" fill-rule="evenodd" stroke="none"/></g></g></svg>