<svg width="18" height="18" viewBox="0 0 18 18" xmlns:xlink="http://www.w3.org/1999/xlink" xmlns="http://www.w3.org/2000/svg"><g id="delivery-truck" stroke="none"><path d="M0 0h18v18H0V0z" id="Rectangle-4" fill="none"/><path d="M.632 8.722V.797c0-.44.345-.797.77-.797h7.655c.425 0 .77.357.77.797v7.925a.261.261 0 01-.257.266H.89a.261.261 0 01-.257-.266zM18 10.05v.807a.261.261 0 01-.257.265h-2.08c-.148-1.055-1.026-1.87-2.087-1.87-1.06 0-1.938.815-2.087 1.87H7.302a2.203 2.203 0 00-.711-1.338h3.97V2.181c0-.294.23-.532.514-.532H13.5c.683 0 1.32.351 1.703.937l1.563 2.396c.23.351.352.766.352 1.19v3.611h.625c.142 0 .257.12.257.266zm-3.856-6.844l1.25 1.838c.12.176-.002.418-.21.418h-3.2a.261.261 0 01-.257-.265V3.358c0-.147.116-.266.257-.266h1.95c.084 0 .162.042.21.113zM.257 9.783h3.581a2.203 2.203 0 00-.71 1.338H.256A.261.261 0 010 10.855v-.806c0-.147.115-.266.257-.266zm4.957 3.308c.883 0 1.599-.74 1.599-1.654 0-.913-.716-1.654-1.599-1.654-.882 0-1.598.74-1.598 1.654 0 .913.716 1.654 1.598 1.654zm9.96-1.654c0 .913-.715 1.654-1.597 1.654-.883 0-1.598-.74-1.598-1.654 0-.913.715-1.654 1.598-1.654.882 0 1.598.74 1.598 1.654zm-9.16 0a.813.813 0 00-.8-.827c-.441 0-.799.37-.799.827 0 .457.358.827.8.827.44 0 .798-.37.798-.827zm7.562-.827c.442 0 .8.37.8.827a.814.814 0 01-.8.827c-.44 0-.799-.37-.799-.827 0-.456.358-.827.8-.827z" transform="translate(0 2)" id="Shape" fill="#60BE34" fill-rule="evenodd"/></g></svg>