<svg version="1.1" id="_1" xmlns="http://www.w3.org/2000/svg" xmlns:xlink="http://www.w3.org/1999/xlink" x="0" y="0" viewBox="0 0 176 52" xml:space="preserve"><style>.st0{fill:#122d52}</style><path class="st0" d="M24 16.6v9.3c-2 .9-4.1 1.3-6.3 1.3-5.4 0-9.2-4.2-9.2-10.2 0-6.4 4.5-10.9 11.1-10.9 3.6 0 7.3 1 11.6 3.3V3.2C25.6.9 22.8.2 18.7.2 7.3.3 0 6.8 0 17c0 9.7 7.1 16.1 17.7 16.1 5.1-.1 10-1.4 14.5-3.9V16.6H24zM38.9 1.2v31h8V7h3.5C55 7 57 8.5 57 11.7S54.7 17 50.7 17h-2.6l11.1 15.1h10.3L59.3 19.7c3.6-1.4 5.9-4.9 5.8-8.8 0-6.6-4.2-9.7-13-9.7H38.9zm74.8 0v30.9h8V18.9h14.2v13.2h8V1.2h-8v11.4h-14.2V1.2h-8zm38.8 0v30.9h23.1v-6h-15.1v-7.4h11.1v-5.8h-11.1V7.3h13.4V1.2h-21.4zM70.1 16.7c0 9.6 8 16.7 18.9 16.7s19-7 19-16.7S100 0 89 0 70.1 7 70.1 16.7zm8.5 2c0-6.4 4.3-10.9 10.5-10.9s10.5 4.5 10.5 10.9S95.2 29.5 89 29.5s-10.4-4.4-10.4-10.8zm-75 31.1c-1.9 0-2.9-1.3-2.9-3.2 0-2 1.1-3.3 2.9-3.3 1.3-.1 2.4.8 2.6 2.1v.1h-1c-.1-.8-.7-1.4-1.5-1.3-1.2 0-1.9.9-1.9 2.4S2.4 49 3.6 49c.9 0 1.6-.7 1.7-1.6h1c-.2 1.4-1.3 2.5-2.7 2.4zm4.2-.2v-6.1h5v6.1h-1v-5.2h-3v5.2h-1zm9.5.2c-1.8 0-2.9-1.2-2.9-3.2s1.1-3.3 2.8-3.3c2 0 2.8 1.6 2.8 3.4v.1h-4.6v.1c-.1 1 .6 1.9 1.6 2.1h.3c.8.1 1.5-.5 1.6-1.3h1c-.1 1.3-1.3 2.3-2.6 2.1zm-.1-5.6c-1 0-1.8.8-1.8 1.8h3.5c-.1-1.1-.7-1.8-1.7-1.8zm9.1 5.4h-4.8v-6.1h1v5.2h3v-5.2h1v5.2h.8v2.8h-1v-1.9zm2.3 0v-6.1h1v5l2.7-5h1.3v6.1h-1v-5l-2.7 5h-1.3zm12.3 0c-.2.1-.4.1-.7.1-.4 0-.8-.3-.9-.7v-.2c-.5.7-1.4 1-2.2 1-.9.1-1.8-.5-1.9-1.5V48c0-1.1.7-1.7 2.2-1.9s1.9-.1 1.9-1c0-.7-.5-1-1.4-1s-1.4.3-1.5 1.2h-1c0-1.3 1-2.1 2.5-2.1.7 0 1.4.2 1.9.6.3.5.5 1 .4 1.6v2.7c0 .5.1.6.4.6h.3v.9zm-3-2.8c-.7.1-1.7.2-1.7 1.2 0 .6.5 1 1.2 1 .9 0 1.8-.7 1.8-1.4v-1.1c-.4.2-.8.3-1.3.3zm9.4 2.8h-1v-5.2h-2.2l-.1 2.7c-.1 2-.8 2.7-1.7 2.7-.2 0-.5 0-.7-.1v-.8c.2.1.3.1.5.1.4 0 .8-.3.9-1.7l.1-3.7h4.1v6zm1.9 0v-6.1h1v5l2.7-5h1.3v6.1h-1v-5l-2.7 5h-1.3zm9.2-6.3c1.3 0 2.3.5 2.3 1.7 0 .6-.4 1.1-1 1.3.7.1 1.2.8 1.2 1.5 0 1.3-1.2 2-2.5 2-1.6 0-2.6-.8-2.6-2.1h1c.1.9.7 1.3 1.6 1.3s1.5-.5 1.5-1.2-.4-1-1.3-1h-.8V46h.7c.7 0 1.3-.3 1.3-1 0-.5-.5-.9-1.3-.9s-1.5.3-1.5 1.1h-1c-.1-1.4 1.2-1.9 2.4-1.9zm4.1 6.3v-6.1h1v5l2.7-5h1.3v6.1h-1v-5l-2.7 5h-1.3zm7.9-5.2c.4-.7 1.2-1.1 2.1-1.1 1.7 0 2.8 1.2 2.8 3.2s-1.1 3.3-2.7 3.3c-.8 0-1.6-.3-2-1V52h-1v-8.5h.9l-.1.9zm0 2.2c0 1.5.7 2.4 1.9 2.4s1.8-.9 1.8-2.4-.7-2.4-1.9-2.4-1.8.9-1.8 2.4zm12-.1c0 2.1-1.1 3.3-2.9 3.3s-3-1.2-3-3.2 1.1-3.3 3-3.3 2.9 1.2 2.9 3.2zm-4.9 0c0 1.5.7 2.4 1.9 2.4s1.9-.9 1.9-2.4-.7-2.4-1.9-2.4-1.9 1-1.9 2.4zm6.5-3h2.8c1.1 0 2.1.2 2.1 1.5 0 .6-.3 1.1-.9 1.3.7.1 1.2.8 1.2 1.5 0 1-.7 1.8-1.7 1.8H84v-6.1zm3.9 1.7c0-.5-.3-.8-1.2-.8h-1.8V46h1.7c.9 0 1.2-.3 1.3-.8zM85 48.8h2.1c.6 0 1-.4 1-1s-.3-.9-1.2-.9h-2l.1 1.9zm11.1.8c-.2.1-.4.1-.7.1-.4 0-.8-.3-.9-.7v-.2c-.5.7-1.4 1-2.2 1-.9.1-1.8-.5-1.9-1.5V48c0-1.1.7-1.7 2.2-1.9s1.9-.1 1.9-1c0-.7-.5-1-1.4-1s-1.4.3-1.5 1.2h-1c0-1.3 1-2.1 2.5-2.1.7 0 1.4.2 1.9.6.3.5.5 1 .4 1.6v2.7c0 .5.1.6.4.6h.3v.9zm-3-2.8c-.7.1-1.7.2-1.7 1.2 0 .6.5 1 1.2 1 .9 0 1.8-.7 1.8-1.4v-1.1c-.4.2-.8.3-1.3.3zm4.3 2.8v-6.1h1V46h3v-2.5h1v6.1h-1v-2.8h-3v2.8h-1zm7 0v-6.1h1V46h3v-2.5h1v6.1h-1v-2.8h-3v2.8h-1zm9.9 0h-2.9v-6.1h1v2.3h1.9c1 0 1.9.8 1.9 1.9-.1 1.1-.9 1.9-1.9 1.9-.1 0-.1 0 0 0zm-2-2.9v2h1.6c.8 0 1.3-.4 1.3-1s-.4-1-1.3-1h-1.6zm5.9-3.2v6.1h-1v-6.1h1zm1.9 6.1v-6.1h1v5l2.7-5h1.3v6.1h-1v-5l-2.7 5h-1.3zm2.5-6.8c-.9 0-1.7-.7-1.8-1.6h.6c.1.7.8 1.1 1.4.9.5-.1.8-.5.9-.9h.6c0 .9-.8 1.7-1.7 1.6zm13.7 6.8v-4.8l-1.8 4.8h-.9l-1.8-4.8v4.8h-1v-6.1h1.4l1.9 5 1.9-5h1.4v6.1h-1.1zm8.3 0c-.2.1-.4.1-.7.1-.4 0-.8-.3-.9-.7v-.2c-.5.7-1.4 1-2.2 1-.9.1-1.8-.5-1.9-1.5V48c0-1.1.7-1.7 2.2-1.9s1.9-.1 1.9-1c0-.7-.5-1-1.4-1s-1.4.3-1.5 1.2h-1c0-1.3 1-2.1 2.5-2.1.7 0 1.4.2 1.9.6.3.5.5 1 .4 1.6v2.7c0 .5.1.6.4.6h.3v.9zm-3-2.8c-.7.1-1.7.2-1.7 1.2 0 .6.5 1 1.2 1 .9 0 1.9-.7 1.9-1.4v-1.1c-.5.2-.9.3-1.4.3zm5.3-2.4v5.2h-1v-6.1h4.2v.9h-3.2zm9.5 5.2c-.2.1-.4.1-.7.1-.4 0-.8-.3-.9-.7v-.2c-.5.7-1.4 1-2.2 1-.9.1-1.8-.5-1.9-1.5V48c0-1.1.7-1.7 2.2-1.9s1.9-.1 1.9-1c0-.7-.5-1-1.4-1s-1.4.3-1.5 1.2h-1c0-1.3 1-2.1 2.6-2.1.7 0 1.4.2 1.9.6.3.5.5 1 .4 1.6v2.7c0 .5.1.6.4.6h.3l-.1.9zm-3-2.8c-.7.1-1.7.2-1.7 1.2 0 .6.5 1 1.2 1 .9 0 1.9-.7 1.9-1.4v-1.1c-.5.2-.9.3-1.4.3zm6.5-3.5c1.3 0 2.3.5 2.3 1.7 0 .6-.4 1.1-1 1.3.7.1 1.2.8 1.2 1.5 0 1.3-1.2 2-2.5 2-1.6 0-2.6-.8-2.6-2.1h1c.1.9.7 1.3 1.6 1.3s1.5-.5 1.5-1.2-.4-1-1.3-1h-.8V46h.7c.7 0 1.3-.3 1.3-1 0-.5-.5-.9-1.3-.9s-1.5.3-1.5 1.1h-1c-.1-1.4 1.2-1.9 2.4-1.9zm4.1 6.3v-6.1h1v5l2.7-5h1.3v6.1h-1v-5l-2.7 5H164zm7 0v-6.1h1V46h3v-2.5h1v6.1h-1v-2.8h-3v2.8h-1z"/><path class="st0" d="M89.8 25.7c0-.3-.1-.5-.4-.6v-1.2l1.3.9c.2.1.4.1.5-.1.1-.2.1-.4-.1-.5L89.5 23v-1.4l1.8 1.3c.1.1.3.1.4 0 .1-.1.2-.2.2-.4l-.2-2.2 1.1.7.2 2.1c0 .2.2.3.4.3s.4-.2.3-.4l-.1-1.6 1 .6c0 .3.1.5.4.6.4.2.8.1 1-.3.2-.4.1-.8-.3-1-.2-.1-.5-.1-.7 0l-1-.6 1.5-.6c.2-.1.3-.3.2-.5-.1-.2-.3-.3-.5-.2l-2 .8-1.2-.4 2.1-.9c.1-.1.2-.2.2-.3 0-.1-.1-.3-.2-.3l-2-.9.6-.3.5-.3 1.9.9c.2.1.4 0 .5-.2.1-.2 0-.4-.2-.5l-1.4-.6 1-.6c.2.1.5.1.7 0 .4-.2.5-.6.3-1s-.6-.5-1-.3c-.2.1-.4.4-.4.6l-1 .6.2-1.6c0-.2-.1-.4-.3-.4-.2 0-.4.1-.4.3l-.3 2.1-1.2.7.3-2.3c0-.1-.1-.3-.2-.4-.1-.1-.3-.1-.4 0l-1.8 1.3v-1.2l1.7-1.2c.2-.1.2-.3.1-.5s-.3-.2-.5-.1l-1.3.9v-1.2c.2-.1.4-.4.4-.6 0-.4-.3-.7-.7-.7-.4 0-.7.3-.8.7 0 .3.1.5.4.6v1.2l-1.3-.9c-.2-.1-.4-.1-.5.1-.1.2-.1.4.1.5l1.7 1.2v1.3L87 14c-.1-.1-.3-.1-.4 0s-.2.2-.2.4l.2 2.3-1.1-.7-.2-2.1c0-.2-.2-.3-.4-.3s-.4.2-.3.4l.1 1.6-1-.6c0-.3-.1-.5-.4-.6-.4-.2-.8-.1-1 .3-.2.4-.1.8.3 1 .2.1.5.1.7 0l1 .6-1.5.6c-.2.1-.3.3-.2.5.1.2.3.3.5.2l2-.8 1 .6-2.1.9c-.1.1-.2.2-.2.3 0 .1.1.3.2.3l2.1.9-.6.4-.5.3-1.9-.9c-.2-.1-.4 0-.5.2-.1.2 0 .4.2.5l1.4.7-1 .6c-.2-.1-.5-.1-.7 0-.4.2-.5.6-.3 1s.6.5 1 .3c.2-.1.4-.4.4-.6l1-.6-.2 1.6c0 .2.1.4.3.4.2 0 .4-.1.4-.3l.3-2.1.7-.4.4-.2-.3 2.2c0 .1.1.3.2.4.1.1.3.1.4 0l1.9-1.4v1.4l-1.7.9c-.2.1-.2.3-.1.5s.3.2.5.1l1.3-.9V25c-.2.1-.4.4-.4.6 0 .4.3.7.7.7.4.1.8-.2.8-.6zm-.3-4.9v-1.6l1.1.7.2.1.2 1.9-1.5-1.1zm3.6-2.3l-1.9.8-.2-.1-1.1-.7 1.5-.8 1.7.8zm-2.2-1.3l-1.4.8v-1.7l1.6-1.1-.2 2zm-2.1-.9v1.6l-1.1-.7-.3-.2-.2-2 1.6 1.3zm-3.6 2.2l1.8-.8.3.2 1.1.7-1.4.8-1.8-.9zm1.9 3.4l.2-1.9 1.4-.8v1.5l-1.6 1.2z"/><path d="M94.3 3.2c-1.9-1.6-4.6 1.3-4.8 3.2-.2-1.9-2.8-4.8-4.8-3.2-1.8 1.5.6 3.8 2.6 4.4-.2-.1-.5-.2-.8-.3-1.4-.5-2.4-1.2-3.6-1.6-2.1-.7-3.4-.5-5.4.3l1.2 2.2c2.7-1.5 6.8-.2 9.8 0h2c3-.2 7.1-1.5 9.8 0l1.2-2.2c-2-.8-3.3-.9-5.4-.3-1.2.4-2.3 1.1-3.6 1.6-.3.1-.5.2-.8.3 2.1-.6 4.4-2.9 2.6-4.4zm-4.8 3.6zm-.7.3c-.9.7-3.9-1.3-2.5-2.4 1.3-1.1 3.3 1.7 2.5 2.4zm1.5 0c-.9-.7 1.1-3.5 2.5-2.4s-1.6 3.1-2.5 2.4z" fill-rule="evenodd" clip-rule="evenodd" fill="#fefefe"/></svg>