<svg xmlns="http://www.w3.org/2000/svg" width="48" height="48" viewBox="0 0 48 48"><g fill="none" fill-rule="evenodd"><rect width="48" height="48" fill="#132D52" rx="8"/><path fill="#FEFEFE" d="M32.336 12.55l6.8-7.948-7.424 7.363L30.325 4l.54 8.088-7.961-4.144 7.093 4.598 1.04.112.267.032 1.15.72 6.069.074-6.187-.93zm-15.392 4.575l6.732 1.386v-.018l.374.082v.005l.013-.002.014.002v-.005l.373-.082v.018l6.731-1.386 1.605-2.094-1.922-1.2s-3.643-.413-6.787-.498v-.001l-.014.001-.013-.001v.001c-3.146.085-6.789.498-6.789.498l-1.921 1.2 1.604 2.094zm15.537 5.169l-5.525 14.511 10.117-16.538zm-1.515-3.762l-6.243 1.283v2.774l6.503-1.318zm-6.243 20.39l6.18-16.243-6.18 1.27zm7.801-18.084l4.603-2.046-3.324-2.893-1.556 2.029zm-16.922 0l.276-2.91-1.555-2.029L11 18.792zm7.808-1.02l-6.25-1.287-.26 2.738 6.51 1.321zm0 4.132l-6.187-1.272 6.187 16.263zm-7.765-1.656l-4.592-2.027L21.17 36.805z"/></g></svg>