<svg xmlns="http://www.w3.org/2000/svg" width="23" height="23"><g fill="none" fill-rule="evenodd"><path d="M0 0h24v24H0z"/><path fill="#394791" d="M9.983 20.468a1.18 1.18 0 0 0-.45 1.6 1.183 1.183 0 0 0 1.606.45 1.175 1.175 0 0 0 .445-1.6 1.172 1.172 0 0 0-1.601-.45zm5.631 0a1.18 1.18 0 0 0-.45 1.6 1.183 1.183 0 0 0 1.602.45 1.172 1.172 0 0 0 .445-1.6 1.164 1.164 0 0 0-1.597-.45zm5.637 0a1.171 1.171 0 0 0-.45 1.6 1.18 1.18 0 0 0 1.601.45 1.176 1.176 0 0 0 .445-1.6 1.166 1.166 0 0 0-1.596-.45zM10.686 15.32a1.178 1.178 0 1 0 1.156 2.055 1.174 1.174 0 0 0 .44-1.606 1.173 1.173 0 0 0-1.596-.45zm9.861 0a1.179 1.179 0 0 0-.45 1.6 1.18 1.18 0 0 0 1.606.455 1.177 1.177 0 0 0 .44-1.606 1.174 1.174 0 0 0-1.596-.45zm-4.933 0a1.178 1.178 0 1 0 1.152 2.055 1.176 1.176 0 0 0 .445-1.606 1.172 1.172 0 0 0-1.597-.45zm4.203-4.754a1.18 1.18 0 0 0-.45 1.601 1.17 1.17 0 0 0 1.601.45 1.17 1.17 0 0 0 .445-1.601 1.168 1.168 0 0 0-1.596-.45zm-4.203 0a1.18 1.18 0 0 0-.45 1.601c.317.57 1.038.771 1.602.45a1.17 1.17 0 0 0 .445-1.601 1.172 1.172 0 0 0-1.597-.45zm-4.198 0a1.18 1.18 0 0 0-.45 1.601 1.173 1.173 0 1 0 2.046-1.152 1.17 1.17 0 0 0-1.596-.449z"/><path stroke="#394791" d="M1.016 20.68c.087-.922.688-15.305 9.818-19.163 4.285-1.61 9.864.692 10.712 4.853.335 1.634-.853 1.652-1.128 1.707 0 0-2.22.408-5.941.165-2.079-.096-2.538-.302-3.06-.812-.666-.642-1.285-.766-2.024-.096-.936.849-5.166 5.313-5.381 13.31-.088 1.32-.395 1.591-1.542 1.614 0 0-1.647.211-1.454-1.578"/></g></svg>