<svg xmlns="http://www.w3.org/2000/svg" width="48" height="48"><g fill="none" fill-rule="evenodd"><rect width="48" height="48" fill="#132D52" rx="8"/><path fill="#FFF" d="M19.882 22.007c-.05-.533-.398-8.855-5.68-11.087-2.48-.932-5.707.4-6.198 2.808-.194.945.494.956.653.988 0 0 1.285.236 3.437.095 1.203-.055 1.468-.175 1.77-.47.386-.371.744-.443 1.172-.055.541.49 2.988 3.074 3.113 7.7.05.765.228.921.892.934 0 0 .953.123.841-.913M9.265 17.082a.678.678 0 0 1-.926.26.677.677 0 0 1-.258-.926.676.676 0 0 1 .924-.26c.326.186.443.6.26.926"/><path fill="#FFF" d="M11.696 17.082a.678.678 0 0 1-.926.26.677.677 0 0 1-.258-.926.678.678 0 0 1 .924-.26c.327.186.443.6.26.926m2.43 0a.68.68 0 1 1-1.188-.663.68.68 0 0 1 1.187.663m-5.283 2.75a.683.683 0 0 1-.929.263.681.681 0 0 1-.255-.929.68.68 0 1 1 1.184.666m2.854 0a.68.68 0 0 1-1.184-.666.678.678 0 0 1 .924-.26.684.684 0 0 1 .26.926m2.852 0a.679.679 0 1 1-1.184-.666.678.678 0 1 1 1.184.666m.407 2.979a.68.68 0 1 1-1.187-.666.681.681 0 0 1 1.186.666m-3.258 0a.678.678 0 1 1-1.184-.666.673.673 0 0 1 .924-.26c.327.183.443.6.26.926m-3.26 0a.683.683 0 0 1-.927.26.68.68 0 0 1-.257-.926.675.675 0 0 1 .923-.26c.33.185.446.597.26.926m31.78-10.244a2.012 2.012 0 1 1-4.023 0 2.012 2.012 0 0 1 4.023 0m-9.41 10.104a.906.906 0 1 1-1.56-.924l.86-1.45a.91.91 0 0 1 1.242-.315c.428.258.57.812.319 1.242l-.86 1.447zm7.264 0a.902.902 0 0 0 1.24.316.902.902 0 0 0 .318-1.24l-.855-1.45a.916.916 0 0 0-1.245-.315.91.91 0 0 0-.315 1.242l.857 1.447z"/><path fill="#FFF" d="M40.376 15.827H28.662c-.576 0-.854.385-.854.858 0 .228.233.605.233.605s.658.974 1.32 1.914c.225.265.482.334.873.194a1.5 1.5 0 0 1 .66-.162c.826 0 1.495.671 1.495 1.497 0 .414.22.685.64.685h2.81c.699 0 .646-.67.646-.685 0-.826.669-1.497 1.497-1.497.284 0 .547.082.772.22.717.303 1.057-.345 1.06-.345l1.175-1.739c.154-.273.228-.485.228-.738 0-.472-.366-.807-.84-.807"/><path fill="#B4C0D0" d="M11.987 27.446l9.587 3.939c.555.236.452.624.014.624h-9.78c-.373-.02-.817-.011-.817-.813v-3.334c0-.714.59-.592.996-.416m24.234 0l-9.59 3.939c-.552.236-.449.624-.014.624h9.78c.376-.02.817-.011.817-.813v-3.334c0-.714-.587-.592-.993-.416m-11.564-4.85a.555.555 0 1 1-1.11 0V11.107a.556.556 0 0 1 1.11 0v11.489z"/><path fill="#FFF" d="M13.33 34.89c-.102-.228-.32-.39-.64-.39-.319 0-.54.162-.64.39a.967.967 0 0 0-.082.412h1.446a1.106 1.106 0 0 0-.085-.412zm-1.362 1.065c0 .496.289.85.841.85.239 0 .47-.067.658-.205.149-.106.244-.144.359-.144.18 0 .382.18.382.399 0 .183-.154.342-.374.493-.26.176-.619.26-1.038.26-.905 0-1.765-.411-1.765-1.948 0-1.245.671-1.95 1.659-1.95 1.027 0 1.624.737 1.659 1.7.002.147-.016.311-.13.423-.12.122-.277.122-.417.122h-1.834zm5.517-2.06c.215.109.462.29.462.536 0 .122-.048.22-.136.31a.402.402 0 0 1-.292.125c-.109 0-.196-.031-.329-.13a.723.723 0 0 0-.46-.164.665.665 0 0 0-.535.25c-.146.183-.213.435-.213.833 0 .398.067.66.213.841.138.17.31.25.536.25a.702.702 0 0 0 .46-.16c.13-.095.22-.14.328-.14.114 0 .226.058.292.13a.416.416 0 0 1 .136.31c0 .242-.242.42-.462.542a1.49 1.49 0 0 1-.754.18c-.76 0-1.702-.408-1.702-1.953 0-1.545.945-1.946 1.712-1.946.306 0 .526.056.744.186m2.24 2.688a.59.59 0 0 0 .44.165.593.593 0 0 0 .443-.165c.194-.191.223-.523.223-.924 0-.398-.03-.732-.223-.92a.594.594 0 0 0-.443-.168.592.592 0 0 0-.44.167c-.195.189-.226.523-.226.921 0 .401.031.733.225.924m1.625.557c-.24.253-.613.47-1.184.47-.568 0-.942-.217-1.181-.47-.345-.363-.436-.785-.436-1.48 0-.693.09-1.118.436-1.484.239-.25.613-.468 1.18-.468.572 0 .946.218 1.185.468.345.366.432.79.432 1.483 0 .696-.087 1.118-.432 1.481"/><path fill="#132D52" d="M15.44 32.874c0 .15-.25.273-.555.273-.308 0-.558-.122-.558-.273v-5.641c0-.151.25-.273.558-.273.305 0 .554.122.554.273v5.64z"/></g></svg>