<svg xmlns="http://www.w3.org/2000/svg" width="48" height="48" viewBox="0 0 48 48"><g fill="none" fill-rule="evenodd"><rect width="48" height="48" fill="#132D52" rx="8"/><path fill="#FFF" d="M28.085 36.552a1.106 1.106 0 112.213 0 1.106 1.106 0 01-2.213 0zm.553-3.349a1.106 1.106 0 112.213 0 1.106 1.106 0 01-2.213 0zm-1.075 6.606a1.107 1.107 0 112.212 0 1.107 1.107 0 01-2.212 0zM37.7 36.552a1.107 1.107 0 112.213 0 1.107 1.107 0 01-2.213 0zm-.551-3.349a1.107 1.107 0 112.212 0 1.107 1.107 0 01-2.212 0zm1.075 6.606a1.106 1.106 0 112.213 0 1.106 1.106 0 01-2.213 0zm-5.315 0a1.107 1.107 0 112.212 0 1.107 1.107 0 01-2.212 0zm0-6.606a1.107 1.107 0 112.212 0 1.107 1.107 0 01-2.212 0zm8.094-3.978l-.496.015-2.17.038a265.933 265.933 0 01-8.673 0l-2.168-.038c-.126-.004-.313.01-.537 0a1.036 1.036 0 01-.96-1.025c0-.53.362-.954.934-.998.176-.021.46-.03.692-.045a96.48 96.48 0 012.044-.096A115.39 115.39 0 0134.006 27c1.445 0 2.888.022 4.335.076.722.024 1.445.062 2.167.105.138.01.254.024.529.049.525.092.963.456.963.985 0 .552-.498 1.001-.996 1.01zm-8.094 7.327a1.107 1.107 0 112.212 0 1.107 1.107 0 01-2.212 0zM10.998 11.575a.692.692 0 01-.85 1.089.692.692 0 01.85-1.089zM8.626 9.717c.299.235.352.67.118.97a.687.687 0 01-.969.119.692.692 0 11.85-1.089zm1.677-.467a.69.69 0 11-1.09-.852.69.69 0 011.09.852zm-4.156 1.99a.69.69 0 111.089.852.69.69 0 01-1.09-.852zm6.24 2.3a.689.689 0 01.969-.12c.3.235.354.67.118.972a.69.69 0 11-1.087-.852zm1.014-1.864a.692.692 0 11.118.97.693.693 0 01-.118-.97zm-2.01 3.67a.692.692 0 111.09.852.692.692 0 01-1.09-.852zm-2.615-2.047a.693.693 0 01.97-.12.695.695 0 01.12.972.689.689 0 01-.97.118.693.693 0 01-.12-.97zm3.628-2.403a.69.69 0 11-1.087-.852.687.687 0 01.969-.119c.3.236.352.67.118.97zm9.501 9.11c.339 1.063-.339 1.233-.339 1.233l-.85.383c-.977.554-1.106-.766-1.106-.766-2.038-9.063-8.175-12.488-8.918-12.913-.742-.426-.742-.383-.807-.682-.064-.297-.032-.766-.032-.766.18-.988 1.305-.191 1.305-.191 7.73 4.085 10.408 12.638 10.747 13.701z"/><path stroke="#B4C0D0" stroke-linecap="round" stroke-linejoin="round" d="M11.86 37.04l25.29-26.038"/></g></svg>