<svg xmlns="http://www.w3.org/2000/svg" width="48" height="48" viewBox="0 0 48 48"><g fill="none" fill-rule="evenodd"><rect width="48" height="48" fill="#132D52" rx="8"/><path fill="#FFF" d="M11.122 38.483c0-.325.203-.544.49-.544.249 0 .414.138.45.368a1.22 1.22 0 01.91-.409c.408 0 .755.17 1.015.499.268-.312.696-.499 1.03-.499.796 0 1.343.463 1.343 1.32v1.876c0 .328-.209.545-.493.545-.285 0-.488-.217-.488-.545v-1.706c0-.396-.22-.675-.571-.675-.36 0-.58.28-.58.675v1.706c0 .328-.203.545-.487.545-.287 0-.49-.217-.49-.545v-1.706c0-.396-.217-.675-.572-.675-.4 0-.58.28-.58.675v1.706c0 .328-.203.545-.487.545-.287 0-.49-.217-.49-.545v-2.61zm7.575 2.299c.509 0 .753-.515.753-.986 0-.469-.239-1-.753-1-.536 0-.775.531-.775 1 0 .471.247.986.775.986zm1.736.216c0 .255 0 .64-.471.64-.287 0-.401-.155-.469-.415-.252.3-.558.458-.932.458-.918 0-1.617-.786-1.617-1.885 0-1.076.718-1.896 1.617-1.896.36 0 .715.14.932.45a.467.467 0 01.469-.412c.471 0 .471.39.471.642v2.418zm1.575-1.298l-.829-.932a.572.572 0 01-.149-.355c0-.254.25-.474.502-.474.16 0 .26.068.362.193l.686.853.688-.853c.1-.125.203-.193.36-.193.25 0 .5.22.5.474a.6.6 0 01-.145.355l-.832.932.994 1.13a.568.568 0 01.136.335c0 .284-.198.474-.485.474-.217 0-.304-.095-.406-.217l-.81-.994-.81.994c-.1.122-.19.217-.406.217-.288 0-.485-.19-.485-.474a.54.54 0 01.138-.336l.991-1.13z"/><path fill="#FFF" fill-rule="nonzero" d="M28.291 41.497v-.616H26.63c-.21 0-.367-.048-.472-.143a.496.496 0 01-.064-.65c.03-.048.063-.094.096-.138a38 38 0 01.122-.162l1.755-2.348c.115-.154.21-.266.283-.336a.375.375 0 01.267-.104c.335 0 .503.192.503.576v2.563h.143c.17 0 .306.023.409.07.102.046.154.148.154.304 0 .128-.042.222-.126.28-.084.059-.21.088-.378.088h-.202v.616c0 .17-.037.296-.112.379a.387.387 0 01-.302.124.383.383 0 01-.3-.127c-.076-.085-.114-.21-.114-.376zm-1.423-1.358h1.423v-1.924l-1.423 1.924zm4.937-1.152a.8.8 0 00.524-.18c.147-.118.22-.29.22-.512a.613.613 0 00-.648-.623.847.847 0 00-.333.056.535.535 0 00-.207.15c-.05.061-.099.14-.144.238-.045.097-.087.189-.124.275a.233.233 0 01-.12.109.47.47 0 01-.198.04.343.343 0 01-.244-.108.38.38 0 01-.11-.286c0-.115.034-.236.104-.363.07-.127.17-.248.304-.362.134-.115.3-.207.499-.277.198-.07.42-.104.665-.104.215 0 .41.029.586.087.177.059.33.143.46.254a1.094 1.094 0 01.395.854c0 .22-.048.41-.144.568a1.916 1.916 0 01-.413.462c.173.093.318.199.436.318a1.203 1.203 0 01.356.864 1.463 1.463 0 01-.477 1.084 1.697 1.697 0 01-.558.345 1.973 1.973 0 01-.713.124c-.265 0-.503-.047-.712-.142a1.64 1.64 0 01-.827-.798.96.96 0 01-.104-.378c0-.128.042-.231.124-.31a.433.433 0 01.31-.117.33.33 0 01.179.055c.057.036.095.08.112.13.115.307.238.535.37.684.13.15.316.224.554.224a.834.834 0 00.71-.401.85.85 0 00.125-.46c0-.259-.071-.461-.212-.608-.142-.147-.338-.22-.59-.22-.044 0-.112.004-.205.013a2.526 2.526 0 01-.179.013.402.402 0 01-.281-.09.326.326 0 01-.1-.254c0-.106.04-.191.12-.257.079-.065.197-.097.354-.097h.136z"/><path fill="#FFF" d="M35.78 38.332a.572.572 0 00.564-.563.574.574 0 00-.563-.566.575.575 0 00-.566.566c0 .306.26.563.566.563m0-1.657a1.093 1.093 0 110 2.188 1.091 1.091 0 01-1.094-1.094 1.09 1.09 0 011.094-1.094M23.12 7C15.322 7 9 13.322 9 21.122c0 2.971.683 6.736 4.556 9.891.187.117.36.176.45.076.083-.108.032-.217-.039-.298a5.782 5.782 0 01-.23-.208 2.52 2.52 0 01-.097-.087c-1.168-1.105-3.687-4.009-3.697-8.5 0-6.87 5.568-12.442 12.44-12.442 3.572 0 6.787 1.52 9.054 3.933l2.291-2.162C30.908 8.65 27.133 7 23.122 7"/><path fill="#FFF" d="M28.684 16.966l-.092.084a.197.197 0 01-.016.02l.003-.006-2.603 2.43a.616.616 0 01-.84-.9l2.803-2.614c.106-.124.247-.362.068-.614a8.545 8.545 0 00-1.904-1.311c-4.182-2.105-9.274-.412-11.373 3.77a8.474 8.474 0 1015.149 7.597 8.46 8.46 0 00-.488-8.429c-.284-.292-.558-.149-.707-.027"/><path fill="#B4C0D0" d="M38.508 21.106c-.323-3.86-2.148-7.302-4.827-9.827l-.347-.317-2.285 2.135a12.373 12.373 0 013.773 8.9c0 3.786-2.457 6.944-2.457 6.944-.087.122-.17.239-.255.347-.135.225-.327.71.193 1.21.381.385.888.903 1.427 1.442 0 0 .607.614 1.11.046l.114-.128.025-.032c.904-1.073 1.692-2.484 1.692-2.484 1.346-2.554 2.045-5.081 1.837-8.236"/></g></svg>