<svg xmlns="http://www.w3.org/2000/svg" width="48" height="48"><g fill="none" fill-rule="evenodd"><rect width="48" height="48" fill="#132D52" rx="8"/><path fill="#FFF" d="M11.122 38.483c0-.325.203-.544.49-.544.249 0 .414.138.45.368a1.22 1.22 0 0 1 .91-.409c.408 0 .755.17 1.015.499.268-.312.696-.499 1.03-.499.796 0 1.343.463 1.343 1.32v1.876c0 .328-.209.545-.493.545-.285 0-.488-.217-.488-.545v-1.706c0-.396-.22-.675-.571-.675-.36 0-.58.28-.58.675v1.706c0 .328-.203.545-.487.545-.287 0-.49-.217-.49-.545v-1.706c0-.396-.217-.675-.572-.675-.4 0-.58.28-.58.675v1.706c0 .328-.203.545-.487.545-.287 0-.49-.217-.49-.545v-2.61zm7.575 2.299c.509 0 .753-.515.753-.986 0-.469-.239-1-.753-1-.536 0-.775.531-.775 1 0 .471.247.986.775.986zm1.736.216c0 .255 0 .64-.471.64-.287 0-.401-.155-.469-.415-.252.3-.558.458-.932.458-.918 0-1.617-.786-1.617-1.885 0-1.076.718-1.896 1.617-1.896.36 0 .715.14.932.45a.467.467 0 0 1 .469-.412c.471 0 .471.39.471.642v2.418zm1.575-1.298l-.829-.932a.572.572 0 0 1-.149-.355c0-.254.25-.474.502-.474.16 0 .26.068.362.193l.686.853.688-.853c.1-.125.203-.193.36-.193.25 0 .5.22.5.474a.6.6 0 0 1-.145.355l-.832.932.994 1.13a.568.568 0 0 1 .136.335c0 .284-.198.474-.485.474-.217 0-.304-.095-.406-.217l-.81-.994-.81.994c-.1.122-.19.217-.406.217-.288 0-.485-.19-.485-.474a.54.54 0 0 1 .138-.336l.991-1.13zm7.726-1.78c0 .425-.181.802-.558 1.04.49.225.832.68.832 1.216 0 .818-.75 1.506-1.715 1.506-1.007 0-1.633-.745-1.633-1.281 0-.268.282-.455.526-.455.46 0 .35.796 1.121.796a.627.627 0 0 0 .637-.634c0-.95-1.154-.252-1.154-1.053 0-.715.967-.233.967-.986 0-.26-.185-.458-.493-.458-.645 0-.556.67-1.019.67-.276 0-.441-.253-.441-.505 0-.53.728-1.102 1.481-1.102.98 0 1.45.715 1.45 1.246m2.073.17c0 .305.179.514.49.514.314 0 .496-.209.496-.515 0-.292-.176-.515-.496-.515s-.49.223-.49.515m-.13 1.975c0 .344.203.677.62.677.388 0 .62-.333.62-.677 0-.431-.246-.683-.62-.683-.395 0-.62.298-.62.683m-1.056.065c0-.545.295-.946.723-1.179-.317-.233-.515-.541-.515-.97 0-.796.658-1.305 1.468-1.305.791 0 1.476.501 1.476 1.306 0 .382-.192.758-.525.97.463.232.728.655.728 1.178 0 .948-.766 1.549-1.679 1.549-.937 0-1.676-.637-1.676-1.55m5.159-1.796a.572.572 0 0 0 .563-.563.574.574 0 0 0-.563-.566.575.575 0 0 0-.566.566c0 .306.26.563.566.563m0-1.657a1.093 1.093 0 1 1 0 2.188 1.091 1.091 0 0 1-1.094-1.094 1.09 1.09 0 0 1 1.094-1.094M23.12 7C15.322 7 9 13.322 9 21.122c0 2.971.683 6.736 4.556 9.891.187.117.36.176.45.076.083-.108.032-.217-.039-.298a5.782 5.782 0 0 1-.23-.208 2.52 2.52 0 0 1-.097-.087c-1.168-1.105-3.687-4.009-3.697-8.5 0-6.87 5.568-12.442 12.44-12.442 3.572 0 6.787 1.52 9.054 3.933l2.291-2.162C30.908 8.65 27.133 7 23.122 7"/><path fill="#FFF" d="M28.684 16.966l-.092.084a.197.197 0 0 1-.016.02l.003-.006-2.603 2.43a.616.616 0 0 1-.84-.9l2.803-2.614c.106-.124.247-.362.068-.614a8.545 8.545 0 0 0-1.904-1.311c-4.182-2.105-9.274-.412-11.373 3.77a8.474 8.474 0 1 0 15.149 7.597 8.46 8.46 0 0 0-.488-8.429c-.284-.292-.558-.149-.707-.027"/><path fill="#B4C0D0" d="M38.508 21.106c-.323-3.86-2.148-7.302-4.827-9.827l-.347-.317-2.285 2.135a12.373 12.373 0 0 1 3.773 8.9c0 3.786-2.457 6.944-2.457 6.944-.087.122-.17.239-.255.347-.135.225-.327.71.193 1.21.381.385.888.903 1.427 1.442 0 0 .607.614 1.11.046l.114-.128.025-.032c.904-1.073 1.692-2.484 1.692-2.484 1.346-2.554 2.045-5.081 1.837-8.236"/></g></svg>