<svg xmlns="http://www.w3.org/2000/svg" width="48" height="48" viewBox="0 0 48 48"><g fill="none" fill-rule="evenodd"><rect width="48" height="48" fill="#132D52" rx="8"/><path fill="#FFF" d="M17.795 47.042l.003-6.119c-.044-1.16-.648-2.193-1.48-2.85-2.572-1.854-4.28-4.849-4.318-8.209v-9.19c0-1.116.754-2.02 1.683-2.02.93 0 1.682.904 1.682 2.02l.003 7.796c0 .447.326.808.731.808.405 0 .731-.361.731-.841V8.754c0-1.116.754-2.02 1.684-2.02.93 0 1.683.904 1.683 2.02l.001 11.355c0 .446.328.806.73.806.405 0 .733-.36.733-.84V7.006c0-1.113.793-2.006 1.773-2.006.976 0 1.774.87 1.774 1.984l.042 12.192c0 .445.328.806.73.806.404 0 .732-.361.732-.84V9.776c0-1.117.794-2.016 1.771-2.016.98 0 1.773.9 1.773 2.016l-.05 11.774.002.21c0 .445.328.806.731.806.405 0 .733-.361.736-.86V14.67c0-1.113.79-2.016 1.773-2.016.976 0 1.768.903 1.768 2.016v8.208l.002 6.962c-.037 3.35-1.778 6.338-4.256 8.2-.83.658-1.48 1.76-1.528 2.922l.01 6.08H17.796z"/><path fill="#132D52" d="M26.819 31.327a.72.72 0 111.44 0 .72.72 0 01-1.44 0m5.286 3.378h-1.373c-.498 0-.771-.077-.982-.275-.268-.235-.418-.714-.418-1.323 0-.525.117-.983.3-1.23.206-.252.513-.36 1.054-.36h1.419v-.684h-1.496c-.546 0-.99.09-1.283.264-.56.33-.901 1.103-.901 2.039 0 .748.211 1.385.593 1.768.348.347.792.484 1.597.484h1.49v-.683zm-14.651-.001h1.918c.367 0 .559-.042.69-.159.131-.11.2-.269.2-.477 0-.254-.102-.46-.283-.564-.131-.077-.344-.11-.663-.11h-1.414v-.69h1.47c.407 0 .559-.03.69-.132a.604.604 0 00.214-.483c0-.241-.104-.435-.29-.525-.118-.062-.282-.083-.578-.083h-1.954v-.69h2.07c.544 0 .821.042 1.048.16.373.193.608.613.608 1.082 0 .47-.214.773-.724 1.015.483.193.724.56.724 1.097 0 .448-.2.815-.56 1.035-.29.173-.537.213-1.254.213h-1.912v-.69zm5.516-3.174c-.215.09-.332.283-.332.54 0 .302.125.489.388.563.123.036.475.064.862.064.483 0 .765-.028.917-.096.214-.1.318-.27.318-.525 0-.298-.145-.496-.414-.58-.14-.041-.469-.07-.808-.07-.427 0-.773.035-.931.104m-.015 1.94c-.213.102-.331.302-.331.579 0 .539.31.712 1.277.712.912 0 1.235-.181 1.235-.698 0-.317-.144-.531-.427-.629-.146-.048-.483-.081-.829-.081-.442 0-.765.041-.925.116m-1.233-1.448c0-.53.268-.92.764-1.104.284-.104.773-.16 1.444-.16.758 0 1.212.07 1.504.221.379.202.606.592.606 1.05 0 .496-.214.8-.725 1.027.25.104.359.173.477.304.165.18.262.448.262.731 0 .531-.304.973-.808 1.167-.296.115-.724.172-1.316.172-.712 0-1.16-.057-1.464-.187-.484-.2-.759-.608-.759-1.104 0-.283.096-.558.269-.752.104-.117.206-.193.456-.331-.518-.248-.71-.531-.71-1.034"/></g></svg>