<svg xmlns="http://www.w3.org/2000/svg" width="48" height="48" viewBox="0 0 48 48"><g fill="none" fill-rule="evenodd" transform="translate(0 -.555)"><rect width="48" height="48" y=".555" fill="#132D52" rx="8"/><path fill="#FEFEFE" d="M23.11 23.393c0 2.681-2.264 5.496-5.752 5.496-2.204 0-3.885-1.374-4.718-3.113 0 0-.048-.026-.15-.326l-.019-.073a5.705 5.705 0 01-.405-2.08c-.009-3.49 3.225-5.469 4.733-10.389.078-.349.294-.598.598-.598.357 0 .522.24.637.598.613 1.927 1.443 3.37 2.254 4.598l-.003-.018s2.825 3.808 2.825 5.905"/><path stroke="#FEFEFE" stroke-width=".326" d="M23.11 23.393c0 2.681-2.264 5.496-5.752 5.496-2.204 0-3.885-1.374-4.718-3.113 0 0-.048-.026-.15-.326l-.019-.073a5.705 5.705 0 01-.405-2.08c-.009-3.49 3.225-5.469 4.733-10.389.078-.349.294-.598.598-.598.357 0 .522.24.637.598.613 1.927 1.443 3.37 2.254 4.598l-.003-.018s2.825 3.808 2.825 5.905z"/><path fill="#B4BFCF" d="M13.057 26.5c.916 1.38 2.416 2.392 4.302 2.392 3.486 0 5.75-2.819 5.75-5.5 0-1.846-.95-3.184-2.097-4.827L13.057 26.5z"/><path stroke="#FEFEFE" stroke-width=".326" d="M13.057 26.5c.916 1.38 2.416 2.392 4.302 2.392 3.486 0 5.75-2.819 5.75-5.5 0-1.846-.95-3.184-2.097-4.827L13.057 26.5z"/><path fill="#FEFEFE" d="M27.321 7.156c0 1.005-.85 2.06-2.157 2.06-.826 0-1.457-.513-1.768-1.167l-.058-.122-.007-.028a2.134 2.134 0 01-.15-.779c-.007-1.31 1.209-2.05 1.774-3.896L25.18 3l.239.224c.229.723.54 1.262.845 1.724l-.002-.006s1.06 1.426 1.06 2.214"/><path stroke="#FEFEFE" stroke-width=".217" d="M27.321 7.156c0 1.005-.85 2.06-2.157 2.06-.826 0-1.457-.513-1.768-1.167l-.058-.122-.007-.028a2.134 2.134 0 01-.15-.779c-.007-1.31 1.209-2.05 1.774-3.896L25.18 3l.239.224c.229.723.54 1.262.845 1.724l-.002-.006s1.06 1.426 1.06 2.214z"/><path fill="#B4BFCF" d="M23.55 8.32c.344.52.907.896 1.615.896 1.307 0 2.157-1.057 2.157-2.062 0-.69-.358-1.193-.787-1.81L23.55 8.32z"/><path stroke="#FEFEFE" stroke-width=".217" d="M23.55 8.32c.344.52.907.896 1.615.896 1.307 0 2.157-1.057 2.157-2.062 0-.69-.358-1.193-.787-1.81L23.55 8.32z"/><path fill="#FEFEFE" d="M35.583 17.913c0 1.675-1.416 3.435-3.595 3.435-1.377 0-2.427-.859-2.947-1.947 0 0-.033-.015-.096-.202l-.012-.049a3.571 3.571 0 01-.252-1.297c-.007-2.184 2.017-3.417 2.958-6.496.049-.217.184-.37.374-.37.22 0 .326.148.398.37.382 1.207.903 2.109 1.409 2.877l-.004-.014s1.767 2.38 1.767 3.693"/><path stroke="#FEFEFE" stroke-width=".326" d="M35.583 17.913c0 1.675-1.416 3.435-3.595 3.435-1.377 0-2.427-.859-2.947-1.947 0 0-.033-.015-.096-.202l-.012-.049a3.571 3.571 0 01-.252-1.297c-.007-2.184 2.017-3.417 2.958-6.496.049-.217.184-.37.374-.37.22 0 .326.148.398.37.382 1.207.903 2.109 1.409 2.877l-.004-.014s1.767 2.38 1.767 3.693z"/><path fill="#B4BFCF" d="M29.302 19.852c.572.866 1.509 1.496 2.688 1.496 2.177 0 3.594-1.762 3.594-3.436 0-1.156-.596-1.99-1.312-3.019l-4.97 4.959z"/><path stroke="#FEFEFE" stroke-width=".261" d="M29.302 19.852c.572.866 1.509 1.496 2.688 1.496 2.177 0 3.594-1.762 3.594-3.436 0-1.156-.596-1.99-1.312-3.019l-4.97 4.959z"/><path fill="#FEFEFE" d="M46.683 41.625A8.17 8.17 0 0047 40.39c-1.926-.77-4.013-1.39-6.582-1.39-3.501 0-6.111 1.15-8.634 2.262-2.44 1.077-4.743 2.092-7.784 2.092-3.04 0-5.345-1.015-7.784-2.092C13.693 40.15 11.083 39 7.582 39c-2.569 0-4.656.621-6.582 1.39.073.423.181.836.317 1.235 1.883-.765 3.83-1.354 6.265-1.354 3.245 0 5.623 1.048 8.141 2.158 2.449 1.08 4.98 2.196 8.277 2.196 3.297 0 5.828-1.116 8.275-2.196 2.518-1.11 4.898-2.158 8.143-2.158 2.433 0 4.382.589 6.265 1.354"/><path fill="#FEFEFE" d="M40.324 35c-3.481 0-6.076 1.149-8.585 2.262-2.426 1.077-4.716 2.092-7.739 2.092-3.023 0-5.315-1.015-7.74-2.092C13.753 36.15 11.158 35 7.677 35c-2.61 0-4.724.648-6.676 1.44v1.373c2.016-.851 4.064-1.542 6.676-1.542 3.226 0 5.59 1.048 8.096 2.16 2.433 1.077 4.95 2.194 8.228 2.194 3.278 0 5.795-1.117 8.23-2.194 2.502-1.112 4.868-2.16 8.094-2.16 2.612 0 4.662.69 6.676 1.542V36.44c-1.953-.792-4.065-1.44-6.677-1.44"/><path fill="#FEFEFE" d="M1 32.44v1.373c2.016-.851 4.064-1.542 6.676-1.542 3.226 0 5.59 1.048 8.096 2.158 2.433 1.08 4.95 2.196 8.228 2.196 3.278 0 5.795-1.116 8.228-2.196 2.504-1.11 4.87-2.158 8.096-2.158 2.612 0 4.662.69 6.676 1.542v-1.372C45.048 31.648 42.936 31 40.324 31c-3.481 0-6.076 1.15-8.585 2.264-2.426 1.075-4.716 2.09-7.739 2.09-3.023 0-5.315-1.015-7.74-2.09C13.753 32.15 11.158 31 7.677 31c-2.61 0-4.724.646-6.676 1.44"/></g></svg>