<svg xmlns="http://www.w3.org/2000/svg" width="48" height="48" viewBox="0 0 48 48"><g fill="none" fill-rule="evenodd"><rect width="48" height="48" fill="#132D52" rx="8"/><path fill="#FEFEFE" d="M36.53 17.25l1.184-1.57a1.317 1.317 0 00-.258-1.841l-2.068-1.556a1.314 1.314 0 00-1.838.256l-.878 1.094c-1.728-1.11-3.628-1.893-5.703-2.259l-.004-3.012 1.35-.002c.73 0 1.317-.59 1.317-1.314v-.732c0-.726-.588-1.314-1.316-1.314h-7.917c-.726 0-1.314.588-1.314 1.314v.732c0 .725.588 1.314 1.314 1.314l1.12.002v2.957c-2.063.384-3.919 1.144-5.579 2.273l-.824-1.053a1.316 1.316 0 00-1.84-.256l-2.068 1.556a1.317 1.317 0 00-.258 1.842l1.13 1.498C10.116 19.767 9 22.964 9 26.443c0 8.45 6.85 15.3 15.3 15.3 8.45 0 15.3-6.85 15.3-15.3 0-3.473-1.126-6.626-3.07-9.193"/><path stroke="#FEFEFE" stroke-width=".288" d="M36.53 17.25l1.184-1.57a1.317 1.317 0 00-.258-1.841l-2.068-1.556a1.314 1.314 0 00-1.838.256l-.878 1.094c-1.728-1.11-3.628-1.893-5.703-2.259l-.004-3.012 1.35-.002c.73 0 1.317-.59 1.317-1.314v-.732c0-.726-.588-1.314-1.316-1.314h-7.917c-.726 0-1.314.588-1.314 1.314v.732c0 .725.588 1.314 1.314 1.314l1.12.002v2.957c-2.063.384-3.919 1.144-5.579 2.273l-.824-1.053a1.316 1.316 0 00-1.84-.256l-2.068 1.556a1.317 1.317 0 00-.258 1.842l1.13 1.498C10.116 19.767 9 22.964 9 26.443c0 8.45 6.85 15.3 15.3 15.3 8.45 0 15.3-6.85 15.3-15.3 0-3.473-1.126-6.626-3.07-9.193z"/><path fill="#132D52" d="M20.78 28.58c.533 0 .971.173 1.198.463.233.3.363.824.363 1.44 0 .518-.105 1.06-.259 1.35-.235.455-.622.657-1.263.657-.574 0-.963-.162-1.196-.51-.212-.307-.341-.888-.341-1.502 0-.44.08-.9.218-1.186.219-.468.656-.711 1.28-.711m.031-.786c-.81 0-1.473.211-1.885.599-.462.43-.72 1.208-.72 2.153 0 1.872.857 2.728 2.711 2.728.826 0 1.392-.202 1.812-.637.446-.464.689-1.209.689-2.13 0-.81-.195-1.507-.543-1.936-.404-.508-1.117-.777-2.064-.777m3.31 5.441h.891v-.955h-.891zm1.902-.002h2.241c.843 0 1.134-.048 1.473-.248.422-.262.657-.687.657-1.217 0-.63-.283-1.059-.85-1.287.6-.282.85-.64.85-1.19 0-.55-.274-1.041-.713-1.267-.266-.139-.59-.188-1.23-.188h-2.428v.81h2.29c.348 0 .544.022.68.095.218.108.34.331.34.616a.707.707 0 01-.251.566c-.154.122-.331.156-.81.156H26.55v.807h1.659c.374 0 .624.042.778.131.21.12.33.362.33.665 0 .24-.079.426-.234.555-.154.139-.38.19-.81.19h-2.249v.806zm-1.992-17.546l.228-.23h.346l.232.23v7.674l-.232.228h-.346l-.228-.228zm8.023 2.716h.324l.245.242v.327l-5.425 5.426h-.326l-.244-.245v-.326z"/></g></svg>