<svg id="_1" data-name="1" xmlns="http://www.w3.org/2000/svg" viewBox="0 0 176 52"><defs><style>.cls-1{fill:#122d52}</style></defs><path class="cls-1" d="M24 16.61v9.28a16.13 16.13 0 01-6.31 1.33c-5.41 0-9.21-4.2-9.21-10.17C8.49 10.61 13 6.13 19.55 6.13c3.65 0 7.25 1 11.63 3.29V3.25C25.59 1 22.83.3 18.7.3 7.29.3 0 6.79 0 17c0 9.67 7.07 16.1 17.71 16.1a30.51 30.51 0 0014.46-3.94V16.61zM38.94 1.2v31h8V7h3.46C55 7 57 8.5 57 11.74S54.73 17 50.74 17h-2.66l11.15 15.15h10.26L59.26 19.71a9.21 9.21 0 005.83-8.81c0-6.56-4.23-9.7-13-9.7zm74.74 0v30.95h8.03V18.92h14.19v13.23h8.03V1.2h-8.03v11.44h-14.19V1.2h-8.03zm38.82 0v30.95h23.1v-6.06h-15.08v-7.36h11.09V12.9h-11.09V7.26h13.33V1.2H152.5z"/><path d="M70.09 16.68c0 9.62 8 16.67 18.93 16.67S108 26.3 108 16.68 100 0 89 0 70.09 7 70.09 16.68zm8.47 0c0-6.39 4.3-10.85 10.46-10.85s10.47 4.47 10.47 10.86S95.18 27.53 89 27.53s-10.45-4.47-10.44-10.85z" fill-rule="evenodd" fill="#122d52"/><path class="cls-1" d="M3.6 49.82c-1.89 0-2.89-1.29-2.89-3.15 0-2 1.13-3.32 2.92-3.32a2.34 2.34 0 012.58 2.17h-1a1.47 1.47 0 00-1.53-1.33c-1.16 0-1.89.92-1.89 2.39S2.44 49 3.57 49a1.62 1.62 0 001.66-1.56h1a2.53 2.53 0 01-2.63 2.38zm4.15-.18v-6.11h5v6.11h-1v-5.22h-3v5.23zm9.5.2c-1.79 0-2.86-1.19-2.86-3.18s1.14-3.32 2.83-3.32c2 0 2.76 1.6 2.76 3.37v.14H15.4v.07A1.84 1.84 0 0017.29 49a1.54 1.54 0 001.64-1.3h1a2.47 2.47 0 01-2.68 2.14zm-.06-5.66A1.84 1.84 0 0015.4 46h3.53c-.09-1.12-.74-1.82-1.74-1.82zm9.08 5.46h-4.83v-6.11h1v5.23h3v-5.23h1v5.23h.79v2.83h-1zm2.29 0v-6.11h1v5l2.73-5h1.31v6.11h-1v-5l-2.73 5zm12.34-.02a2 2 0 01-.68.12.81.81 0 01-.88-.9 2.7 2.7 0 01-2.2 1 1.71 1.71 0 01-1.94-1.73c0-1.09.72-1.73 2.16-1.91s1.94-.14 1.94-1c0-.65-.48-1-1.38-1s-1.41.34-1.51 1.24h-1c0-1.3 1-2.07 2.55-2.07a2.81 2.81 0 011.91.59 2.11 2.11 0 01.41 1.59v2.73c0 .45.11.6.41.6a.93.93 0 00.25 0zm-3-2.78c-.73.09-1.72.18-1.72 1.16 0 .63.46 1 1.21 1 .94 0 1.85-.65 1.85-1.43v-1.1a2.79 2.79 0 01-1.3.36zm9.42 2.8h-1v-5.22h-2.17l-.08 2.7c-.06 2-.84 2.65-1.69 2.65a2 2 0 01-.72-.13v-.82a1.38 1.38 0 00.53.08c.4 0 .85-.35.88-1.68l.11-3.7h4.14zm1.89 0v-6.11h1v5l2.73-5h1.28v6.11h-1v-5l-2.73 5zm9.18-6.29c1.25 0 2.29.51 2.29 1.65a1.3 1.3 0 01-1 1.29 1.44 1.44 0 011.18 1.52c0 1.33-1.24 2-2.52 2-1.59 0-2.57-.77-2.64-2.1h1c.06.88.72 1.28 1.61 1.28s1.5-.53 1.5-1.16-.36-1-1.3-1h-.84V46h.67c.71 0 1.29-.27 1.29-1 0-.45-.46-.88-1.29-.88s-1.46.3-1.54 1.13h-1c.11-1.46 1.36-1.9 2.59-1.9zm4.07 6.29v-6.11h1v5l2.73-5h1.31v6.11h-1v-5l-2.73 5zm7.9-5.25a2.2 2.2 0 012.05-1.06c1.7 0 2.77 1.23 2.77 3.21s-1.06 3.25-2.72 3.25a2.29 2.29 0 01-2-1V52h-1v-8.47h.94zm0 2.17c0 1.48.73 2.38 1.91 2.38s1.85-.91 1.85-2.38-.71-2.38-1.89-2.38-1.85.9-1.85 2.38zm12.02-.01c0 2.07-1.07 3.28-2.92 3.28s-3-1.21-3-3.22 1.14-3.26 3-3.26 2.92 1.17 2.92 3.2zm-4.86 0c0 1.5.72 2.39 1.94 2.39s1.89-.9 1.89-2.41-.73-2.38-1.91-2.38-1.91.98-1.91 2.44zM84 43.53h2.82c1.06 0 2.09.24 2.09 1.48a1.36 1.36 0 01-.9 1.31 1.41 1.41 0 011.16 1.5 1.76 1.76 0 01-1.85 1.8H84zm3.86 1.65c0-.51-.27-.78-1.15-.78h-1.78V46h1.73c.86 0 1.16-.3 1.16-.83zm-2.89 3.6h2.14a1 1 0 001-1c0-.56-.35-.91-1.18-.91h-2zm11.12.84a2 2 0 01-.68.12.81.81 0 01-.88-.9 2.7 2.7 0 01-2.2 1 1.71 1.71 0 01-1.94-1.73c0-1.09.72-1.73 2.16-1.91s1.94-.14 1.94-1c0-.65-.48-1-1.38-1s-1.41.34-1.51 1.24h-1c0-1.3 1-2.07 2.54-2.07a2.81 2.81 0 011.91.59 2.11 2.11 0 01.41 1.59v2.73c0 .45.11.6.41.6a.93.93 0 00.25 0zm-3-2.78c-.73.09-1.72.18-1.72 1.16 0 .63.46 1 1.21 1 .94 0 1.85-.65 1.85-1.43v-1.1a2.79 2.79 0 01-1.29.36zm4.35 2.8v-6.11h1V46h3v-2.47h1v6.11h-1v-2.8h-3v2.8zm6.96 0v-6.11h1V46h3v-2.47h1v6.11h-1v-2.8h-3v2.8zm9.85 0h-2.93v-6.11h1v2.33h1.89a1.89 1.89 0 110 3.78zm-1.93-2.91v2h1.57c.82 0 1.26-.37 1.26-1s-.42-1-1.26-1zm5.83-3.2v6.11h-1v-6.11zm1.91 6.11v-6.11h1v5l2.73-5h1.28v6.11h-1v-5l-2.73 5zm2.53-6.8a1.77 1.77 0 01-1.79-1.63h.6a1.21 1.21 0 002.36 0h.6a1.74 1.74 0 01-1.77 1.63zm13.69 6.8v-4.82l-1.8 4.82h-.92l-1.8-4.82v4.82h-1v-6.11h1.44l1.85 5 1.85-5h1.44v6.11zm8.27-.02a2 2 0 01-.68.12.81.81 0 01-.88-.9 2.7 2.7 0 01-2.2 1 1.71 1.71 0 01-1.94-1.73c0-1.09.72-1.73 2.16-1.91s1.94-.14 1.94-1c0-.65-.48-1-1.38-1s-1.41.34-1.51 1.24h-1c0-1.3 1-2.07 2.54-2.07a2.81 2.81 0 011.91.59 2.11 2.11 0 01.41 1.59v2.73c0 .45.11.6.41.6a.93.93 0 00.25 0zm-3-2.78c-.73.09-1.72.18-1.72 1.16 0 .63.46 1 1.21 1 .94 0 1.85-.65 1.85-1.43v-1.1a2.79 2.79 0 01-1.29.36zm5.38-2.42v5.23h-1v-6.12h4.17v.89zm9.43 5.2a2 2 0 01-.68.12.81.81 0 01-.88-.9 2.7 2.7 0 01-2.2 1 1.71 1.71 0 01-1.94-1.73c0-1.09.72-1.73 2.16-1.91s1.94-.14 1.94-1c0-.65-.48-1-1.38-1s-1.41.34-1.51 1.24h-1c0-1.3 1-2.07 2.55-2.07a2.81 2.81 0 011.91.59 2.11 2.11 0 01.41 1.59v2.73c0 .45.11.6.41.6a.93.93 0 00.25 0zm-3-2.78c-.73.09-1.72.18-1.72 1.16 0 .63.46 1 1.21 1 .94 0 1.85-.65 1.85-1.43v-1.1a2.79 2.79 0 01-1.3.36zm6.57-3.49c1.25 0 2.29.51 2.29 1.65a1.3 1.3 0 01-1 1.29 1.44 1.44 0 011.18 1.52c0 1.33-1.24 2-2.52 2-1.59 0-2.57-.77-2.64-2.1h1c.06.88.72 1.28 1.61 1.28s1.5-.53 1.5-1.16-.36-1-1.3-1h-.84V46h.67c.71 0 1.29-.27 1.29-1 0-.45-.46-.88-1.29-.88s-1.46.3-1.54 1.13h-1c.11-1.46 1.36-1.9 2.59-1.9zm4.07 6.29v-6.11h1v5l2.73-5H169v6.11h-1v-5l-2.73 5zm7 0v-6.11h1V46h3v-2.47h1v6.11h-1v-2.8h-3v2.8z"/></svg>