<svg xmlns="http://www.w3.org/2000/svg" width="632" height="120" viewBox="0 0 632 120"><path fill="#9E9E9E" d="M86.357 59.766h29.397v45.158a109.781 109.781 0 01-52.03 14.176C25.44 119.1 0 95.964 0 61.17 0 24.431 26.23 1.08 67.286 1.08c14.86 0 24.792 2.518 44.906 10.614v22.201c-15.76-8.24-28.714-11.838-41.847-11.838-23.568 0-39.796 16.12-39.832 39.292 0 21.482 13.673 36.594 33.14 36.594a58.039 58.039 0 0022.704-4.786v-33.39zm53.757-55.448h47.316c31.557 0 46.777 11.298 46.777 34.902a33.14 33.14 0 01-20.978 31.7l36.81 44.762h-36.918l-40.12-54.513h9.572c14.357 0 22.524-7.268 22.524-18.926 0-11.658-7.196-17.056-23.748-17.056H168.9v90.675h-28.785V4.318zm268.93 0h28.893V45.48h51.059V4.318h28.893v111.364h-28.893V68.078h-51.059v47.604h-28.894V4.318zm139.682 0h76.821v21.805h-47.964v20.294h39.904v20.977h-39.904v26.483h54.261v21.805h-83.118V4.318zm-296.528 55.7C252.198 25.188 280.66 0 320.24 0s68.366 25.403 68.366 60.018S359.64 120 320.312 120c-39.328 0-68.114-25.367-68.114-59.982zm30.477 0c-.036 22.957 15.328 39.04 37.565 39.04s37.745-16.012 37.745-39.004c0-22.993-15.508-39.076-37.673-39.076-22.165 0-37.637 16.047-37.637 39.04z" opacity=".119"/></svg>