<svg xmlns="http://www.w3.org/2000/svg" width="46" height="46" viewBox="0 0 46 46"><g fill="#31B64B" fill-rule="evenodd"><rect width="30" height="30" x="8" y="8" fill-opacity=".146" stroke="#31B64B" stroke-width="2" rx="4" transform="rotate(45 23 23)"/><path fill-rule="nonzero" d="M18.373 26.003H17.14l-2.862-3.915v3.915H13V20h1.314l2.781 3.771V20h1.278v6.003zm5.436 0h-4.248V20h4.248v1.125h-2.97v1.269h2.907v1.125h-2.907v1.359h2.97v1.125zm6.948 0h-1.359l-1.053-4.122-1.044 4.122h-1.359L24.223 20h1.431l1.053 4.338L27.85 20h.999l1.134 4.338L31.027 20h1.44l-1.71 6.003z"/></g></svg>