<svg xmlns="http://www.w3.org/2000/svg" width="46" height="46"><g fill="#394791" fill-rule="evenodd"><rect width="30" height="30" x="8" y="8" fill-opacity=".165" stroke="#394791" stroke-width="2" rx="4" transform="rotate(45 23 23)"/><path d="M17.276 25.543h5.087V30H17.99a.716.716 0 0 1-.715-.708v-3.749zM23.638 30v-4.457h5.087v3.75a.716.716 0 0 1-.715.707h-4.372zm2.224-10.819a.957.957 0 1 0 0-1.906c-1.088 0-1.702 1.128-2.006 1.906h2.006zm-5.724 0h2.006c-.303-.785-.917-1.905-2.006-1.905a.956.956 0 1 0 0 1.906zm9.162 0c.389 0 .7.459.7 1.019v3.057c0 .56-.311 1.019-.7 1.019h-5.662V19.18h-1.276v5.095H16.7c-.389 0-.7-.46-.7-1.02V20.2c0-.56.311-1.019.7-1.019h1.432a2.173 2.173 0 0 1-.226-.957A2.231 2.231 0 0 1 20.138 16 3.274 3.274 0 0 1 23 17.999 3.275 3.275 0 0 1 25.862 16c1.23 0 2.229.995 2.232 2.224a2.183 2.183 0 0 1-.225.957H29.3z"/></g></svg>