<svg xmlns="http://www.w3.org/2000/svg" width="24" height="24" viewBox="0 0 24 24"><g fill="none" fill-rule="evenodd"><path d="M0 0h24v24H0z"/><path fill="#394791" fill-rule="nonzero" d="M19.313 0c.512 0 1.015.082 1.496.244a.468.468 0 01.244.699l-.06.075-1.915 1.944v.944l1.026 1.063h.931L22.98 3.01a.468.468 0 01.777.18 4.693 4.693 0 01-5.42 6.082l-.238-.056-2.776 2.776.689.632.288-.289a.469.469 0 01.723.59l-.06.073-.26.26 6.46 5.926.015.014a2.812 2.812 0 11-3.978 3.978l-.007-.007-.007-.007-5.937-6.45-.263.264a.47.47 0 01-.724-.59l.06-.073.291-.29-.633-.688-2.762 2.762a4.635 4.635 0 01-.725 3.95A4.635 4.635 0 014.687 24a4.675 4.675 0 01-1.496-.245.468.468 0 01-.242-.702l.061-.075 1.959-1.943v-.937L3.9 19.031h-.936L1.02 20.989a.469.469 0 01-.777-.18A4.674 4.674 0 010 19.312c0-1.527.711-2.913 1.952-3.804a4.635 4.635 0 013.71-.783l.24.058 3.44-3.44-5.753-5.765H2.458a.47.47 0 01-.355-.162l-.047-.066L.067 2.036a.47.47 0 01.013-.503l.058-.07L1.463.137c.13-.13.323-.17.491-.11l.082.04 3.315 1.989c.117.07.197.188.22.32l.007.082v1.131l5.753 5.766 3.453-3.453a4.633 4.633 0 01.723-3.949A4.636 4.636 0 0119.313 0zm-3.274 13.922l-2.128 2.127 5.957 6.47a1.875 1.875 0 002.766-2.525l-.114-.126-6.481-5.946zM19.312.938A3.71 3.71 0 0016.268 2.5a3.71 3.71 0 00-.51 3.385.469.469 0 01-.113.481L6.85 15.161l-.483.484a.468.468 0 01-.481.112 3.712 3.712 0 00-3.387.512 3.706 3.706 0 00-1.562 3.043l.006.205.016.204 1.477-1.49a.47.47 0 01.241-.129l.092-.009h1.326c.094 0 .184.028.26.08l.072.058 1.342 1.342c.066.065.11.149.128.24l.01.091v1.326a.469.469 0 01-.08.261l-.06.072L4.28 23.04c.135.015.271.022.408.022 1.221 0 2.33-.57 3.044-1.562.714-.995.9-2.229.511-3.386a.469.469 0 01.113-.481l.093-.093 9.185-9.185a.47.47 0 01.481-.113 3.754 3.754 0 004.948-3.554l-.005-.206-.017-.203-1.477 1.489a.468.468 0 01-.24.129l-.092.01h-1.326a.469.469 0 01-.281-.094l-.057-.05-1.295-1.342a.468.468 0 01-.123-.236l-.008-.09V2.77c0-.092.027-.181.077-.257l.057-.072L19.733.96a3.83 3.83 0 00-.42-.022zm-2.757 15.618c.179-.18.47-.18.649 0l4.135 4.132a.459.459 0 01-.648.651l-4.135-4.132a.46.46 0 01-.001-.65zm-8.344-1.398a.632.632 0 11-.001 1.264.632.632 0 010-1.264zm6.448-2.503l-2.016 2.016.632.688 2.072-2.072-.688-.632zm.371-3.685a.435.435 0 01.056.547l-.056.068-5.445 5.445a.435.435 0 01-.671-.547l.055-.068 5.446-5.445c.17-.17.445-.17.615 0zM1.868 1.06l-.809.807 1.664 2.778h1.06a.47.47 0 01.26.075l.072.058 5.89 5.903.663-.663-5.89-5.904a.469.469 0 01-.128-.239l-.01-.092v-1.06L1.869 1.06zm13.921 6.519a.63.63 0 11.002 1.262.63.63 0 01-.002-1.262z"/></g></svg>