<svg xmlns="http://www.w3.org/2000/svg" width="82" height="80"><g clip-path="url(#clip-BDF10959-FA0F-4E9C-A34D-756C37FAF780)"><path fill="#fff" d="M81.171 72.663c.712 6.607-5.37 5.828-5.37 5.828-4.235-.085-5.37-1.085-5.691-5.963-.796-29.526-16.415-46.008-19.87-49.142-2.728-2.473-5.014-2.015-7.47.356-1.932 1.88-3.626 2.643-11.3 2.998-13.737.898-21.936-.61-21.936-.61-1.016-.203-5.404-.27-4.167-6.3C8.5 4.464 29.099-4.04 44.92 1.906 78.63 16.153 80.849 69.26 81.17 72.663m-67.758-31.43a4.324 4.324 0 0 1-5.912 1.66 4.323 4.323 0 0 1-1.643-5.913c1.152-2.1 3.795-2.829 5.895-1.66 2.084 1.186 2.829 3.829 1.66 5.912m15.517 0a4.324 4.324 0 0 1-5.912 1.66 4.323 4.323 0 0 1-1.643-5.912c1.152-2.083 3.794-2.829 5.895-1.66 2.083 1.186 2.829 3.829 1.66 5.912m15.5 0a4.34 4.34 0 0 1-5.93 1.66 4.332 4.332 0 0 1-1.626-5.912 4.32 4.32 0 0 1 5.895-1.66c2.084 1.186 2.83 3.829 1.66 5.912M10.71 58.783c-1.168 2.1-3.826 2.846-5.925 1.677a4.349 4.349 0 0 1-1.625-5.929 4.33 4.33 0 0 1 5.891-1.66c2.082 1.203 2.844 3.846 1.66 5.912m18.22 0c-1.169 2.1-3.845 2.846-5.912 1.677a4.342 4.342 0 0 1-1.643-5.929c1.152-2.083 3.794-2.829 5.895-1.66 2.083 1.203 2.829 3.846 1.66 5.912m18.196 0c-1.169 2.118-3.845 2.846-5.929 1.677a4.333 4.333 0 0 1-1.626-5.929 4.33 4.33 0 0 1 5.895-1.66c2.084 1.203 2.829 3.829 1.66 5.912m2.597 19.008c-1.169 2.1-3.828 2.812-5.929 1.66-2.083-1.186-2.829-3.828-1.643-5.912 1.186-2.1 3.828-2.846 5.912-1.66 2.084 1.186 2.829 3.828 1.66 5.912m-20.793 0c-1.169 2.084-3.829 2.812-5.912 1.66-2.1-1.186-2.829-3.845-1.643-5.912 1.152-2.1 3.794-2.846 5.895-1.66a4.354 4.354 0 0 1 1.66 5.912m-20.81 0c-1.152 2.084-3.812 2.812-5.912 1.66-2.084-1.186-2.83-3.845-1.643-5.912a4.305 4.305 0 0 1 5.895-1.66 4.324 4.324 0 0 1 1.66 5.912"/></g></svg>