<svg xmlns="http://www.w3.org/2000/svg" width="36" height="34" viewBox="0 0 36 34"><g fill="none" fill-rule="evenodd" stroke="#394791" stroke-linecap="round" stroke-linejoin="round"><path stroke-width=".5" d="M21.995 28.612a.505.505 0 00-.072.101.297.297 0 00-.032.207.344.344 0 00.04.104.49.49 0 00.078.105 1.29 1.29 0 00.255.197 3.1 3.1 0 00.413.201c.085.035.172.067.26.097.204.068.411.127.62.18.246.06.493.112.742.16.281.052.563.096.847.134.747.098 1.497.164 2.25.198a28.21 28.21 0 002.85-.016c.43-.025.86-.06 1.286-.113.369-.042.735-.1 1.1-.175a8.12 8.12 0 00.484-.116c.138-.036.275-.08.41-.128.143-.05.283-.114.418-.186a1.403 1.403 0 00.213-.149.653.653 0 00.127-.154.347.347 0 00.037-.159.323.323 0 00-.018-.087.519.519 0 00-.098-.158l-.012-.013"/><path d="M2.915 22.179H.333h2.582zm0 2.892H.333h2.582zm.034-3.951h2.219c1.165 0 2.11 1.121 2.11 2.505 0 1.383-.945 2.504-2.11 2.504H2.949v-5.01zm11.547 1.76c0 1.854.455 3.019-.015 4.195-.613 1.536-3.108 2.046-4.267.897-1.25-1.24.377-4.347-2.936-4.347l7.218-.744zm1.935 0c-.104 3.006 1.557 3.93.68 5.28-.661 1.017-3.328 1.323-3.153 2.036.459 1.869 4.747-.92 7.661.427l-5.188-7.742zm5.21 8.197l-.011-1.966-.01-.012c.003-.094.057-.19.166-.292l.245-.232.006-.004c.064-.058.134-.108.21-.151a3.21 3.21 0 01.387-.179 4.99 4.99 0 01.57-.174c.21-.054.422-.098.635-.136.268-.05.537-.088.807-.122a23.262 23.262 0 011.775-.14 28.817 28.817 0 012.959.04c.473.03.947.074 1.418.133a15.606 15.606 0 011.759.305c.147.036.294.074.44.118.146.042.292.09.434.144.161.06.317.13.467.214.084.046.163.1.237.163.02.017.04.036.058.057l-.019-.02.102.098.146.14c.121.119.17.229.166.33l-.004-.011-.006 1.995-.009.078c-.109.514-1.012.729-1.369.826a11.42 11.42 0 01-1.633.304 23.365 23.365 0 01-3.318.155c-1.179-.021-5.376-.243-6.429-1.3l-.001-.003a.685.685 0 01-.177-.37v.012z"/><path stroke-width=".5" d="M24.255 11.967c0 4.993-4.054 9.04-9.053 9.04-4.999 0-9.051-4.047-9.051-9.04 0-4.992 4.052-9.038 9.05-9.038 5 0 9.053 4.046 9.053 9.038h0z"/><path d="M25.851 11.967c0 5.874-4.768 10.635-10.65 10.635-5.88 0-10.648-4.761-10.648-10.635 0-5.873 4.768-10.634 10.649-10.634 5.881 0 10.65 4.762 10.65 10.634z"/></g></svg>