<svg xmlns="http://www.w3.org/2000/svg" width="23" height="34"><g fill="none" fill-rule="evenodd"><path stroke="#394791" d="M13.453 9.711c4.31-3.247 8.268-5.262 8.842-4.5.575.762-2.453 4.012-6.763 7.259-4.31 3.247-8.268 5.262-8.842 4.5-.574-.761 2.454-4.011 6.763-7.259z"/><path stroke="#394791" d="M6.684 17.013c-.632.106-1.306-.243-2.022-1.05-1.157-1.307-2.026-2.469-1.157-4.937.868-2.467 4.631-7.26 9.697-8.856 3.377-1.065 5.838-1.113 7.382-.145.868.484 1.4 1.064 1.592 1.742.193.678.241 1.21.144 1.597"/><path stroke="#394791" d="M3.215 13.204c-.965 3-1.543 5.661-1.737 7.985-.193 2.323-.193 5.614 0 9.872.58.968 1.496 1.452 2.75 1.452 1.255 0 2.316-.338 3.184-1.016.772-3.097 1.158-5.976 1.158-8.638s-.048-4.67-.144-6.026"/><path fill="#666" d="M7.918 16.4c-.097-.19.765-.63.862-.44a.362.362 0 0 1-.023.346c.201-.096.412-.144.457-.055.096.19-.018.442-.256.562-.238.122-.51.066-.606-.124-.016-.032-.004-.073.027-.116-.193.044-.384-.022-.461-.174zm1.592 0c-.096-.19.765-.63.862-.44.096.19-.018.442-.256.563-.238.122-.51.066-.606-.124zm.29-1.598c-.097-.19.764-.629.86-.439.098.19-.017.442-.254.563a.615.615 0 0 1-.036.017.337.337 0 0 1 .012.277c.133-.043.247-.048.279.014.01.018.016.036.022.055.117-.207.764-.508.847-.345.04.078.044.168.017.255.227-.13.509-.214.561-.11.097.19-.018.441-.255.563-.238.121-.51.066-.606-.124a.069.069 0 0 1-.004-.009c-.229.104-.482.046-.575-.137l.025.036a.51.51 0 0 1-.287.38c-.238.12-.51.064-.606-.125-.016-.03-.007-.066.019-.105a.36.36 0 0 1-.309-.186c-.057-.113.226-.315.485-.419a.324.324 0 0 1-.195-.16zm-1.592.726c-.097-.19.764-.629.86-.439.098.19-.017.442-.254.563-.238.121-.51.066-.607-.124zm3.762-.726c-.096-.19.766-.629.862-.439.097.19-.018.441-.255.563-.239.121-.51.066-.607-.124zm-2.75-.436c-.096-.19.766-.628.862-.439.097.19-.018.442-.255.563-.239.122-.51.066-.607-.124zm2.316-.58c-.096-.19.765-.629.862-.44.096.19-.018.443-.256.564l.012-.008c.118-.032.215-.031.244.025.096.19-.018.442-.256.564-.238.12-.51.065-.606-.124-.055-.109.2-.297.449-.405-.19.039-.373-.028-.449-.177zm2.316-.145c-.096-.19.765-.63.862-.44.096.19-.018.442-.256.564a.56.56 0 0 1-.31.061c.067.181-.048.407-.27.52-.237.12-.508.065-.604-.125-.018-.032-.006-.073.026-.116-.193.044-.383-.022-.461-.174-.097-.19.765-.628.861-.44a.362.362 0 0 1-.022.347c.091-.044.185-.077.264-.093a.284.284 0 0 1-.09-.104zm-3.184.145c-.097-.19.765-.629.862-.44.096.19-.018.442-.256.564-.238.121-.51.065-.606-.125zm2.171-.58c-.097-.19.765-.63.861-.44.097.19-.017.442-.255.563-.238.122-.51.066-.606-.124zm1.013-.291c-.096-.19.765-.63.862-.44.096.19-.018.442-.256.564-.238.12-.509.066-.606-.124zm-2.894-.29c-.097-.19.764-.629.86-.44.098.19-.017.442-.255.564-.237.12-.509.065-.605-.124zm2.793-.573c.174-.203.74-.454.818-.302.097.19-.018.441-.255.563-.238.121-.51.066-.607-.124l.026.035a.509.509 0 0 1-.288.38c-.238.12-.51.064-.606-.126a.04.04 0 0 1-.004-.008.517.517 0 0 1-.258.279c-.239.12-.51.065-.607-.124-.096-.19.766-.629.862-.44.03.058.04.122.032.186.135-.207.755-.49.836-.331.01.018.017.036.022.055zm1.549-.299c-.097-.19.764-.628.86-.44.098.19-.017.443-.254.564l.04-.025c.034.005.058.02.07.043a.321.321 0 0 1 .033.177c.183-.08.36-.112.401-.032.097.19-.017.442-.255.563-.238.122-.51.066-.606-.124l.021.032c-.192.04-.378-.026-.455-.177-.054-.106.191-.29.435-.398a.353.353 0 0 1-.29-.183zm-1.882-.435c-.097-.19.765-.629.862-.44.096.19-.018.443-.256.564-.238.12-.51.065-.606-.124zm3.661-.863c.175-.203.741-.454.819-.302.096.19-.018.442-.256.563l.015-.009a.626.626 0 0 1 .099-.019c.035-.205.776-.565.866-.39.096.19-.018.442-.256.563a.525.525 0 0 1-.435.03c-.005.155-.113.316-.289.406-.238.12-.51.065-.606-.125-.055-.108.2-.296.449-.404-.19.039-.373-.028-.449-.176a.069.069 0 0 1-.003-.008.52.52 0 0 1-.259.277c-.238.12-.51.066-.606-.124l.025.035a.51.51 0 0 1-.287.38c-.238.12-.51.065-.606-.125-.097-.19.764-.628.86-.438a.31.31 0 0 1 .022.054c.118-.207.765-.508.848-.345.03.057.039.12.032.184zm-4.095.427c-.097-.19.764-.629.861-.439.097.19-.017.442-.255.563-.238.121-.51.066-.606-.124zm1.736-.145c-.096-.19.766-.63.862-.44.097.19-.018.443-.255.564-.239.12-.51.066-.607-.124zm.435-.726c-.097-.19.765-.629.861-.44.097.19-.018.443-.256.564-.237.12-.508.065-.605-.124zm3.184-.145c-.097-.19.765-.629.861-.44.097.19-.017.443-.255.564-.238.121-.51.065-.606-.125zm-.536-.427c.175-.204.741-.454.819-.302.096.189-.018.44-.256.562-.238.122-.51.066-.606-.124a.068.068 0 0 1-.004-.01.517.517 0 0 1-.258.28c-.238.12-.51.066-.606-.124-.097-.19.764-.63.861-.44.03.059.04.122.032.186zM15.3 9.285c-.097-.19.764-.629.861-.44.097.19-.018.443-.255.564-.238.121-.51.065-.606-.124zm1.447-.29c-.097-.19.765-.63.861-.44.097.19-.018.442-.255.563-.238.122-.51.066-.606-.124zm2.46 0c-.096-.19.765-.63.862-.44.097.19-.018.442-.255.564-.238.12-.51.066-.607-.124zm-.1-1.153c.173-.204.74-.454.817-.303a.361.361 0 0 1-.022.346c.2-.096.411-.144.456-.055.097.19-.018.441-.255.563-.238.12-.51.066-.606-.124-.017-.033-.005-.074.027-.117-.193.045-.383-.021-.461-.174l.025.033a.51.51 0 0 1-.288.382c-.238.12-.509.066-.606-.124-.096-.19.765-.63.862-.44a.31.31 0 0 1 .022.056zm-1.637.136c-.096-.19.766-.628.862-.439.097.19-.018.442-.255.563-.239.122-.51.066-.607-.124zm3.04-.145c-.096-.19.765-.629.862-.44.096.19-.018.443-.256.564-.238.121-.509.065-.606-.124zm.434-.871c-.096-.19.765-.629.862-.439.096.19-.018.441-.256.563-.238.121-.509.066-.606-.124zm-1.736 0c-.097-.19.764-.629.861-.439.097.19-.018.441-.255.563-.238.121-.51.066-.607-.124zm1.158-.29c-.097-.19.764-.629.861-.44.097.19-.018.442-.256.564-.238.121-.509.065-.605-.124z"/></g></svg>