<svg xmlns="http://www.w3.org/2000/svg" width="16" height="32"><g fill="none" fill-rule="evenodd" transform="translate(1)"><path stroke="#394791" stroke-linecap="round" stroke-linejoin="round" d="M8.482 6.201L6.16 6.136v17.736H.291v2.321H6.16v5.289h2.322v-5.289h5.868v-2.321H8.482z"/><path stroke="#394791" stroke-linecap="round" stroke-linejoin="round" d="M5 19c0 2-1.59 2.856-2.355 4.033C1 25 2 28 5.87 28.515"/><rect width="2" height="6" x="4" y="13" fill="#FFF" stroke="#394791" rx="1"/><path fill="#FFF" d="M1.844 8.25l-.01-1.716-.01-.01c.004-.082.051-.165.146-.255l.214-.203.005-.004c.056-.05.117-.093.183-.131a2.702 2.702 0 0 1 .338-.156c.163-.06.33-.111.498-.152.183-.047.368-.085.554-.12.233-.042.468-.077.704-.105a20.301 20.301 0 0 1 1.55-.122c.86-.033 1.722-.021 2.582.034.413.027.826.065 1.237.116.35.043.698.097 1.044.162.164.032.328.066.49.105a7.019 7.019 0 0 1 .765.228c.139.052.276.115.407.186.072.041.141.09.206.143a.69.69 0 0 1 .051.05l-.017-.018.09.086.127.123c.106.103.148.199.145.288l-.004-.01-.005 1.741-.008.067c-.095.45-.883.637-1.195.722a9.987 9.987 0 0 1-1.425.265c-.964.12-1.925.153-2.895.135C6.58 9.681 2.919 9.487 2 8.564l-.001-.002a.593.593 0 0 1-.155-.322"/><path stroke="#394791" stroke-linecap="round" stroke-linejoin="round" d="M1.844 8.25l-.01-1.716-.01-.01c.004-.082.051-.165.146-.255l.214-.203.005-.004c.056-.05.117-.093.183-.131a2.702 2.702 0 0 1 .338-.156c.163-.06.33-.111.498-.152.183-.047.368-.085.554-.12.233-.042.468-.077.704-.105a20.301 20.301 0 0 1 1.55-.122c.86-.033 1.722-.021 2.582.034.413.027.826.065 1.237.116.35.043.698.097 1.044.162.164.032.328.066.49.105a7.019 7.019 0 0 1 .765.228c.139.052.276.115.407.186.072.041.141.09.206.143a.69.69 0 0 1 .051.05l-.017-.018.09.086.127.123c.106.103.148.199.145.288l-.004-.01-.005 1.741-.008.067c-.095.45-.883.637-1.195.722a9.987 9.987 0 0 1-1.425.265c-.964.12-1.925.153-2.895.135C6.58 9.681 2.919 9.487 2 8.564l-.001-.002a.593.593 0 0 1-.155-.322"/><path stroke="#394791" stroke-linecap="round" stroke-linejoin="round" stroke-width=".5" d="M2.152 6.1a.41.41 0 0 0-.063.087.266.266 0 0 0-.028.18.322.322 0 0 0 .035.092c.02.033.042.064.069.091.028.03.058.057.09.082.042.033.086.063.132.09.116.068.236.126.36.175.075.03.15.059.227.084.178.06.36.112.541.157.215.054.43.1.648.14a15 15 0 0 0 .74.118 23.382 23.382 0 0 0 3.224.197c.409-.002.817-.015 1.226-.038.375-.022.75-.054 1.123-.1.321-.036.642-.087.959-.152.142-.03.283-.063.423-.1.12-.033.24-.07.357-.112.126-.045.248-.1.366-.163a1.33 1.33 0 0 0 .112-.072.562.562 0 0 0 .184-.193.291.291 0 0 0 .032-.138.27.27 0 0 0-.015-.077.443.443 0 0 0-.085-.137l-.01-.012"/><path stroke="#394791" stroke-linecap="round" stroke-linejoin="round" d="M8.656 5.323v-3.29a1.16 1.16 0 1 0-2.322 0v3.225"/><path stroke="#394791" stroke-linecap="round" d="M4 15h2"/></g></svg>