<svg xmlns="http://www.w3.org/2000/svg" width="42" height="29"><g fill-opacity="0" fill="none"><path stroke="#394791" stroke-width=".5" d="M7.816 18.584c4.849 2.823 8.687 4.234 11.515 4.234 2.829 0 5.253-.606 7.273-1.818l7.879-4.242c2.02-1.381 3.232-2.39 3.636-3.03.606-.96 1.819-3.637-1.212-5.455-2.02-1.212-3.636-2.223-4.848-3.03-1.212-.808-2.223-1.01-3.03-.607-1.213.606-20.607 12.122-21.213 12.728-.404.404-.404.81 0 1.22z"/><path stroke="#394791" stroke-width=".5" d="M38.877 11.505c0-.606.05-1.414-1.97-2.626s-3.636-2.223-4.848-3.03c-1.212-.808-2.223-1.01-3.03-.607-1.213.606-20.91 12.122-21.516 12.728"/><path stroke="#394791" d="M1.202 16.152c-.404-.405-.202-.808.606-1.213.808-.404 8.485-4.848 23.03-13.333.809-.404 1.415-.606 1.818-.606.405 0 1.212.404 2.425 1.212l9.09 5.455c2.021 1.415 2.829 3.031 2.425 4.848-.404 1.817-2.828 3.84-7.273 6.069-4.04 2.418-7.07 4.032-9.09 4.84-3.031 1.212-6.668 1.212-9.698 0-.322-.164-7.665-3.789-9.697-4.848-1.558-.813-2.77-1.621-3.636-2.424z"/><path stroke="#394791" d="M1.15 16.152l1.818 3.038c1.616 2.015 2.828 3.224 3.636 3.628 1.212.606 8.485 5.455 12.727 5.455 4.243 0 14.47-6.045 16.97-8.477 2.5-2.432 4.444-6.183 4.344-8.028"/><path stroke="#394791" stroke-width=".5" d="M17.503 10.09c0 .335-.54.607-1.207.607-.666 0-1.207-.272-1.207-.606 0-.335.54-.606 1.207-.606s1.207.271 1.207.606z"/><path stroke="#666" stroke-width=".5" d="M17.513 10.105c0 .502-.678.909-1.515.909-.837 0-1.515-.407-1.515-.91 0-.502.678-.908 1.515-.908.837 0 1.515.406 1.515.909zm2.398 4.959c.32.097.699-.212.845-.692.147-.48.007-.949-.314-1.047-.32-.098-.698.212-.844.692-.148.48-.007.95.313 1.047zm3.057 4.126c0 .334-.543.606-1.212.606-.67 0-1.212-.272-1.212-.606 0-.335.542-.606 1.212-.606.67 0 1.212.271 1.212.606z"/></g></svg>