<svg xmlns="http://www.w3.org/2000/svg" width="38" height="34" viewBox="0 0 38 34"><g fill="none" fill-rule="evenodd" stroke="#394791" stroke-linecap="round"><path stroke-width=".5" d="M.174 28.745l6.479-2.066m27.632-8.726l3.153-1.006M9.377 25.88c.039.058.197.202.24.258a1.6 1.6 0 00.142.157c.103.098.214.183.331.262m-.713-.677l-3.458-1.627m4.555 4.24a6.958 6.958 0 01-1.076-2.475m19.504 4.187c-1.828.31-4.254.397-6.098.333M8.97 7.132c-.071-.643-.04-1.548.205-2.164m.064 3.238c-.177-.345-.228-.7-.269-1.074m6.703 22.093c-.42-.193-.839-.392-1.258-.589-.42-.195-.838-.394-1.257-.59l-2.515-1.181m10.628 3.585l-.177-.014m-11.004-3.88c.176.12.361.219.553.309m-1.267-1.007l-.068-16.47m15.158-5.173c.01-.126-.212-.277-.284-.328M34.236 9.87c.227-.157.433-.408.331-.717m-11.023-5.7c.217.139.43.283.638.433M22.96 3.1c.199.113.393.231.585.354m10.692 6.418c-.553.382-1.456.654-2.084.81a20.81 20.81 0 01-2.204.413M9.174 4.979c.04.17.102.328.179.484m0 0c.077.157.171.3.276.44m0 0c.176.233.374.44.585.642m0 0c.264.251.536.491.806.735m0 0c.235.213.471.425.717.626m0 0c.162.133.326.262.494.387m0 0c.649.482 1.336.877 2.06 1.231.36.177.724.341 1.091.5.184.08.369.156.553.234.184.078.368.158.552.235m0 0c.846.356 2.367.567 3.25.675 1.1.138 2.207.225 3.316.26m0 0c2.235.062 4.674-.019 6.895-.335M9.27 4.843C8.172 4.21 6.753 3.545 5.544 3.18m12.316.714a.94.94 0 00-.314-.087 2.817 2.817 0 00-.153-.007m-.364.025c.117-.014.234-.023.353-.025m-.353.025a2.538 2.538 0 00-.307.058m1.156.021c.185.108.36.23.532.358m-1.287.163a62.556 62.556 0 01-.482-.365m-.05-.082c0-.005.002-.01.004-.014a.052.052 0 01.007-.014.052.052 0 01.01-.012c.004-.004.008-.009.013-.012l.017-.012.02-.01a.43.43 0 01.05-.018M9.215 8.142a1.517 1.517 0 00.27.474c.049.06.101.118.153.175m20.62 3.723a20.993 20.993 0 001.48-.258c.313-.067.624-.144.932-.23a8.09 8.09 0 001.016-.354 3.187 3.187 0 00.772-.449m-4.2 1.291c-.556.08-1.113.143-1.672.19-.603.052-1.208.09-1.813.112-.312.012-.623.02-.935.027-.313.004-.626.006-.94.004a44.062 44.062 0 01-1.888-.052m0 0a37.043 37.043 0 01-2.002-.151 28.496 28.496 0 01-2.633-.393 17.312 17.312 0 01-1.092-.263 11.45 11.45 0 01-.621-.193 8.36 8.36 0 01-.279-.102m0 0l-.08-.032-.04-.016-.13-.052-.08-.032-.333-.13-.067-.026-.269-.105-.174-.067-.452-.175-.924-.36-.628-.246c-.347-.135-2.503-.98-2.85-1.114m7.328-4.758a1.158 1.158 0 01-.431-.078.712.712 0 01-.102-.054m.898.108a3.044 3.044 0 01-.365.024m.678-.087c-.103.03-.208.05-.313.063m.39-.272c.02.017.039.038.051.06a.08.08 0 01.007.044l-.002.015a.093.093 0 01-.016.028.124.124 0 01-.03.024.38.38 0 01-.087.04m-8.006 4.842c-.261-.153-.505-.315-.714-.542m.416.355c-.253-.117-.516-.266-.715-.476m-.65-.385L5.767 7.134m3.575 1.54c-.162-.171-.441-.302-.65-.384m1.536-3.626c.412.252.808.522 1.194.813m0 0c.254.192.46.299.78.34.29.038.57.006.855-.033m0 0c1.02-.138 4.59-.59 5.61-.721m-9.493-.095c.015-.092.11-.146.19-.162m0 0c.265-.05.599-.095.863-.142M21.05 30.43a30.072 30.072 0 01-.79-.079m.393.042a23.33 23.33 0 01-2.54-.38 13.199 13.199 0 01-1.242-.325 9.95 9.95 0 01-1.198-.464M33.3 28.027c-.06.425-.468.764-.778.965a5.912 5.912 0 01-1.142.555 13.47 13.47 0 01-2.453.653m.049-.008l-.074.013m-6.928.294c-.232-.014-.464-.03-.696-.049m1.525.088c-.257-.009-.514-.02-.77-.035m1.86-26.108c.103-.012.206-.024.307-.046a.93.93 0 00.15-.041c.031-.013.112-.045.115-.093m-5.796.848c.852-.109 4.371-.566 5.224-.668m-.899-1.351c.226-.016.452-.03.679-.042"/><path d="M23.576 2.896c.333.104.832.33 1.157.46.277.11.547.23.812.363.341.173.665.364.975.585.314.222.606.465.901.707.25.204.496.406.75.598.17.128.343.249.518.365.685.447 1.407.837 2.158 1.165.374.166.751.321 1.132.472.38.15.763.293 1.145.438.46.175 1.253.536 1.442 1.106.13.387.233 1.191.25 1.601a.739.739 0 01-.015.152.9.9 0 01-.054.14 1.256 1.256 0 01-.092.138 1.888 1.888 0 01-.13.138c-.04 1.195-.113 2.92-.162 4.09a170.447 170.447 0 01-.225 4.216c-.188 2.81-.44 5.607-.838 8.396a1.22 1.22 0 01-.076.28c-.42 1.032-1.02 1.996-1.806 2.782-.39.389-1.12.687-1.61.855-.584.2-1.173.343-1.779.448-1.307.227-2.951.313-4.273.31-1.431 0-2.86-.117-4.27-.35a17.931 17.931 0 01-2.094-.465 12.342 12.342 0 01-1.337-.475c-.223-.096-.44-.202-.659-.307l-3.87-1.865a3.835 3.835 0 01-.494-.28c-.139-.094-.697-.462-.809-.59l-.705-.35-2.864-1.363a7.43 7.43 0 01-.518-1.166 4.695 4.695 0 01-.25-1.248c-.017-2.683-.035-5.341-.055-8l-.063-8.977-.55-.217c-.026-.011-.05-.195-.05-.195.011-.674.098-1.061.192-1.724.082-.575.121-1.15.13-1.73l.002-.135c0-.073.036-.137.104-.162 2.14-.686 4.535-1.145 6.748-1.414 2.335-.284 4.886-.408 7.237-.303 1.3.353 3.995 1.51 3.995 1.51h0z"/></g></svg>