<svg xmlns="http://www.w3.org/2000/svg" width="20" height="34"><g fill="none" fill-rule="evenodd" stroke="#394791" stroke-linecap="round" stroke-linejoin="round"><path d="M3.857 21.167c-.166.038-.574.12-.572.383v.001l.016 2.131v.002c.001.022.01.043-.015.062h-.005l-.005.002-.89.231-.007.002-.79.205c-.632.164-.635 1.039-.55 1.51.089.489.377 1.215.913 1.43h.001c.262.132.45.075.45.075l.862-.245.03 4.067c-.028.027-.111.088-.182.17a.406.406 0 0 0-.119.286l.003.29c.003.31.431.493.65.568.294.102.59.15.898.174.628.049 1.21.012 1.811-.206.225-.081.682-.28.683-.602v-.29a.355.355 0 0 0-.052-.188.482.482 0 0 0-.092-.12.84.84 0 0 0-.06-.054c-.022-.018-.093-.061-.096-.106l.008-5.012s.002-.046-.003-.065l1.095-.329c.13.034.247.037.377-.002l.007-.002 1.498-.44.001-.002c.45-.152.597-.691.601-1.084a1.981 1.981 0 0 0-.35-1.19c-.211-.319-.606-.679-1.074-.57l-.004.001-.14.037.031-4.239.001.005c.001-.042-.13-.078-.292-.08-.162-.003-.293.03-.295.071h.001l-.025 4.392-.768.198-.008.002a.672.672 0 0 0-.21.095l-.429.126.002-1.334c0-.194-.385-.291-.515-.33l-.125-.03-.057-10.613v-.003c.002-1.676.276-3.15 1.122-4.644.777-1.369 2.11-2.599 3.88-2.488h.007c.372.027.736.107 1.085.237a5.05 5.05 0 0 1 1.065.565c.183.128.359.267.527.414a7.69 7.69 0 0 1 1.266 1.463c.228.342.433.697.615 1.065.198.4.37.811.515 1.232.294.855.49 1.74.583 2.64l.061.594.002.016.16 1.558c.005.043.044.012.067.013h.094c.397-.034.806-.04 1.2-.087.198-.025.4-.036.596-.065a9.15 9.15 0 0 0 .294-.047c.07-.012.141-.026.21-.044.027-.007.078.017.074-.032l-.156-1.563-.002-.007-.06-.606c-.224-2.233-.996-4.511-2.343-6.352-1.32-1.806-3.323-3.317-5.732-3.404L10.94 1c-2.353.017-4.235 1.414-5.413 3.28-1.17 1.852-1.655 4.122-1.644 6.257L3.865 21.14"/><path stroke-width=".5" d="M2.33 24.185c.54.274.829 1.022.886 1.549m0 0c.007.072.02.143.04.214a.643.643 0 0 0 .064.151.4.4 0 0 0 .093.108.296.296 0 0 0 .121.054l.026.005a.333.333 0 0 0 .113-.006l.009-.002m.407.379l-.82.25"/><path stroke-width=".5" d="M4.305 25.423a.698.698 0 0 1-.022.255.79.79 0 0 1-.118.242m0 0a.9.9 0 0 1-.453.33l-.03.008m1.165-1.614c-.286-.33-.939-.763-1.274-.857m.516 2.85c.06-.017.118-.04.175-.065a2.134 2.134 0 0 0 .784-.641 1.33 1.33 0 0 0 .181-.314.721.721 0 0 0 .048-.23.655.655 0 0 0-.098-.337 1.76 1.76 0 0 0-.2-.27 2.482 2.482 0 0 0-.132-.136m1.204-3.487c.105.092.038.164-.062.221a1.027 1.027 0 0 1-.27.099 3.265 3.265 0 0 1-1.014.07 2.578 2.578 0 0 1-.503-.076.79.79 0 0 1-.235-.095c-.09-.058-.123-.125-.035-.204m-.76 2.682a1.05 1.05 0 0 0-.239.011l-.063.01a4.408 4.408 0 0 0-.302.064l-.06.015-.02.006-.093.024a.328.328 0 0 0-.023.006l-.07.019a.78.78 0 0 0-.08.027.11.11 0 0 0-.036.023.033.033 0 0 0-.006.01v.012c.003.005.004.009.008.013.01.011.022.022.035.03l.029.018.034.02.045.023"/><path stroke-width=".5" d="M8.714 22.411l.004.017c0 .006 0 .012-.002.018a.085.085 0 0 1-.015.034.124.124 0 0 1-.032.028.262.262 0 0 1-.08.03.521.521 0 0 1-.138.004.794.794 0 0 1-.225-.055M6.047 21.14c.068.015.136.032.201.053m.942 1.538l.155-.04m-.658.171l-.002.84m-.011 7.241v.354m-3.311.054l-.003-.354m4.756-5.54l-.277.082m.949-7.486c-.001.042-.133.073-.295.07-.162-.002-.293-.037-.292-.08m11.126-6.687c.017.02-.726.115-.944.14-.383.043-.765.082-1.147.113-.101.008-.201.015-.302.02-.029 0-.12.005-.128-.002M10.939 1c.083 0 .166 0 .249.004M3.573 23.787a.95.95 0 0 0-.275-.045m-1.344.468c.543.196.858.912.951 1.394.09.461.106 1.35-.512 1.53m5.723-1.676c.447-.13.58-.673.583-1.05m0 0a1.977 1.977 0 0 0-.339-1.16c-.199-.306-.583-.669-1.015-.557m-.668 3.187a1.16 1.16 0 0 0-.02-.092l-.017-.057-.01-.032-.034-.11a2.212 2.212 0 0 1-.057-.218 1.536 1.536 0 0 1-.03-.322 2.18 2.18 0 0 1 .026-.317l.025-.15.053-.277.02-.105c.02-.114.035-.23.046-.346.004-.05.006-.1.006-.15m-2.94 8.05c.643.288 1.722.262 2.366.033m.577-10.26c0 .253-.497.337-.652.372a4.69 4.69 0 0 1-.787.098c-.537.027-1.047.018-1.572-.151m0 0c-.108-.035-.39-.129-.392-.294m.078 9.8c.001.201.237.336.382.401m2.928-.454c0 .262-.38.424-.562.488m-2.936-7.931a.57.57 0 0 1 .127.038c.61.27.938 1.006 1.003 1.532"/></g></svg>