<svg xmlns="http://www.w3.org/2000/svg" width="25" height="33"><g fill="none" fill-rule="evenodd"><path stroke="#394791" d="M22.492 17.273c2.657-6.453 2.193-12.663-1.43-14.755C16.825.073 9.876 4.18 5.54 11.69c-4.336 7.511-4.419 15.583-.183 18.029 3.627 2.093 9.243-.617 13.505-6.155"/><path fill="#394791" d="M17.016 23.331v8.228c0 .45.262.675.784.675.521 0 .82-.15.895-.45V23.67"/><path stroke="#394791" d="M17.016 23.331v8.228c0 .45.262.675.784.675.521 0 .82-.15.895-.45V23.67m3.364-6.684c1.01.583.997 2.498-.03 4.277s-2.678 2.747-3.689 2.165c-1.01-.583-.997-2.499.03-4.278 1.028-1.779 2.679-2.747 3.69-2.164z"/><path stroke="#394791" stroke-width=".5" d="M19.976 1.855C15.741-.591 8.792 3.517 4.456 11.028.118 18.539.035 26.61 4.27 29.056m17.941-11.868c-.127-.587-.416-1.053-.866-1.313-1.225-.707-3.175.38-4.358 2.428-1.182 2.048-1.148 4.28.076 4.988.487.28 1.339.28 1.339.193"/><path stroke="#394791" stroke-width=".5" d="M17.016 23.331l-3.466-1.915c-.596-.676-.782-1.54-.559-2.592a7.785 7.785 0 0 1 1.342-3.043c1.267-1.728 2.572-2.33 3.914-1.804l3.355 2.029"/><path stroke="#394791" stroke-width=".5" d="M17.688 13.752l-2.349-1.466c-1.193-.223-2.385.453-3.578 2.029-1.193 1.576-1.603 3.154-1.23 4.734.223.525.484.864.782 1.014.298.15.932.488 1.901 1.014"/><path stroke="#394791" stroke-width=".5" d="M16.57 13.076c-1.193-.376-2.424.375-3.691 2.254-1.268 1.878-1.491 3.606-.671 5.184"/></g></svg>