<svg xmlns="http://www.w3.org/2000/svg" width="40" height="40" viewBox="0 0 40 40"><path fill="#eee" d="M0 2a2 2 0 012-2h36a2 2 0 012 2v36a2 2 0 01-2 2H2a2 2 0 01-2-2z"/><path fill="#666" d="M13.525 8.37c.34.073.689.117 1.017.224 1.637.533 2.694 1.644 3.18 3.286.261.885.224 1.782-.03 2.668-.042.146-.025.244.09.358 2.451 2.442 4.9 4.886 7.341 7.338.148.148.278.106.429.072.908-.207 1.823-.273 2.722.015 1.792.575 2.883 1.804 3.293 3.633.156.693.108 1.385-.057 2.072-.142.59-.754.771-1.193.344-.592-.577-1.168-1.171-1.759-1.75-.637-.623-1.573-.573-2.098.102-.37.474-.386 1.187.016 1.64.432.488.908.936 1.366 1.4.181.185.37.361.546.549.411.436.236 1.032-.342 1.18a4.737 4.737 0 01-5.834-3.656c-.154-.762-.093-1.525.094-2.275.054-.214.017-.351-.145-.512a2006.045 2006.045 0 01-7.216-7.207c-.153-.154-.284-.195-.493-.144-.992.24-1.992.287-2.959-.083-1.68-.642-2.708-1.86-3.07-3.625-.041-.207-.062-.417-.093-.626v-.41c.056-.326.097-.656.172-.978.136-.583.735-.757 1.174-.348.182.17.354.353.532.529.47.461.925.941 1.418 1.378.45.398 1.172.384 1.646.023.682-.521.737-1.448.112-2.087-.562-.574-1.134-1.138-1.705-1.704-.218-.216-.357-.453-.258-.771.098-.313.336-.449.642-.5.245-.04.489-.09.733-.135z"/><path fill="#666" d="M8.33 28.621c.105-.466.234-.922.54-1.304.095-.118.19-.236.297-.342 2.117-2.12 4.234-4.236 6.352-6.354.026-.026.055-.051.066-.061l3.842 3.845a.671.671 0 01-.068.08c-2.112 2.113-4.22 4.228-6.338 6.336-1.024 1.02-2.503 1.127-3.629.272-.553-.42-.883-.983-1.017-1.663-.011-.059-.03-.116-.045-.173zm4.104.038l3.944-3.945c.058-.058.117-.119.164-.186a.674.674 0 00-.372-1.038c-.31-.088-.54.042-.75.253-1.319 1.322-2.64 2.642-3.959 3.963a1.341 1.341 0 00-.15.169.643.643 0 00-.051.706c.125.24.331.364.7.367.147.005.316-.13.474-.289zM29.933 8.33c.177.124.37.231.529.375.318.291.619.6.924.905.334.332.369.605.124 1.008a958.018 958.018 0 01-2.069 3.394c-.303.496-.777.552-1.195.148-.108-.104-.21-.214-.346-.352l-4.57 4.553-1.91-1.895 4.552-4.533c-.115-.12-.218-.216-.31-.322-.287-.333-.245-.79.131-1.017 1.214-.733 2.44-1.448 3.661-2.168.065-.038.136-.064.205-.096z"/></svg>