<svg xmlns="http://www.w3.org/2000/svg" width="26" height="18"><g fill="none" fill-rule="evenodd"><path d="M1-3h24v24H1z"/><path stroke="#394791" d="M16.243 13.132a1.403 1.403 0 0 1 1.188 0c.307.115.6.335.875.656.612.607 1.166.86 1.528.965.381.11.624.082.627.082.276-.04.517.362.538.901.02.539-.186 1.01-.462 1.05l-.02.002c-.172.019-1.332.084-2.693-1.283a9.772 9.772 0 0 1-.053-.054 1.91 1.91 0 0 0-.505-.387l-.117-.05a.851.851 0 0 0-.675.022 1.202 1.202 0 0 0-.487.437c-.073.104-.214.29-.415.5-.438.477-1.136 1.027-2.025 1.027h-.094c-.886 0-1.582-.547-2.021-1.024a4.38 4.38 0 0 1-.474-.584 1.202 1.202 0 0 0-.432-.356c-.254-.117-.519-.108-.79.028h-.002l-.125.07c-.125.08-.252.186-.38.317a5.211 5.211 0 0 1-.052.053c-1.362 1.368-2.522 1.303-2.693 1.284l-.02-.002c-.277-.04-.484-.511-.462-1.05.02-.539.261-.942.538-.901.002 0 .245.029.626-.082.362-.105.916-.358 1.527-.964l.14-.153c.234-.24.48-.408.737-.505.484-.21.892-.135 1.187.001.452.21.741.604.813.71.05.058.099.12.148.183.056.074.124.158.204.244.06.062.129.127.203.19.437.375.899.571 1.374.584.477-.013.94-.209 1.376-.583a3.28 3.28 0 0 0 .204-.191c.08-.087.147-.17.203-.244.049-.064.098-.124.148-.182l.032-.046c.105-.145.379-.479.781-.665zM19.3 7.68c1.643 1.249 3.028 1.164 3.138 1.155.296-.032.544.379.561.918.017.54-.204 1.002-.493 1.034-.067.008-1.68.165-3.602-1.295-.648-.492-1.283-.647-1.887-.46a1.796 1.796 0 0 0-.703.413l-.015.014-.002.004-.002.002C16.192 9.582 14.908 11 12.943 11c-1.423 0-2.47-.812-2.969-1.296-.433-.42-.912-.665-1.386-.706-.55-.048-1.06.126-1.515.518-1.606 1.386-3.476 1.359-3.555 1.357-.29-.006-.522-.45-.518-.99.004-.54.24-.973.53-.966.018 0 1.717.02 3.103-1.176.609-.526 1.283-.76 2.005-.697.624.054 1.254.374 1.821.925.413.402 1.285 1.075 2.484 1.075.898 0 1.622-.35 2.072-.642.467-.304.728-.601.73-.604l.002-.002c.06-.069 1.496-1.679 3.553-.116zm1.29-5.76c1.082.934 2.074 1.321 2.714 1.481.7.175 1.146.126 1.15.125.285-.035.528.424.545 1.027.017.602-.2 1.12-.485 1.154-.08.01-2.009.225-4.313-1.764-.448-.386-.898-.628-1.338-.717a1.885 1.885 0 0 0-1.026.071 2.24 2.24 0 0 0-.89.606l-.012.014-.002.004h-.001c-.108.142-1.64 2.079-4 2.079-1.7 0-2.95-1.1-3.544-1.755-.54-.596-1.138-.942-1.73-1.001-.687-.068-1.323.18-1.892.737C3.844 5.865 1.604 5.828 1.51 5.826 1.225 5.818.997 5.323 1 4.719c.004-.603.237-1.084.522-1.078h.029c.259-.003 2.186-.08 3.782-1.643.72-.706 1.52-1.021 2.374-.937.74.074 1.486.505 2.158 1.246.51.563 1.587 1.508 3.066 1.508 1.088 0 1.97-.475 2.517-.874.54-.393.873-.792.934-.868l.01-.013c.07-.093 1.76-2.244 4.198-.14z"/></g></svg>