<svg xmlns="http://www.w3.org/2000/svg" width="48" height="48"><g fill="none" fill-rule="evenodd"><rect width="48" height="48" fill="#132D52" rx="8"/><path fill="#FEFEFE" d="M31.665 19.596c-.17-.236-.74-.903-1.492-.124L19.395 30.248c-.464.63-.298 1.1.002 1.306 3.406 1.995 7.852 1.542 10.774-1.38 2.866-2.866 3.36-7.2 1.494-10.578m-3.524-3.51c-3.373-1.842-7.688-1.342-10.544 1.514-2.925 2.925-3.375 7.378-1.372 10.788.197.286.74.45 1.426-.138l10.605-10.603c.877-.885.086-1.424-.115-1.562"/><path fill="#FEFEFE" d="M27.788 37.856c-.336-.062-.832.378-3.534.602-7.787.497-14.026-5.168-14.504-12.781a7.648 7.648 0 0 1-.02-.992s.009-.41.362-.408c.597 0 .93.008.93.008.234 0 .445.006.55-.18.072-.129.07-.247-.008-.412l-2.718-5.475-.133-.12a.495.495 0 0 0-.653.153l-.001.005-2.94 5.355c-.134.236-.243.548.185.672.05.024.398.002 1.073.002.207 0 .467.04.467.373 0 .152.013.225.023.377.438 6.96 5.355 12.564 11.765 14.2 3.801.796 6.348.012 7.774-.395 1.166-.361 1.79-.909 1.382-.984M19.462 9.722c.336.064.832-.376 3.535-.602 7.787-.496 14.025 5.168 14.505 12.78.028.44.032.566.018.993 0 0-.008.408-.36.408-.598 0-.931-.008-.931-.008-.234 0-.445-.006-.55.18-.073.127-.07.247.007.412l2.719 5.475.133.122a.498.498 0 0 0 .652-.154l.002-.005 2.94-5.356c.134-.236.242-.55-.185-.674-.051-.024-.398 0-1.072 0-.206 0-.469-.04-.469-.373 0-.152-.012-.225-.022-.38-.438-6.957-5.355-12.56-11.765-14.197-3.801-.796-6.347-.012-7.773.396-1.168.36-1.792.908-1.384.983"/></g></svg>