<svg xmlns="http://www.w3.org/2000/svg" width="48" height="48"><g fill="none" fill-rule="evenodd"><rect width="48" height="48" fill="#132D52" rx="8"/><path fill="#FFF" d="M17.063 38.799c.265.024.406.197.406.46 0 .238-.14.415-.406.436H15.54c-.262-.021-.406-.198-.406-.436 0-.263.144-.436.406-.46h1.523zm2.306-.482c.17-.038.358-.07.534-.07.866 0 1.481.685 1.481 1.52 0 1.194-.658 1.98-1.893 1.98-.51 0-1.574-.328-1.574-.96a.49.49 0 0 1 .49-.484c.285 0 .626.455 1.106.455.498 0 .755-.482.755-.932 0-.43-.243-.72-.685-.72-.414 0-.48.232-.84.232-.284 0-.425-.213-.425-.338 0-.09.017-.163.022-.238l.181-1.512c.076-.555.212-.677.556-.677h1.72c.327 0 .522.195.522.45 0 .495-.37.536-.5.536h-1.344l-.106.758zm5.248.8c0-.54-.052-1.656-.778-1.656-.73 0-.777 1.116-.777 1.655 0 .507.046 1.658.777 1.658.726 0 .778-1.151.778-1.658m-2.668 0c0-1.165.447-2.627 1.89-2.627 1.441 0 1.894 1.462 1.894 2.627 0 1.165-.453 2.63-1.894 2.63-1.443 0-1.89-1.465-1.89-2.63m9.344 1.479c0-.228-.136-.428-.369-.428-.238 0-.373.2-.373.428 0 .23.135.417.373.417.233 0 .369-.187.369-.417zm-1.471 0c0-.62.466-1.16 1.102-1.16.637 0 1.1.54 1.1 1.16 0 .62-.463 1.15-1.1 1.15-.636 0-1.102-.53-1.102-1.15zm.693-3.92c.095-.18.163-.227.328-.227.222 0 .423.176.423.398 0 .06 0 .106-.057.214l-2.4 4.493c-.108.15-.152.23-.322.23-.185 0-.407-.175-.407-.387 0-.108.044-.208.07-.265l2.365-4.455zm-1.739.97c0-.227-.132-.425-.368-.425s-.37.198-.37.425c0 .23.134.42.37.42s.368-.19.368-.42zm-1.468 0c0-.62.466-1.156 1.1-1.156.634 0 1.1.536 1.1 1.156 0 .62-.466 1.151-1.1 1.151-.634 0-1.1-.53-1.1-1.15zm1.776-22.352c.257-.293.607-.707.295-.436-.455.392-.712-.206-.712-.206l.008.027c-1.357-2.048-2.744-4.46-3.77-7.679-.187-.593-.469-.999-1.062-.999-.509 0-.87.417-1 1-2.515 8.22-7.921 11.521-7.905 17.355 0 1.165.238 2.354.677 3.473-.005.008 0 .035.03.121.173.499-.082.72-.082.72l.336-.18c1.39 2.911 4.201 5.205 7.882 5.205 5.823 0 9.607-4.702 9.607-9.182 0-3.502-2.053-5.91-4.304-9.22"/><path fill="#B4C0D0" d="M16.595 29.703c1.527 2.307 4.035 3.992 7.185 3.992 5.826 0 9.607-4.707 9.607-9.182 0-3.085-1.592-5.317-3.507-8.066L16.595 29.703z"/><path fill="#132D52" d="M35.776 11.05a.484.484 0 0 1-.347-.829l.014-.016a.494.494 0 0 1 .693.008.491.491 0 0 1-.008.694.517.517 0 0 1-.352.143m-3.326 3.326a.474.474 0 0 1-.344-.146.486.486 0 0 1 0-.69l1.541-1.536a.482.482 0 0 1 .688 0 .486.486 0 0 1 0 .69l-1.538 1.539a.502.502 0 0 1-.347.143m-3.323 3.313a.463.463 0 0 1-.344-.147.482.482 0 0 1 0-.688l1.538-1.538a.494.494 0 0 1 .693 0 .49.49 0 0 1-.002.693l-1.541 1.536a.47.47 0 0 1-.344.144m-3.324 3.315a.491.491 0 0 1-.344-.837l1.542-1.536a.488.488 0 1 1 .69.69l-1.54 1.54a.493.493 0 0 1-.348.143m-3.32 3.31a.494.494 0 0 1-.347-.139.491.491 0 0 1 .003-.693l1.538-1.538a.49.49 0 0 1 .69 0c.19.192.19.5 0 .693l-1.54 1.538a.488.488 0 0 1-.344.139m-3.323 3.315a.47.47 0 0 1-.347-.147.487.487 0 0 1 0-.687l1.544-1.536a.486.486 0 0 1 .69 0 .49.49 0 0 1 0 .69l-1.544 1.533a.468.468 0 0 1-.343.147m-3.321 3.315a.477.477 0 0 1-.347-.144.486.486 0 0 1 0-.69l1.541-1.536a.486.486 0 0 1 .691 0 .49.49 0 0 1 0 .69L16.183 30.8a.48.48 0 0 1-.344.144m-3.323 3.315a.5.5 0 0 1-.347-.144.494.494 0 0 1 0-.693l1.544-1.538a.489.489 0 0 1 .688.693l-1.541 1.538a.486.486 0 0 1-.344.144"/><path fill="#FFF" d="M32.293 13.145a.488.488 0 0 1-.347-.834l1.928-1.923a.49.49 0 0 1 .691 0c.19.195.19.503 0 .693l-1.928 1.92a.486.486 0 0 1-.344.144m-3.467 3.459a.493.493 0 0 1-.347-.144.486.486 0 0 1 .003-.693l1.923-1.92a.49.49 0 0 1 .693.693l-1.926 1.92a.493.493 0 0 1-.346.144m-3.47 3.456a.488.488 0 0 1-.344-.831l1.923-1.924a.494.494 0 0 1 .694 0 .489.489 0 0 1 0 .693l-1.929 1.92a.479.479 0 0 1-.344.142m-3.467 3.458a.47.47 0 0 1-.344-.143.494.494 0 0 1 0-.694l1.926-1.917a.487.487 0 1 1 .69.688l-1.925 1.923a.481.481 0 0 1-.347.143m-3.466 3.456a.486.486 0 0 1-.344-.831l1.925-1.923a.49.49 0 0 1 .69.693l-1.925 1.92a.485.485 0 0 1-.346.141m-3.467 3.462a.474.474 0 0 1-.344-.146.489.489 0 0 1 0-.694l1.925-1.917a.488.488 0 1 1 .69.69l-1.925 1.92a.484.484 0 0 1-.346.147m-3.47 3.453a.472.472 0 0 1-.344-.14.49.49 0 0 1 0-.691l1.926-1.92a.48.48 0 0 1 .69 0 .48.48 0 0 1 0 .69l-1.925 1.92a.474.474 0 0 1-.347.141"/><path fill="#132D52" d="M29.82 17.179s.322-.396.58 0c.26.395-.245-.629-.245-.629l-.336.629zM17.212 29.764s-.43.281-.105.687c.355.369-.642-.463-.642-.463l.747-.224z"/></g></svg>