<svg xmlns="http://www.w3.org/2000/svg" width="46" height="46"><g fill="#D0021B" fill-rule="evenodd"><rect width="30" height="30" x="7.627" y="7.627" fill-opacity=".107" stroke="#D0021B" stroke-width="2" rx="4" transform="rotate(45 22.627 22.627)"/><path fill-rule="nonzero" d="M18.434 22.746c-2.073 0-3.434-1.443-3.434-3.332C15 17.504 16.361 16 18.434 16c2.093 0 3.454 1.504 3.454 3.414 0 1.89-1.361 3.332-3.454 3.332zm.203 7.01h-1.524l8.656-13.553h1.544l-8.676 13.553zm7.254.244c-2.072 0-3.434-1.463-3.434-3.353 0-1.91 1.362-3.413 3.434-3.413 2.073 0 3.454 1.503 3.454 3.413 0 1.89-1.381 3.353-3.454 3.353zm-7.457-8.839c.935 0 1.605-.69 1.605-1.747 0-1.138-.67-1.809-1.605-1.809-.914 0-1.605.67-1.605 1.809 0 1.056.69 1.747 1.605 1.747zm7.457 7.254c.935 0 1.626-.67 1.626-1.768 0-1.117-.691-1.808-1.626-1.808-.935 0-1.605.69-1.605 1.808 0 1.098.67 1.768 1.605 1.768z"/></g></svg>