<svg xmlns="http://www.w3.org/2000/svg" width="46" height="46"><g fill="#007AFF" fill-rule="evenodd"><rect width="30" height="30" x="8" y="8" fill-opacity=".064" stroke="#007AFF" stroke-width="2" rx="4" transform="rotate(45 23 23)"/><path d="M22.097 25.287a.458.458 0 0 1-.32-.13l-2.254-2.198a.459.459 0 0 1 .638-.66l.003.003 1.933 1.885 3.739-3.647a.46.46 0 0 1 .649.65l-.008.007-4.06 3.959a.458.458 0 0 1-.32.13zm5.617 3.152C28.954 27.595 30 25.617 30 24.12v-6.686l-5.187-2.545-.003-.001L23 14l-7 3.425v6.696c0 .627.185 1.37.522 2.095.442.95 1.084 1.76 1.764 2.223L23 31.651l4.714-3.212z"/></g></svg>