<svg xmlns="http://www.w3.org/2000/svg" width="24" height="24"><g fill="none" fill-rule="evenodd"><rect width="24" height="24" fill="#394791" rx="2"/><path fill="#FFF" d="M6.276 14.543h5.086V19h-4.37a.716.716 0 0 1-.716-.708v-3.749zM12.638 19v-4.457h5.087v3.75a.716.716 0 0 1-.715.707h-4.372zm2.224-10.819a.957.957 0 1 0 0-1.906c-1.088 0-1.703 1.128-2.007 1.906h2.007zm-5.724 0h2.006c-.303-.785-.917-1.905-2.006-1.905a.956.956 0 1 0 0 1.906zm9.162 0c.389 0 .7.459.7 1.019v3.057c0 .56-.311 1.019-.7 1.019h-5.662V8.18h-1.276v5.095H5.7c-.39 0-.7-.46-.7-1.02V9.2c0-.56.31-1.019.7-1.019h1.432a2.173 2.173 0 0 1-.226-.957A2.231 2.231 0 0 1 9.138 5 3.274 3.274 0 0 1 12 6.999 3.275 3.275 0 0 1 14.862 5c1.23 0 2.228.995 2.232 2.224a2.183 2.183 0 0 1-.225.957h1.43z"/></g></svg>