<svg xmlns="http://www.w3.org/2000/svg" width="24" height="24" viewBox="0 0 24 24">
  <g fill="none" fill-rule="evenodd">
    <rect width="24" height="24" fill="#394791" rx="2"/>
    <path fill="#FFF" fill-rule="nonzero" d="M9.12,11.48 C7.488,11.48 6.416,10.344 6.416,8.856 C6.416,7.352 7.488,6.168 9.12,6.168 C10.768,6.168 11.84,7.352 11.84,8.856 C11.84,10.344 10.768,11.48 9.12,11.48 Z M9.28,17 L8.08,17 L14.896,6.328 L16.112,6.328 L9.28,17 Z M14.992,17.192 C13.36,17.192 12.288,16.04 12.288,14.552 C12.288,13.048 13.36,11.864 14.992,11.864 C16.624,11.864 17.712,13.048 17.712,14.552 C17.712,16.04 16.624,17.192 14.992,17.192 Z M9.12,10.232 C9.856,10.232 10.384,9.688 10.384,8.856 C10.384,7.96 9.856,7.432 9.12,7.432 C8.4,7.432 7.856,7.96 7.856,8.856 C7.856,9.688 8.4,10.232 9.12,10.232 Z M14.992,15.944 C15.728,15.944 16.272,15.416 16.272,14.552 C16.272,13.672 15.728,13.128 14.992,13.128 C14.256,13.128 13.728,13.672 13.728,14.552 C13.728,15.416 14.256,15.944 14.992,15.944 Z"/>
  </g>
</svg>
