<svg xmlns="http://www.w3.org/2000/svg" width="24" height="24" viewBox="0 0 24 24">
  <g fill="none" fill-rule="evenodd">
    <rect width="24" height="24" fill="#394791" rx="2"/>
    <path fill="#FFF" d="M12.0012773,4 L9.62242579,8.71445396 L4.2702415,9.4752219 L8.14431247,13.168854 L7.23338071,18.3642526 L12.0012773,15.9123081 L16.7693242,18.3642526 L15.8583424,13.168854 L19.7322881,9.4752219 L14.3801539,8.71445396 L12.0012773,4 Z M6.50580744,5.78674487 L7.91391844,7.56886022 L8.89640534,6.79395347 L7.48819415,5.0118131 L6.50580744,5.78674487 Z M15.1380073,6.79933372 L16.1287842,7.56350499 L17.5055132,5.78136461 L16.5148113,5.01719335 L15.1380073,6.79933372 Z M4,13.928721 L4.43423977,15.1015664 L6.68215317,14.2710053 L6.24798853,13.0980598 L4,13.928721 Z M17.3323232,14.3183515 L19.5803117,15.1177822 L20,13.9395316 L17.7520115,13.1401509 L17.3323232,14.3183515 Z M11.3755393,20 L12.6270905,20 L12.6270905,17.5926741 L11.3755393,17.5926741 L11.3755393,20 Z"/>
  </g>
</svg>
