<svg xmlns="http://www.w3.org/2000/svg" width="23" height="23" viewBox="0 0 23 23">
  <g fill="none" fill-rule="evenodd">
    <rect width="24" height="24"/>
    <g transform="matrix(-1 0 0 1 23 1)">
      <path fill="#394791" d="M13.0173158,19.4676537 C13.5816247,19.788805 13.7834912,20.5045138 13.4669277,21.0688227 C13.1503642,21.6377194 12.4300676,21.8304103 11.8611708,21.5184346 C11.296862,21.1972833 11.0949954,20.4815745 11.4161468,19.9172656 C11.7372981,19.3483689 12.4530069,19.1465023 13.0173158,19.4676537 Z M7.38569691,19.4676537 C7.95000577,19.7842172 8.15187235,20.5045138 7.83530885,21.0688227 C7.51874534,21.6331316 6.79844867,21.8304103 6.23413981,21.5184346 C5.66524308,21.1972833 5.46796437,20.4769866 5.78911575,19.9172656 C6.10109138,19.3483689 6.81680018,19.1465023 7.38569691,19.4676537 Z M1.74949015,19.4676537 C2.31838688,19.788805 2.52025347,20.499926 2.19910208,21.0688227 C1.88712646,21.6331316 1.16682978,21.8304103 0.597933049,21.5184346 C0.0336241908,21.1972833 -0.168242393,20.4769866 0.15290899,19.9172656 C0.469472496,19.3483689 1.18518129,19.1465023 1.74949015,19.4676537 Z M12.3139943,14.319597 C12.8783031,14.6453363 13.0801697,15.3564572 12.7636062,15.920766 C12.4470427,16.4942506 11.7221582,16.6915294 11.1578493,16.3749659 C10.5935404,16.0538145 10.3916739,15.3381057 10.7174131,14.7692089 C11.0339766,14.2049001 11.7450975,14.0030335 12.3139943,14.319597 Z M2.45281168,14.319597 C3.01712053,14.6453363 3.22357499,15.3610451 2.90242361,15.920766 C2.58586011,16.4896628 1.86556343,16.6915294 1.2966667,16.3749659 C0.732357842,16.0538145 0.535079135,15.3381057 0.856230518,14.7692089 C1.17279402,14.2049001 1.88850282,14.0030335 2.45281168,14.319597 Z M7.38569691,14.319597 C7.95000577,14.6453363 8.15187235,15.3610451 7.83530885,15.920766 C7.51874534,16.4896628 6.79386079,16.6915294 6.23413981,16.3749659 C5.66524308,16.0538145 5.46796437,15.3335178 5.78911575,14.7692089 C6.10109138,14.2049001 6.81680018,14.0030335 7.38569691,14.319597 Z M3.18320168,9.56609775 C3.74751054,9.88724914 3.94937712,10.6029579 3.63281361,11.1672668 C3.31625011,11.7361635 2.59595344,11.9380301 2.03164458,11.6168787 C1.46274784,11.2957273 1.26546914,10.5800185 1.58662052,10.0157097 C1.89859615,9.44681295 2.61430494,9.24953425 3.18320168,9.56609775 Z M7.38569691,9.56609775 C7.95000577,9.88724914 8.15187235,10.6029579 7.83530885,11.1672668 C7.51874534,11.7361635 6.79844867,11.9380301 6.23413981,11.6168787 C5.66524308,11.2957273 5.46796437,10.5800185 5.78911575,10.0157097 C6.10109138,9.45140083 6.81680018,9.24953425 7.38569691,9.56609775 Z M11.5836043,9.56609775 C12.1479131,9.88724914 12.3497797,10.6029579 12.0332162,11.1672668 C11.7166527,11.7361635 10.996356,11.9380301 10.4274593,11.6168787 C9.86315043,11.2957273 9.66587173,10.5800185 9.98702311,10.0157097 C10.3035866,9.44681295 11.0192954,9.24953425 11.5836043,9.56609775 Z"/>
      <path stroke="#394791" d="M21.9843212,19.6800724 C21.8971515,18.7579091 21.2961397,4.37491505 12.1662646,0.516510583 C7.88118762,-1.09383421 2.30232931,1.20927999 1.45357209,5.37048434 C1.11865708,7.00376851 2.30691719,7.02212002 2.5821898,7.07717454 C2.5821898,7.07717454 4.80272222,7.48549558 8.52349038,7.24233811 C10.6017986,7.14599269 11.0605863,6.93953823 11.5836043,6.4302839 C12.2488464,5.78798113 12.8682098,5.66410846 13.606858,6.33393848 C14.5427849,7.18269571 18.7728074,11.6466999 18.9884376,19.6433693 C19.0756072,20.9646779 19.382995,21.2353626 20.5299642,21.258302 C20.5299642,21.258302 22.177012,21.4693444 21.9843212,19.6800724"/>
    </g>
  </g>
</svg>
