<svg xmlns="http://www.w3.org/2000/svg" width="46" height="46" viewBox="0 0 46 46">
  <g fill="#73C9FF" fill-rule="evenodd">
    <rect width="30" height="30" x="8" y="8" fill-opacity=".183" stroke="#73C9FF" stroke-width="2" rx="4" transform="rotate(45 23 23)"/>
    <path d="M23.0012773,15 L20.6224258,19.714454 L15.2702415,20.4752219 L19.1443125,24.168854 L18.2333807,29.3642526 L23.0012773,26.9123081 L27.7693242,29.3642526 L26.8583424,24.168854 L30.7322881,20.4752219 L25.3801539,19.714454 L23.0012773,15 Z M17.5058074,16.7867449 L18.9139184,18.5688602 L19.8964053,17.7939535 L18.4881942,16.0118131 L17.5058074,16.7867449 Z M26.1380073,17.7993337 L27.1287842,18.563505 L28.5055132,16.7813646 L27.5148113,16.0171934 L26.1380073,17.7993337 Z M15,24.928721 L15.4342398,26.1015664 L17.6821532,25.2710053 L17.2479885,24.0980598 L15,24.928721 Z M28.3323232,25.3183515 L30.5803117,26.1177822 L31,24.9395316 L28.7520115,24.1401509 L28.3323232,25.3183515 Z M22.3755393,31 L23.6270905,31 L23.6270905,28.5926741 L22.3755393,28.5926741 L22.3755393,31 Z"/>
  </g>
</svg>
