<svg xmlns="http://www.w3.org/2000/svg" width="632" height="120" viewBox="0 0 632 120">
  <path fill="#9E9E9E" d="M488.356822,169.766117 L517.754123,169.766117 L517.754123,214.923538 C501.859272,223.901636 483.976429,228.774278 465.724138,229.10045 C427.43928,229.10045 402,205.964018 402,171.169415 C402,134.431784 428.230885,111.07946 469.286357,111.07946 C484.146927,111.07946 494.077961,113.598201 514.191904,121.694153 L514.191904,143.895052 C498.431784,135.655172 485.478261,132.056972 472.344828,132.056972 C448.776612,132.056972 432.548726,148.176912 432.512744,171.349325 C432.512744,192.830585 446.185907,207.943028 465.652174,207.943028 C473.465362,207.892366 481.187884,206.26464 488.356822,203.157421 L488.356822,169.766117 Z M542.113943,114.317841 L589.430285,114.317841 C620.986507,114.317841 636.206897,125.616192 636.206897,149.22039 C636.572002,163.145836 628.189507,175.813036 615.229385,180.92054 L652.038981,225.682159 L615.121439,225.682159 L575.001499,171.169415 L578.23988,171.169415 L584.572714,171.169415 C598.929535,171.169415 607.097451,163.901049 607.097451,152.242879 C607.097451,140.584708 599.901049,135.187406 583.349325,135.187406 L570.89955,135.187406 L570.89955,225.862069 L542.113943,225.862069 L542.113943,114.317841 Z M811.043478,114.317841 L839.937031,114.317841 L839.937031,155.481259 L890.995502,155.481259 L890.995502,114.317841 L919.889055,114.317841 L919.889055,225.682159 L890.995502,225.682159 L890.995502,178.077961 L839.937031,178.077961 L839.937031,225.682159 L811.043478,225.682159 L811.043478,114.317841 Z M950.725637,114.317841 L1027.54723,114.317841 L1027.54723,136.122939 L979.583208,136.122939 L979.583208,156.416792 L1019.48726,156.416792 L1019.48726,177.394303 L979.583208,177.394303 L979.583208,203.877061 L1033.84408,203.877061 L1033.84408,225.682159 L950.725637,225.682159 L950.725637,114.317841 Z M654.197901,170.017991 C654.197901,135.187406 682.65967,110 722.23988,110 C761.82009,110 790.605697,135.403298 790.605697,170.017991 C790.605697,204.632684 761.64018,230 722.311844,230 C682.983508,230 654.197901,204.632684 654.197901,170.017991 Z M684.6746,170.017991 C684.638681,192.974513 700.002999,209.058471 722.23988,209.058471 C744.476762,209.058471 759.985007,193.046477 759.985007,170.053973 C759.985007,147.061469 744.476762,130.977511 722.311844,130.977511 C700.146927,130.977511 684.6746,147.025487 684.6746,170.017991 Z" opacity=".119" transform="translate(-402 -110)"/>
</svg>
