<svg xmlns="http://www.w3.org/2000/svg" width="46" height="46" viewBox="0 0 46 46">
  <g fill="#394791" fill-rule="evenodd">
    <rect width="30" height="30" x="8" y="8" fill-opacity=".165" stroke="#394791" stroke-width="2" rx="4" transform="rotate(45 23 23)"/>
    <path d="M17.2758667,25.5431 L22.3625333,25.5431 L22.3625333,29.9997667 L17.9914222,29.9997667 C17.5994222,29.9997667 17.2797556,29.6839889 17.2758667,29.2919889 L17.2758667,25.5431 Z M23.6378556,30.0000778 L23.6378556,25.5434111 L28.7253,25.5434111 L28.7253,29.2923 C28.7206333,29.6843 28.4017444,30.0000778 28.0097444,30.0000778 L23.6378556,30.0000778 Z M25.8622222,19.1811111 C25.9197778,19.1865556 25.9773333,19.1865556 26.0348889,19.1811111 C26.5606667,19.1336667 26.9487778,18.6685556 26.9013333,18.142 C26.8538889,17.6162222 26.3887778,17.2281111 25.8622222,17.2755556 C24.7741111,17.2755556 24.1596667,18.4033333 23.8555556,19.1811111 L25.8622222,19.1811111 Z M20.1377778,19.1811111 L22.1444444,19.1811111 C21.8411111,18.3955556 21.2274444,17.2755556 20.1377778,17.2755556 C20.0802222,17.2701111 20.0234444,17.2701111 19.9658889,17.2755556 C19.4393333,17.323 19.0512222,17.7881111 19.0994444,18.3146667 C19.1468889,18.8412222 19.612,19.2285556 20.1377778,19.1811111 Z M29.3,19.1811111 C29.6888889,19.1811111 30,19.64 30,20.2 L30,23.2566667 C30,23.8166667 29.6888889,24.2755556 29.3,24.2755556 L23.6377778,24.2755556 L23.6377778,19.1811111 L22.3622222,19.1811111 L22.3622222,24.2755556 L16.7,24.2755556 C16.3111111,24.2755556 16,23.8166667 16,23.2566667 L16,20.2 C16,19.64 16.3111111,19.1811111 16.7,19.1811111 L18.1318889,19.1811111 C17.9848889,18.8832222 17.9071111,18.5565556 17.9063333,18.2244444 C17.9102222,16.9947778 18.9081111,16 20.1377778,16 C21.397,16.0598889 22.5107778,16.8368889 23,17.9988889 C23.49,16.8368889 24.603,16.0598889 25.8622222,16 C27.0918889,16 28.0905556,16.9947778 28.0944444,18.2244444 C28.0928889,18.5565556 28.0158889,18.8832222 27.8688889,19.1811111 L29.3,19.1811111 Z"/>
  </g>
</svg>
