<svg xmlns="http://www.w3.org/2000/svg" width="160" height="30"><g fill="none" fill-rule="evenodd"><path fill="red" d="M12 14.637L7.952 23.73H5l4.446-9.723c-2.092-1.06-3.482-2.985-3.482-6.538 0-4.978 3.151-7.465 6.9-7.465h3.816V23.73h-2.556v-9.092H12zm2.125-12.479h-1.361c-2.056 0-4.048 1.361-4.048 5.31 0 3.815 1.826 5.044 4.048 5.044h1.36l.001-10.354z"/><path fill="#222" d="M150.457 8.297v15.432H148.9V8.297h-3.884V7.005h9.294v1.292h-3.852zM139.7 22.702c2.224 0 3.386-1.793 3.386-1.793l.498 1.262s-1.26 1.89-3.915 1.89c-3.552 0-5.177-3.218-5.177-8.694 0-5.476 2.056-8.694 4.878-8.694 2.886 0 4.746 3.019 4.214 8.96h-7.566c.065 4.579 1.261 7.069 3.682 7.069zm-3.65-8.298h6.074c.265-4.446-1.062-6.439-2.754-6.439-1.76 0-3.186 2.258-3.32 6.439zm-9.795 9.325h-1.558V7.005h1.558v7.863l5.61-7.863h1.527l-5.51 7.764 5.907 8.959h-1.726l-5.808-8.66v8.661zm-12.717-1.163v6.339h-1.558v-21.9h1.362l.13 2.753c.73-1.594 1.96-3.085 3.818-3.085 2.786 0 4.41 3.35 4.41 8.195 0 6.14-2.054 9.159-5.173 9.159a3.789 3.789 0 0 1-2.989-1.461zm6.606-7.565c0-4.38-1.196-6.97-3.119-6.97-1.495 0-2.755 1.594-3.487 3.387v9.358c.664 1.361 1.594 2.022 3.088 2.022 2.122 0 3.518-2.52 3.518-7.797zm-13.217 6.473c-.797 1.591-1.99 2.587-3.65 2.587-2.257 0-3.815-1.793-3.815-4.845 0-3.583 1.956-5.442 5.573-5.442h1.826v-2.092c0-2.554-.963-3.65-2.786-3.65-1.428 0-2.722.664-3.52 1.827l-.432-1.495c.664-.863 2.06-1.693 3.952-1.693 2.753 0 4.313 1.527 4.313 4.845v9.128c0 1.16.166 2.454.365 3.085h-1.427c-.133-.432-.3-1.062-.399-2.255zm-.066-1.959v-4.612h-1.79c-2.756 0-4.084 1.261-4.084 4.18 0 2.355 1.03 3.716 2.623 3.716 1.56 0 2.653-1.494 3.25-3.284h.001zM85.812 6.971c-.332-1.229-.597-2.291-.796-3.384h-.1c.066 1.129.1 2.321.1 3.516V23.73h-1.458V0h1.922l4.018 15.166c.166.631.398 1.86.495 2.756h.1a28.5 28.5 0 0 1 .564-2.756L94.705.001h1.86V23.73h-1.59V7.103c0-1.128.062-2.324.128-3.516h-.129a85.826 85.826 0 0 1-.8 3.284l-3.55 13.207h-1.295L85.812 6.971zM29 7.005v16.723h-2.556v-7.499h-3.85v7.499h-2.59V7.004h2.59v7.1h3.85v-7.1L29 7.005zm13.307 20.01h-2.323v-3.287h-7.169v3.287h-2.324v-5.41h1.03c1.526-3.55 1.692-8.726 1.692-13.173V7.005h7.764v14.6h1.33v5.41zM38.425 9.093h-2.89v.3c0 3.519-.163 8.662-1.558 12.212h4.447l.001-12.512zM49.442 23.96c-3.453 0-5.575-2.753-5.575-7.897 0-5.376 1.491-9.291 5.044-9.291 2.786 0 4.613 2.089 4.613 7.764v1.428h-6.97c0 3.782 1.062 5.774 3.118 5.774 1.461 0 2.623-.664 3.287-1.129l.598 1.993c-1.063.83-2.457 1.358-4.115 1.358zm-2.855-10.121h4.28c0-2.853-.464-4.942-1.956-4.942-1.594 0-2.158 1.956-2.324 4.942zm12.18 1.56v8.329h-2.59V7.004h2.59v7.731l4.015-7.73h2.623l-4.15 7.863L66 23.728h-2.82l-4.413-8.329zm7.565-.033c0-5.243 2.025-8.594 5.94-8.594 1.494 0 2.358.398 3.085.863l-.365 2.455c-.697-.598-1.69-1.163-2.753-1.163-1.86 0-3.185 2.092-3.185 6.306 0 4.181.994 6.572 3.085 6.572 1.262 0 2.225-.498 2.823-1.03l.595 1.926c-.894.761-1.957 1.26-3.484 1.26-3.583 0-5.74-2.887-5.74-8.595z"/></g></svg>
